{"glyphs":{"0":{"ha":1273,"x_min":135,"x_max":1230,"o":"m 618 888 q 661 861 661 888 q 622 798 661 842 q 502 560 545 707 q 460 260 460 413 q 563 64 460 64 q 701 165 635 64 q 808 433 768 266 q 848 782 848 600 q 802 929 848 879 q 690 979 755 979 q 588 964 654 979 q 514 948 522 948 q 483 975 483 948 q 510 1016 483 994 q 581 1059 536 1039 q 805 1109 686 1109 q 1002 1076 925 1109 q 1128 983 1080 1042 q 1230 680 1230 863 q 1195 439 1230 553 q 1098 240 1160 326 q 955 91 1036 154 q 578 -36 789 -36 q 248 76 363 -36 q 135 367 135 184 q 172 583 135 485 q 274 748 210 682 q 428 851 339 814 q 618 888 516 888 z "},"1":{"ha":804,"x_min":123,"x_max":829,"o":"m 562 62 l 563 37 q 543 4 563 16 q 498 -8 523 -8 q 343 -14 419 -8 q 233 -19 267 -19 q 185 -18 199 -19 q 155 -11 172 -16 q 123 40 123 0 q 130 101 123 80 q 302 558 192 326 q 404 806 404 771 q 388 834 404 824 q 350 845 372 845 q 273 827 329 845 q 198 808 218 808 q 167 820 178 808 q 156 844 156 831 q 195 898 156 871 q 466 1050 336 993 q 690 1107 596 1107 q 829 983 829 1107 q 811 854 829 922 q 739 661 792 787 q 568 111 645 433 q 562 62 562 86 z "},"2":{"ha":1273,"x_min":57,"x_max":1175,"o":"m 248 87 q 157 6 192 6 q 65 41 82 6 q 57 78 57 56 q 182 256 57 136 q 538 523 308 375 q 752 675 705 629 q 811 755 802 725 q 820 810 820 785 q 687 903 820 903 q 397 845 553 903 q 328 819 335 822 q 308 817 320 817 q 271 850 271 817 q 281 885 271 869 q 317 928 291 902 q 801 1109 506 1109 q 1096 1027 992 1109 q 1175 850 1175 963 q 1049 612 1175 711 q 757 447 939 525 q 590 376 670 410 q 286 216 389 292 q 920 300 464 220 q 1098 327 1070 327 q 1140 315 1126 327 q 1155 276 1155 304 q 1129 174 1155 248 q 1061 35 1103 100 q 984 -34 1018 -30 q 905 -37 949 -37 q 574 5 791 -37 q 248 87 356 48 z "},"3":{"ha":1273,"x_min":70,"x_max":1220,"o":"m 563 82 q 700 145 636 82 q 763 300 763 208 q 700 425 763 370 q 533 505 636 481 q 430 562 430 528 q 513 618 430 607 q 762 690 674 637 q 850 819 850 743 q 802 905 850 868 q 682 941 754 941 q 554 927 610 941 q 449 892 497 913 q 393 867 401 870 q 382 862 385 863 q 336 848 351 848 q 310 858 320 848 q 299 884 299 868 q 422 1008 299 935 q 861 1112 597 1112 q 1169 1006 1071 1112 q 1220 885 1220 952 q 1189 767 1220 818 q 1103 680 1158 717 q 831 577 994 608 q 1095 471 1020 553 q 1156 300 1156 406 q 1106 160 1156 223 q 974 57 1057 97 q 557 -27 802 -27 q 263 -2 376 -27 q 98 56 151 23 q 76 74 82 66 q 70 103 70 83 q 85 176 70 123 q 124 275 100 229 q 169 322 149 322 q 247 260 193 322 q 563 82 402 82 z "},"4":{"ha":1273,"x_min":67,"x_max":1246,"o":"m 1063 445 q 1219 442 1215 442 q 1246 414 1246 442 q 1235 361 1246 391 q 1195 341 1229 345 q 1026 328 1161 337 q 981 104 984 191 q 978 64 981 90 q 976 24 976 39 q 956 -3 976 9 q 911 -15 936 -15 l 642 -19 q 570 39 570 -19 q 657 304 570 141 q 293 289 392 289 q 168 300 195 289 q 104 347 140 311 q 67 408 67 383 q 77 428 67 415 q 132 494 86 440 q 217 598 178 548 q 302 718 256 649 q 446 1033 403 866 q 476 1089 457 1074 q 534 1105 496 1105 l 909 1116 q 958 1080 958 1116 q 947 1040 958 1064 q 806 897 942 1030 q 404 476 404 507 q 667 446 404 446 q 737 446 703 446 q 774 507 751 469 q 810 567 797 545 q 838 615 823 589 q 871 690 866 666 q 930 735 882 735 l 1039 734 q 1103 716 1084 734 q 1121 652 1121 698 q 1063 445 1121 606 z "},"5":{"ha":1273,"x_min":81,"x_max":1219,"o":"m 1126 536 q 1177 387 1177 473 q 1142 236 1177 301 q 1047 123 1107 170 q 909 41 987 76 q 570 -27 754 -27 q 274 -2 387 -27 q 109 56 161 23 q 87 74 93 66 q 81 103 81 83 q 96 176 81 123 q 135 275 111 229 q 180 322 159 322 q 220 299 193 322 q 283 242 248 275 q 359 176 318 209 q 558 96 459 96 q 691 130 633 96 q 778 218 749 165 q 808 332 808 272 q 726 463 808 414 q 501 511 644 511 q 382 505 455 511 q 305 498 309 498 q 260 524 282 498 q 237 566 237 549 q 248 614 237 582 q 278 700 258 646 q 318 806 298 754 q 369 936 338 858 q 419 1066 399 1015 q 460 1107 426 1083 q 509 1131 494 1131 q 583 1126 524 1131 q 878 1109 765 1109 q 1037 1116 991 1109 q 1159 1142 1083 1122 q 1201 1129 1183 1142 q 1219 1097 1219 1116 q 1200 921 1219 989 q 1153 826 1181 854 q 1072 798 1124 798 q 856 832 1019 798 q 542 909 693 867 l 393 584 q 732 650 566 650 q 1126 536 1032 650 z "},"6":{"ha":1273,"x_min":150,"x_max":1232,"o":"m 1204 1084 q 1163 1047 1204 1052 q 826 932 971 1023 q 603 696 681 840 q 524 376 524 553 q 562 201 524 283 q 615 135 581 161 q 699 110 649 110 q 795 150 749 110 q 867 257 841 191 q 892 397 892 324 q 801 549 892 549 q 753 541 781 549 q 715 532 724 532 q 666 570 666 532 q 693 629 666 601 q 951 726 787 726 q 1153 656 1075 726 q 1232 471 1232 585 q 1185 264 1232 356 q 1061 109 1139 172 q 882 9 984 46 q 665 -27 779 -27 q 456 -1 551 -27 q 293 79 361 26 q 150 408 150 187 q 197 646 150 533 q 328 846 245 760 q 522 995 412 932 q 762 1091 632 1058 q 1001 1124 892 1124 q 1157 1117 1109 1124 q 1204 1084 1204 1109 z "},"7":{"ha":1095,"x_min":188,"x_max":1213,"o":"m 267 -15 q 206 49 206 -15 q 257 201 206 113 q 387 380 307 290 q 567 564 466 469 q 949 879 755 741 q 814 886 892 886 q 652 868 736 886 q 506 825 568 850 q 393 773 444 799 q 245 711 273 711 q 203 724 218 711 q 188 758 188 738 q 237 987 188 892 q 349 1113 286 1082 q 433 1126 376 1126 q 991 978 599 1126 q 1073 1053 1044 1031 q 1125 1076 1102 1076 q 1180 1047 1147 1076 q 1213 992 1213 1018 q 1187 922 1213 967 q 1119 822 1162 878 q 1024 700 1076 766 q 916 556 971 634 q 811 399 860 479 q 669 49 700 219 q 640 7 664 18 q 267 -15 593 -15 z "},"8":{"ha":1273,"x_min":111,"x_max":1229,"o":"m 568 1078 q 881 1133 709 1133 q 1141 1072 1053 1133 q 1229 907 1229 1011 q 1199 801 1229 852 q 1124 717 1170 749 q 1034 686 1079 686 q 1002 696 1015 686 q 990 722 990 706 q 999 750 990 738 q 1021 774 1008 762 q 1047 800 1034 785 q 1078 894 1078 834 q 1037 986 1078 954 q 918 1019 996 1019 q 783 979 840 1019 q 725 876 725 939 q 814 742 725 810 q 903 679 854 711 q 999 610 951 646 q 1087 533 1047 573 q 1177 335 1177 445 q 929 19 1177 111 q 575 -35 783 -35 q 172 94 296 -35 q 111 243 111 158 q 461 534 111 437 q 352 646 391 589 q 313 774 313 703 q 347 907 313 846 q 437 1009 381 968 q 568 1078 494 1050 m 363 231 q 420 122 363 165 q 564 80 478 80 q 710 126 650 80 q 770 237 770 172 q 756 291 770 271 q 734 324 743 312 q 709 352 726 336 q 680 377 692 367 q 646 404 668 388 q 610 429 623 420 q 532 482 553 467 q 363 231 363 387 z "},"9":{"ha":1273,"x_min":134,"x_max":1216,"o":"m 162 1 q 203 37 162 33 q 540 153 395 61 q 763 388 685 244 q 842 708 842 532 q 804 883 842 802 q 751 949 785 924 q 667 975 717 975 q 571 934 617 975 q 499 827 525 894 q 473 687 473 760 q 565 535 473 535 q 613 544 585 535 q 651 552 642 552 q 700 514 700 552 q 673 455 700 484 q 415 358 579 358 q 213 429 291 358 q 134 614 134 499 q 181 820 134 728 q 304 975 227 912 q 484 1075 382 1038 q 701 1112 587 1112 q 910 1085 815 1112 q 1073 1006 1004 1059 q 1216 677 1216 897 q 1168 438 1216 551 q 1038 239 1121 325 q 844 90 954 153 q 604 -6 734 26 q 365 -39 474 -39 q 209 -32 256 -39 q 162 1 162 -25 z "},"\u0001":{"ha":0,"x_min":0,"x_max":0,"o":""},"\u0002":{"ha":0,"x_min":0,"x_max":0,"o":""},"\u0003":{"ha":0,"x_min":0,"x_max":0,"o":""},"\u0004":{"ha":0,"x_min":0,"x_max":0,"o":""},"\u0005":{"ha":0,"x_min":0,"x_max":0,"o":""},"\u0006":{"ha":0,"x_min":0,"x_max":0,"o":""},"\u0007":{"ha":0,"x_min":0,"x_max":0,"o":""},"\b":{"ha":0,"x_min":0,"x_max":0,"o":""},"\t":{"ha":0,"x_min":0,"x_max":0,"o":""},"\u0010":{"ha":0,"x_min":0,"x_max":0,"o":""},"\u0011":{"ha":0,"x_min":0,"x_max":0,"o":""},"\u0012":{"ha":0,"x_min":0,"x_max":0,"o":""},"\u0013":{"ha":0,"x_min":0,"x_max":0,"o":""},"\u0014":{"ha":0,"x_min":0,"x_max":0,"o":""},"\u0015":{"ha":0,"x_min":0,"x_max":0,"o":""},"\u0016":{"ha":0,"x_min":0,"x_max":0,"o":""},"\u0017":{"ha":0,"x_min":0,"x_max":0,"o":""},"\u0018":{"ha":0,"x_min":0,"x_max":0,"o":""},"\u0019":{"ha":0,"x_min":0,"x_max":0,"o":""}," ":{"ha":524,"x_min":0,"x_max":0,"o":""},"!":{"ha":812,"x_min":133,"x_max":896,"o":"m 513 378 q 332 379 380 378 q 284 415 284 380 q 355 762 284 488 q 433 1080 425 1035 q 451 1137 440 1125 q 501 1154 462 1149 q 668 1166 541 1158 q 845 1174 795 1174 q 896 1135 896 1174 q 892 1112 896 1124 q 718 731 820 916 q 578 422 619 551 q 513 378 564 378 m 556 58 q 453 -12 517 14 q 313 -38 389 -38 q 185 1 237 -38 q 133 94 133 39 q 173 194 133 149 q 277 265 214 239 q 417 291 341 291 q 544 251 492 291 q 596 157 596 212 q 556 58 596 102 z "},"\"":{"ha":901,"x_min":295,"x_max":888,"o":"m 549 1115 q 504 881 549 1017 q 401 654 458 745 q 371 614 385 626 q 340 602 358 602 q 295 666 295 602 q 307 815 295 706 q 319 950 318 924 q 321 996 321 976 q 323 1029 322 1016 q 329 1094 323 1061 q 359 1149 335 1126 q 475 1187 401 1187 q 549 1115 549 1187 m 888 1115 q 843 881 888 1017 q 741 654 798 745 q 710 614 724 626 q 680 602 697 602 q 634 666 634 602 q 646 815 634 706 q 659 950 657 924 q 661 996 660 976 q 662 1029 661 1016 q 668 1094 663 1061 q 699 1149 674 1126 q 814 1187 741 1187 q 888 1115 888 1187 z "},"#":{"ha":1003,"x_min":178,"x_max":1002,"o":"m 283 637 q 249 677 249 637 q 260 745 249 732 q 316 773 281 770 q 403 777 350 777 l 417 777 l 429 820 q 460 950 439 862 q 484 1053 480 1038 q 517 1078 491 1078 q 573 1063 549 1078 q 603 1035 597 1048 q 609 1006 609 1023 q 607 976 609 990 q 603 953 605 961 q 596 927 602 945 q 589 902 591 909 q 553 773 585 884 q 670 771 621 771 q 741 772 720 771 l 754 820 q 785 950 765 862 q 810 1053 806 1038 q 842 1078 817 1078 q 899 1063 874 1078 q 929 1035 923 1048 q 935 1006 935 1023 q 932 976 935 990 q 929 953 930 961 q 922 927 927 945 q 915 902 917 909 q 880 776 913 895 q 967 778 940 778 q 1002 738 1002 778 q 990 669 1002 682 q 935 641 969 645 q 848 637 901 637 l 841 637 l 800 490 q 897 493 887 493 q 931 453 931 493 q 920 385 931 397 q 864 356 899 360 q 777 353 830 353 l 762 353 q 684 37 747 297 q 652 11 677 11 q 619 19 642 11 q 583 35 596 26 q 559 85 559 50 q 573 170 559 120 q 625 355 587 219 q 453 359 525 359 l 438 359 q 425 311 434 342 q 410 253 416 279 q 382 137 403 226 q 359 37 361 47 q 326 11 352 11 q 293 19 316 11 q 258 35 271 26 q 233 85 233 50 q 248 172 233 120 q 300 355 263 223 q 213 352 224 352 q 178 392 178 352 q 190 460 178 448 q 245 489 211 485 q 332 492 279 492 l 338 492 l 379 640 q 283 637 296 637 m 616 486 l 662 486 l 705 640 q 524 644 547 644 l 517 644 l 474 489 q 616 486 569 486 z "},"$":{"ha":1273,"x_min":55,"x_max":1286,"o":"m 1012 1160 q 1002 1101 1012 1135 q 991 1061 992 1067 q 1265 1002 1159 1047 q 1286 965 1286 993 q 1262 881 1286 937 q 1203 778 1238 825 q 1145 730 1169 730 q 1124 740 1133 730 q 945 890 1035 838 q 863 583 895 701 q 996 479 977 498 q 1038 436 1015 460 q 1074 393 1061 412 q 1099 350 1086 374 q 1122 244 1122 305 q 1089 132 1122 182 q 997 49 1057 81 q 697 -24 882 -12 l 664 -143 q 627 -184 652 -184 q 593 -142 593 -184 q 613 -27 593 -119 l 588 -27 q 435 -20 514 -27 q 420 -74 429 -45 q 408 -120 412 -103 q 401 -143 404 -136 q 364 -184 390 -184 q 331 -142 331 -184 q 354 -11 331 -118 q 178 20 257 1 q 77 50 100 38 q 55 87 55 61 q 96 197 55 113 q 161 281 138 281 q 208 260 176 281 q 389 146 344 168 q 443 379 422 295 q 240 603 280 512 q 222 685 222 644 q 331 914 222 817 q 618 1048 440 1010 q 659 1162 646 1139 q 712 1203 680 1203 q 749 1160 749 1203 q 729 1065 749 1133 q 809 1069 775 1069 q 886 1067 843 1069 q 922 1162 909 1138 q 975 1203 942 1203 q 1012 1160 1012 1203 m 667 811 q 694 733 667 771 q 772 652 722 695 q 846 931 816 822 q 796 935 829 935 q 726 915 763 935 q 674 855 688 894 l 669 839 q 667 811 667 821 m 526 312 l 472 114 q 550 102 519 102 q 601 107 581 102 q 637 127 621 113 q 653 167 653 142 q 621 227 653 192 q 526 312 589 262 z "},"%":{"ha":1468,"x_min":127,"x_max":1381,"o":"m 222 949 q 567 1067 331 1067 q 798 994 728 1067 q 836 899 836 955 q 811 797 836 844 q 741 715 787 751 q 621 659 695 680 q 433 638 547 638 q 244 686 319 638 q 169 812 169 734 q 222 949 169 891 m 370 808 q 390 740 370 766 q 471 714 411 714 q 585 770 531 714 q 638 905 638 825 q 597 986 638 969 q 551 994 579 994 q 429 939 488 994 q 370 808 370 883 m 1381 1007 q 1335 936 1381 974 l 233 22 q 174 -6 198 -6 q 139 6 151 -6 q 127 37 127 18 q 172 106 127 68 l 1275 1020 q 1333 1048 1310 1048 q 1369 1037 1357 1048 q 1381 1007 1381 1025 m 716 281 q 1061 399 825 399 q 1292 326 1222 399 q 1329 231 1329 287 q 1305 129 1329 176 q 1235 47 1281 83 q 1115 -9 1189 12 q 927 -30 1041 -30 q 738 18 812 -30 q 663 144 663 66 q 716 281 663 223 m 863 140 q 884 72 863 98 q 965 46 905 46 q 1078 102 1025 46 q 1132 237 1132 157 q 1091 319 1132 301 q 1045 326 1073 326 q 923 271 982 326 q 863 140 863 215 z "},"&":{"ha":1476,"x_min":38,"x_max":1512,"o":"m 1109 900 q 1046 744 1109 808 q 868 631 982 680 q 1333 153 988 420 q 1359 104 1359 132 q 1314 57 1359 75 q 948 -51 1042 -51 q 861 -15 905 -51 q 759 81 817 21 q 564 2 673 32 q 371 -27 454 -27 q 233 -14 288 -27 q 133 26 177 -1 q 38 196 38 81 q 432 559 38 437 q 380 773 380 683 q 414 929 380 863 q 505 1034 448 994 q 793 1116 623 1116 q 1093 983 1034 1116 q 1109 900 1109 947 m 1416 507 q 1217 387 1332 441 q 1182 378 1198 378 q 1149 404 1149 378 q 1181 471 1149 422 q 1291 731 1244 566 q 1331 762 1300 762 q 1391 756 1362 762 q 1447 737 1419 749 q 1494 703 1475 725 q 1512 649 1512 680 q 1486 579 1512 617 q 1416 507 1460 542 m 686 161 q 479 460 560 311 q 376 265 376 374 q 543 140 376 140 q 686 161 610 140 m 823 730 q 947 931 947 820 q 886 1023 947 1023 q 825 977 848 1023 q 802 861 802 930 q 823 730 802 792 z "},"'":{"ha":555,"x_min":295,"x_max":549,"o":"m 549 1115 q 504 881 549 1017 q 401 654 458 745 q 371 614 385 626 q 340 602 358 602 q 295 666 295 602 q 307 815 295 706 q 319 950 318 924 q 321 996 321 976 q 323 1029 322 1016 q 329 1094 323 1061 q 359 1149 335 1126 q 475 1187 401 1187 q 549 1115 549 1187 z "},"(":{"ha":809,"x_min":250,"x_max":1006,"o":"m 924 1084 q 610 752 742 961 q 509 529 547 651 q 471 284 471 406 q 569 -87 471 87 q 614 -151 583 -111 q 646 -198 646 -190 q 624 -219 646 -219 q 550 -193 602 -219 q 250 295 250 -38 q 610 994 250 728 q 864 1146 720 1075 q 975 1185 944 1185 q 1006 1166 1006 1185 q 959 1109 1006 1143 q 924 1084 935 1093 z "},")":{"ha":809,"x_min":-88,"x_max":668,"o":"m -5 -132 q 307 201 176 -8 q 408 424 370 302 q 446 669 446 547 q 349 1040 446 865 q 303 1103 335 1064 q 272 1151 272 1143 q 294 1172 272 1172 q 368 1145 316 1172 q 668 658 668 991 q 308 -41 668 224 q 54 -193 197 -122 q -57 -233 -26 -233 q -88 -213 -88 -233 q -41 -156 -88 -190 q -5 -132 -18 -140 z "},"*":{"ha":892,"x_min":209,"x_max":947,"o":"m 223 852 q 209 887 209 865 q 240 948 209 909 q 300 987 272 987 q 347 976 328 987 q 393 935 366 964 q 444 884 420 906 q 493 838 467 861 q 527 807 519 814 q 551 962 529 876 q 603 1105 572 1048 q 648 1135 621 1135 q 716 1106 675 1135 q 757 1049 757 1078 q 707 940 757 1021 q 676 889 691 914 q 647 840 661 864 q 627 806 633 816 q 757 846 684 830 q 865 861 829 861 q 908 861 901 861 q 947 823 947 859 q 912 731 947 774 q 838 688 878 688 q 717 701 799 688 q 617 716 635 714 q 689 584 656 663 q 723 470 723 505 q 691 417 723 434 q 630 401 659 401 q 590 402 601 401 q 566 411 578 404 q 549 430 554 417 q 536 524 536 462 q 531 677 536 587 q 422 557 489 620 q 275 456 314 456 q 240 488 256 456 q 224 555 224 520 q 247 615 224 591 q 313 661 270 639 q 462 739 355 682 q 328 784 397 752 q 223 852 259 817 z "},"+":{"ha":1003,"x_min":165,"x_max":878,"o":"m 848 340 q 814 325 827 326 q 784 323 801 324 q 756 323 766 323 l 683 323 l 670 323 l 656 323 l 643 324 q 621 325 629 324 l 591 326 q 571 326 585 326 l 568 312 q 537 170 557 270 q 513 54 517 69 q 466 30 508 31 l 385 20 q 363 26 370 20 q 357 56 357 32 q 372 132 357 80 q 424 329 387 184 l 389 328 l 374 328 q 272 324 330 327 l 242 323 q 200 322 224 322 l 193 322 q 165 362 165 327 l 165 376 q 166 391 165 386 q 234 473 166 465 q 319 476 267 476 l 373 475 l 386 475 l 400 475 q 427 473 407 474 q 459 473 446 473 l 460 473 l 470 511 q 495 627 481 554 q 513 713 509 700 q 561 737 517 734 l 640 742 q 669 709 669 742 q 643 584 669 677 q 615 488 616 492 q 613 479 614 485 q 610 470 612 474 l 641 470 l 654 471 q 703 472 671 471 l 731 473 q 751 473 738 473 l 789 475 l 800 475 q 843 477 837 477 l 859 473 q 876 451 869 469 l 878 441 l 878 422 l 877 415 l 877 408 l 876 397 q 858 349 873 370 l 848 340 z "},",":{"ha":812,"x_min":146,"x_max":610,"o":"m 376 -22 q 334 -25 354 -25 q 192 9 238 -25 q 146 100 146 44 q 223 234 146 176 q 400 291 300 291 q 555 246 500 291 q 610 132 610 201 q 578 -7 610 63 q 497 -134 547 -77 q 384 -228 448 -191 q 267 -265 319 -265 q 214 -233 214 -265 q 222 -214 214 -223 q 262 -183 231 -205 q 328 -116 294 -161 q 376 -22 362 -70 z "},"-":{"ha":1003,"x_min":165,"x_max":878,"o":"m 200 322 q 165 362 165 322 q 176 438 165 422 q 232 472 198 469 q 319 476 267 476 l 603 470 l 843 477 q 878 437 878 477 q 867 361 878 377 q 811 327 845 330 q 724 323 777 323 l 440 329 l 200 322 z "},".":{"ha":812,"x_min":142,"x_max":606,"o":"m 566 58 q 462 -12 526 14 q 322 -38 398 -38 q 195 1 247 -38 q 142 94 142 39 q 183 194 142 149 q 287 265 223 239 q 426 291 351 291 q 554 251 502 291 q 606 157 606 212 q 566 58 606 102 z "},"/":{"ha":762,"x_min":111,"x_max":783,"o":"m 115 -87 l 680 1065 q 734 1109 703 1109 q 768 1096 753 1109 q 783 1069 783 1082 q 779 1048 783 1056 l 214 -104 q 160 -149 191 -149 q 126 -136 141 -149 q 111 -110 111 -123 q 115 -87 111 -96 z "},":":{"ha":812,"x_min":133,"x_max":726,"o":"m 556 58 q 453 -12 517 14 q 313 -38 389 -38 q 185 1 237 -38 q 133 94 133 39 q 173 194 133 149 q 277 265 214 239 q 417 291 341 291 q 544 251 492 291 q 596 157 596 212 q 556 58 596 102 m 686 532 q 583 463 647 488 q 443 437 519 437 q 315 475 368 437 q 263 569 263 514 q 303 669 263 624 q 408 740 344 714 q 547 766 471 766 q 674 726 623 766 q 726 632 726 686 q 686 532 726 577 z "},";":{"ha":812,"x_min":143,"x_max":713,"o":"m 372 -22 q 330 -25 351 -25 q 189 9 235 -25 q 143 100 143 44 q 220 234 143 176 q 397 291 297 291 q 552 246 497 291 q 606 132 606 201 q 575 -7 606 63 q 494 -134 543 -77 q 380 -228 445 -191 q 263 -265 316 -265 q 210 -233 210 -265 q 219 -214 210 -223 q 259 -183 227 -205 q 325 -116 291 -161 q 372 -22 359 -70 m 673 532 q 569 463 633 488 q 430 437 505 437 q 302 475 354 437 q 250 569 250 514 q 290 669 250 624 q 394 740 330 714 q 533 766 458 766 q 661 726 609 766 q 713 632 713 686 q 673 532 713 577 z "},"<":{"ha":1003,"x_min":181,"x_max":841,"o":"m 745 163 q 766 124 766 153 q 730 57 766 95 q 667 20 694 20 q 654 24 661 20 q 201 317 389 202 q 181 379 181 329 q 251 464 181 429 q 578 641 411 545 q 756 744 745 737 q 773 751 768 751 q 815 711 790 751 q 841 650 841 671 q 805 587 841 604 q 382 372 604 492 q 745 163 568 259 z "},"=":{"ha":1003,"x_min":146,"x_max":929,"o":"m 181 186 q 146 227 146 186 q 157 302 146 286 q 213 337 179 333 q 300 340 248 340 l 584 334 l 824 341 q 859 301 859 341 q 848 225 859 241 q 792 191 826 195 q 705 187 758 187 l 421 193 l 181 186 m 252 498 q 217 538 217 498 q 228 614 217 598 q 284 649 250 645 q 371 652 318 652 l 654 646 l 895 653 q 929 613 929 653 q 918 537 929 553 q 862 503 897 507 q 775 499 828 499 l 492 505 l 252 498 z "},">":{"ha":1003,"x_min":191,"x_max":851,"o":"m 287 593 q 267 633 267 604 q 302 700 267 662 q 366 737 338 737 q 378 733 372 737 q 831 439 643 555 q 851 378 851 428 q 781 293 851 328 q 454 116 621 212 q 276 13 288 20 q 259 6 264 6 q 217 46 242 6 q 191 107 191 86 q 227 170 191 153 q 650 385 429 265 q 287 593 464 498 z "},"?":{"ha":1040,"x_min":179,"x_max":1117,"o":"m 267 820 q 221 811 252 811 q 191 837 191 811 q 245 1001 191 887 q 334 1133 300 1114 q 463 1166 368 1152 q 652 1180 557 1180 q 828 1165 747 1180 q 975 1121 909 1151 q 1079 1039 1041 1091 q 1117 923 1117 987 q 1092 808 1117 859 q 1023 716 1066 756 q 927 640 980 675 q 813 570 873 604 q 699 505 753 536 q 512 362 569 432 q 483 353 504 353 q 416 387 463 353 q 370 454 370 420 q 407 535 370 488 q 498 629 445 583 q 605 720 552 675 q 734 871 734 829 q 710 908 734 894 q 645 922 687 922 q 432 896 515 922 q 267 820 349 869 m 602 58 q 499 -12 563 14 q 359 -38 435 -38 q 231 1 283 -38 q 179 94 179 39 q 219 194 179 149 q 323 265 260 239 q 463 291 387 291 q 590 251 538 291 q 642 157 642 212 q 602 58 642 102 z "},"@":{"ha":2008,"x_min":110,"x_max":1916,"o":"m 1251 720 l 1561 705 q 1588 695 1579 705 q 1596 658 1596 684 q 1571 554 1596 631 q 1514 406 1545 477 q 1432 150 1432 211 q 1450 105 1432 120 q 1510 91 1468 91 q 1731 192 1647 91 q 1816 467 1816 294 q 1630 778 1816 667 q 1086 888 1444 888 q 354 630 595 888 q 208 261 208 473 q 245 80 208 159 q 347 -53 283 0 q 503 -140 411 -106 q 922 -204 677 -204 q 1400 -161 1166 -204 q 1810 -39 1633 -118 l 1833 -96 q 1408 -241 1648 -191 q 920 -292 1168 -292 q 151 44 296 -292 q 110 273 110 137 q 177 541 110 408 q 370 773 245 674 q 686 929 495 872 q 1113 986 877 986 q 1532 922 1349 986 q 1815 742 1715 858 q 1916 475 1916 625 q 1670 46 1916 167 q 1295 -27 1521 -27 q 1103 -4 1176 -27 q 1004 79 1031 18 q 890 6 964 39 q 734 -27 817 -27 q 597 -13 651 -27 q 498 32 543 2 q 426 114 452 62 q 399 235 399 166 q 421 373 399 304 q 489 504 444 441 q 598 614 535 566 q 749 691 661 663 q 939 720 838 720 q 1185 644 1100 720 q 1185 661 1185 649 l 1185 686 q 1251 720 1185 720 m 891 145 q 1104 340 1019 145 q 1143 486 1143 430 q 1125 562 1143 541 q 1052 583 1106 583 q 933 533 997 583 q 831 406 870 482 q 793 268 793 329 q 820 176 793 206 q 891 145 847 145 z "},"A":{"ha":1275,"x_min":-23,"x_max":1215,"o":"m 802 -27 q 576 123 576 -27 q 684 464 576 208 q 792 819 792 720 q 751 898 792 875 q 632 922 710 922 q 475 908 555 922 q 372 895 395 895 q 349 915 349 895 q 445 985 349 941 q 850 1069 629 1069 q 1112 1006 1025 1069 q 1199 801 1199 943 q 1169 590 1199 717 q 1110 353 1139 464 q 1080 200 1080 241 q 1096 142 1080 159 q 1172 122 1116 122 q 1211 115 1206 122 q 1215 99 1215 107 q 1187 48 1215 68 q 802 -27 1079 -27 m 408 464 l 581 468 q 629 440 629 468 q 606 409 629 420 q 335 358 528 369 q 280 168 280 250 q 290 100 280 131 q 299 56 299 69 q 254 7 299 20 q 120 -5 208 -5 q 5 11 33 -5 q -23 67 -23 26 q 21 235 -23 143 q 135 410 66 326 q 288 574 204 494 q 452 713 372 655 q 692 844 628 844 q 721 827 721 844 q 692 787 721 809 q 548 653 632 743 q 398 464 464 563 l 408 464 z "},"B":{"ha":1388,"x_min":-54,"x_max":1402,"o":"m 873 -27 q 508 43 674 -27 q 422 -2 473 9 q 286 -14 371 -14 q 121 6 201 -14 q -6 54 41 26 q -54 110 -54 83 q -40 135 -54 125 q -9 144 -26 144 q 84 164 54 144 q 142 239 114 184 q 197 364 170 293 q 246 496 223 435 q 297 621 269 558 q 455 804 360 759 q 574 838 500 826 q 689 850 647 850 q 743 849 730 850 q 768 844 755 848 q 794 816 794 838 q 788 788 794 801 q 758 735 783 776 q 691 565 732 694 q 944 634 857 575 q 1031 784 1031 692 q 821 925 1031 908 q 696 928 779 928 q 514 909 614 928 q 357 867 414 890 q 255 824 300 844 q 197 805 210 805 q 161 828 161 805 q 205 884 161 852 q 327 949 250 917 q 499 1008 405 981 q 939 1069 712 1069 q 1284 998 1166 1069 q 1402 810 1402 927 q 1285 616 1402 694 q 964 531 1168 539 q 1204 468 1095 530 q 1291 391 1257 439 q 1324 281 1324 344 q 1298 164 1324 219 q 1229 75 1272 110 q 1126 16 1185 39 q 873 -27 1017 -27 m 672 505 q 621 333 659 463 q 568 159 583 203 q 553 114 553 115 q 622 111 574 111 q 729 124 670 111 q 836 165 789 138 q 910 238 883 192 q 937 350 937 284 q 860 459 937 416 q 672 505 783 503 z "},"C":{"ha":1273,"x_min":78,"x_max":1303,"o":"m 584 218 q 786 141 648 141 q 1053 184 915 141 q 1120 199 1099 199 q 1160 176 1160 199 q 1108 107 1160 144 q 978 41 1057 70 q 800 -8 899 12 q 611 -27 701 -27 q 332 22 452 -27 q 144 164 211 72 q 78 365 78 256 q 115 566 78 473 q 214 733 151 659 q 360 871 277 808 q 537 978 444 935 q 918 1069 736 1069 q 1202 994 1101 1069 q 1303 810 1303 919 q 1233 604 1303 692 q 1144 534 1200 560 q 1020 509 1089 509 q 941 522 974 509 q 880 591 880 546 q 915 680 880 607 q 987 829 951 752 q 1023 935 1023 906 q 998 975 1023 964 q 929 985 974 985 q 827 951 884 985 q 717 858 770 917 q 620 726 664 798 q 549 569 576 653 q 523 417 523 484 q 538 302 523 350 q 584 218 553 255 z "},"D":{"ha":1388,"x_min":-54,"x_max":1378,"o":"m 706 922 q 523 906 620 922 q 359 869 425 889 q 238 832 292 848 q 173 815 184 815 q 136 841 136 815 q 176 895 136 867 q 473 1025 307 982 q 790 1069 639 1069 q 1039 1044 942 1069 q 1198 975 1135 1019 q 1302 869 1261 932 q 1378 580 1378 753 q 1278 243 1378 397 q 985 8 1167 74 q 773 -27 886 -27 q 491 30 593 -27 q 422 -6 463 2 q 309 -14 381 -14 q 172 -2 237 -14 q 58 27 106 9 q -22 67 9 45 q -54 107 -54 90 q -40 135 -54 125 q -8 144 -26 144 q 82 164 53 144 q 141 237 111 183 q 197 359 171 290 q 245 490 222 427 q 297 618 268 553 q 455 804 360 760 q 574 838 502 826 q 720 850 647 850 q 793 816 793 850 q 763 741 793 790 q 696 590 732 692 q 618 346 661 488 q 551 138 575 204 l 540 109 q 606 106 561 106 q 706 125 650 106 q 802 177 761 144 q 875 255 842 210 q 929 350 908 300 q 965 457 951 401 q 991 680 991 561 q 706 922 991 922 z "},"E":{"ha":1273,"x_min":41,"x_max":1319,"o":"m 940 623 q 966 584 966 623 q 940 515 966 544 q 884 485 914 487 q 822 478 854 483 q 748 465 789 473 q 673 442 707 456 q 610 409 640 428 q 547 298 547 368 q 570 216 547 251 q 631 162 593 181 q 793 125 705 125 q 1142 184 930 125 q 1163 187 1154 187 q 1189 161 1189 187 q 1092 69 1189 114 q 857 -1 996 24 q 594 -27 718 -27 q 372 -12 470 -27 q 199 36 275 4 q 82 120 124 67 q 41 241 41 172 q 82 364 41 309 q 190 454 123 418 q 346 514 257 490 q 715 559 513 559 q 501 583 572 566 q 389 616 430 600 q 320 652 348 632 q 256 768 256 699 q 308 896 256 837 q 446 991 360 954 q 857 1069 623 1069 q 1293 998 1175 1069 q 1319 952 1319 982 q 1275 852 1319 922 q 1203 757 1230 783 q 1152 730 1175 730 q 1109 747 1128 730 q 1080 789 1090 764 q 852 956 1006 956 q 701 907 762 956 q 640 789 640 859 q 710 669 640 720 q 883 619 781 619 l 940 623 z "},"F":{"ha":1273,"x_min":-26,"x_max":1419,"o":"m 996 572 q 1093 527 1093 572 q 1061 424 1093 498 q 1006 318 1028 350 q 964 286 985 286 q 913 303 943 286 q 854 341 884 321 q 777 381 824 362 q 685 403 730 400 q 609 134 617 160 q 586 82 602 109 q 549 39 570 56 q 504 11 527 22 q 449 -5 481 0 q 151 6 295 -29 q 22 55 70 26 q -26 111 -26 83 q -12 135 -24 126 q 18 144 1 144 q 110 164 80 144 q 165 238 139 184 q 215 359 192 292 q 258 481 239 425 q 304 594 278 536 q 448 760 360 718 q 713 802 535 802 q 819 767 819 802 q 806 728 819 753 q 712 494 755 633 q 847 548 770 525 q 996 572 924 572 m 1202 713 q 963 852 1104 799 q 677 905 821 905 q 470 883 591 905 q 290 834 349 860 q 214 808 232 808 q 191 829 191 808 q 229 881 191 850 q 337 944 266 911 q 499 1005 409 977 q 951 1069 705 1069 q 1219 1055 1111 1069 q 1419 979 1419 1031 q 1392 887 1417 951 q 1332 764 1367 823 q 1275 699 1297 705 q 1243 694 1261 694 q 1202 713 1225 694 z "},"G":{"ha":1388,"x_min":92,"x_max":1377,"o":"m 1056 931 q 941 975 1056 975 q 832 944 892 975 q 719 859 771 913 q 625 734 667 804 q 535 428 535 585 q 598 184 535 271 q 788 96 661 96 q 804 97 799 96 q 853 241 831 166 q 876 332 876 315 q 857 359 876 349 q 814 374 838 370 q 753 414 753 385 q 851 473 753 452 q 1084 493 949 493 q 1263 480 1219 493 q 1306 439 1306 468 q 1282 373 1306 420 q 1204 146 1259 326 q 1126 -71 1150 -33 q 1004 -163 1086 -132 q 812 -194 922 -194 q 611 -151 611 -194 q 662 -94 611 -123 q 749 -18 720 -60 q 773 24 762 0 q 557 0 680 0 q 343 27 435 0 q 197 104 251 54 q 92 367 92 201 q 130 558 92 465 q 235 728 169 652 q 388 868 300 804 q 572 977 475 932 q 979 1069 778 1069 q 1278 1008 1179 1069 q 1377 840 1377 948 q 1320 722 1377 777 q 1120 659 1257 659 q 1042 672 1074 659 q 980 742 980 696 q 1018 829 980 752 q 1056 931 1056 907 z "},"H":{"ha":1388,"x_min":81,"x_max":1412,"o":"m 294 832 l 214 816 q 192 820 199 816 q 184 837 184 824 q 247 919 184 867 q 419 1013 309 970 q 617 1055 529 1055 q 743 1025 705 1055 q 781 919 781 994 q 749 747 781 843 q 660 508 718 650 l 778 511 q 825 484 825 511 q 803 452 825 464 q 619 408 745 422 q 546 210 572 289 q 521 82 521 132 l 523 37 q 500 4 523 16 q 452 -8 477 -8 l 180 -12 q 88 14 104 -12 q 81 53 81 26 q 92 130 81 80 q 166 326 104 180 q 279 598 228 472 q 330 765 330 724 q 321 819 330 805 q 294 832 313 832 m 1112 -8 l 861 -12 q 769 14 785 -12 q 762 46 762 26 q 811 270 762 110 q 919 609 861 431 q 986 847 977 787 q 996 953 996 907 q 1016 1011 996 999 q 1097 1024 1037 1024 q 1242 1030 1157 1024 q 1355 1036 1326 1036 q 1398 1020 1384 1036 q 1412 980 1412 1004 q 1331 639 1412 861 q 1263 452 1297 546 q 1181 80 1181 227 l 1183 37 q 1160 4 1183 16 q 1112 -8 1137 -8 z "},"I":{"ha":926,"x_min":49,"x_max":902,"o":"m 316 403 q 151 666 151 505 q 187 800 151 738 q 282 906 223 863 q 416 981 341 949 q 730 1042 565 1042 q 869 998 832 1042 q 902 898 902 960 q 872 736 902 836 q 780 459 843 637 q 684 181 716 282 q 582 33 651 79 q 389 -14 513 -14 q 157 17 265 -14 q 49 88 49 48 q 94 123 49 119 q 192 153 161 132 q 248 231 222 175 q 316 403 275 286 m 439 828 q 430 854 439 844 q 405 865 420 865 q 373 853 390 865 q 338 819 356 842 q 292 667 292 764 q 345 486 292 570 q 439 828 439 768 z "},"J":{"ha":926,"x_min":-80,"x_max":902,"o":"m 462 -231 q 143 -346 344 -346 q -17 -298 46 -346 q -80 -169 -80 -251 q -51 -22 -80 -87 q 29 96 -22 44 q 274 261 127 197 q 340 453 290 312 q 441 795 441 735 q 433 826 441 817 q 398 836 426 836 q 256 787 370 836 q 194 773 224 773 q 163 801 163 773 q 185 840 163 819 q 431 982 281 923 q 699 1042 580 1042 q 860 1016 817 1042 q 902 926 902 990 q 864 733 902 861 q 751 396 826 606 q 646 93 676 186 q 569 -85 615 1 q 462 -231 523 -171 m 88 -249 q 126 -194 105 -249 q 243 163 157 -113 q 109 8 164 96 q 53 -164 53 -79 q 88 -249 53 -249 z "},"K":{"ha":1503,"x_min":81,"x_max":1487,"o":"m 315 832 l 235 816 q 212 820 220 816 q 205 839 205 824 q 222 876 205 854 q 260 913 239 898 q 446 1012 338 968 q 639 1055 553 1055 q 763 1025 726 1055 q 801 906 801 994 q 702 579 801 806 q 620 392 661 485 q 521 82 521 168 l 523 37 q 500 4 523 16 q 452 -8 477 -8 l 180 -12 q 88 14 104 -12 q 81 53 81 26 q 91 123 81 80 q 145 270 100 166 q 235 465 190 374 q 351 770 351 702 q 342 819 351 805 q 315 832 333 832 m 1180 1028 l 1457 1044 q 1487 1017 1487 1044 q 1453 879 1487 991 q 1382 711 1418 767 q 1302 618 1345 654 q 1200 556 1259 581 q 941 493 1100 513 q 997 494 959 494 q 1064 493 1034 494 q 1127 487 1095 491 q 1182 473 1160 482 q 1223 450 1204 465 q 1261 367 1261 423 q 1255 317 1261 353 q 1249 245 1249 281 q 1256 185 1249 209 q 1280 151 1264 162 q 1357 132 1307 132 q 1407 98 1407 132 q 1326 15 1407 53 q 1047 -27 1238 -27 q 818 39 868 -27 q 796 118 796 69 q 822 262 796 167 q 848 382 848 358 q 841 424 848 406 q 823 452 834 442 q 798 467 812 461 q 770 475 784 473 q 745 480 756 478 q 720 499 720 486 q 762 545 720 529 q 1009 709 931 605 q 1073 823 1049 763 q 1116 969 1097 884 q 1180 1028 1128 1028 z "},"L":{"ha":1273,"x_min":8,"x_max":1225,"o":"m 346 -5 l 75 -12 q 8 34 8 -12 q 26 71 8 55 q 73 106 44 86 q 126 159 102 126 q 179 270 150 192 q 226 423 208 349 q 310 731 284 660 q 348 836 335 803 q 377 897 361 869 q 408 945 393 924 q 444 983 423 966 q 483 1011 464 1000 q 528 1030 501 1022 q 581 1044 555 1039 q 643 1051 606 1048 q 793 1055 699 1055 q 932 1046 886 1055 q 977 1009 977 1038 q 925 954 977 986 q 822 838 867 918 q 747 672 774 749 q 704 549 720 595 q 666 433 688 502 q 628 319 644 365 q 454 89 564 137 q 736 149 625 98 q 841 201 798 177 q 939 274 885 226 q 1066 396 1010 338 q 1126 458 1122 454 q 1169 477 1144 477 q 1210 465 1194 477 q 1225 433 1225 452 q 1175 193 1225 355 q 1140 102 1158 138 q 1095 39 1122 67 q 924 -14 1042 -14 l 346 -5 z "},"M":{"ha":2084,"x_min":87,"x_max":2031,"o":"m 301 832 l 221 816 q 199 820 206 816 q 191 840 191 824 q 252 917 191 864 q 424 1013 313 970 q 620 1055 534 1055 q 736 1020 705 1055 q 767 906 767 985 q 764 871 767 896 q 1217 1069 1010 1069 q 1364 1025 1314 1069 q 1414 901 1414 981 l 1414 895 q 1815 1069 1638 1069 q 1973 1022 1916 1069 q 2031 896 2031 975 q 1996 713 2031 816 q 1920 528 1961 610 q 1809 238 1809 309 q 1836 166 1809 193 q 1893 135 1863 140 q 1932 128 1923 130 q 1952 121 1941 125 q 1974 93 1974 113 q 1869 9 1974 45 q 1611 -27 1765 -27 q 1408 124 1408 -27 q 1442 292 1408 191 q 1516 479 1476 393 q 1624 786 1624 709 q 1608 832 1624 814 q 1556 850 1591 850 q 1399 801 1494 850 q 1297 517 1373 698 q 1188 229 1221 336 q 1152 44 1156 121 q 1139 7 1150 22 q 1110 -8 1128 -8 l 835 -12 q 746 12 762 -12 q 739 46 739 24 q 754 134 739 68 q 815 315 770 199 q 901 517 860 431 q 1002 789 1002 735 q 928 850 1002 850 q 749 792 853 850 q 663 551 726 705 q 554 271 600 397 q 507 82 507 145 l 509 37 q 486 4 509 16 q 438 -8 463 -8 l 186 -12 q 95 14 111 -12 q 87 53 87 26 q 99 130 87 80 q 173 327 111 180 q 286 598 235 473 q 337 764 337 724 q 328 819 337 805 q 301 832 319 832 z "},"N":{"ha":1504,"x_min":87,"x_max":1451,"o":"m 301 832 l 221 816 q 199 820 206 816 q 191 837 191 824 q 254 919 191 868 q 427 1013 317 970 q 624 1055 536 1055 q 750 1025 712 1055 q 787 906 787 994 l 785 876 q 1027 1025 920 980 q 1237 1069 1135 1069 q 1396 1026 1340 1069 q 1451 902 1451 983 q 1373 635 1451 819 q 1308 484 1340 559 q 1229 248 1229 302 q 1326 133 1229 150 q 1386 114 1378 124 q 1394 93 1394 103 q 1290 9 1394 45 q 1055 -27 1185 -27 q 800 124 800 -27 q 873 403 800 230 q 935 545 904 475 q 1008 777 1008 711 q 905 843 1008 843 q 771 801 846 843 q 628 412 738 670 q 528 82 528 177 q 530 37 528 82 q 507 4 530 16 q 458 -8 484 -8 l 186 -12 q 95 14 111 -12 q 87 53 87 26 q 99 130 87 80 q 173 326 111 180 q 286 598 235 472 q 337 765 337 724 q 328 819 337 805 q 301 832 319 832 z "},"O":{"ha":1389,"x_min":92,"x_max":1377,"o":"m 706 737 q 534 465 593 646 q 503 267 503 368 q 618 92 503 92 q 739 140 676 92 q 851 265 801 188 q 933 448 901 342 q 965 659 965 553 q 912 871 965 808 q 734 935 859 935 q 585 920 665 935 q 450 887 505 905 q 351 854 395 869 q 300 839 307 839 q 275 859 275 839 q 308 902 275 876 q 401 957 342 928 q 534 1010 461 985 q 864 1069 703 1069 q 1302 888 1174 1069 q 1377 625 1377 782 q 1336 402 1377 507 q 1221 220 1295 298 q 1047 86 1147 142 q 591 -27 846 -27 q 92 314 92 -27 q 133 497 92 410 q 242 650 174 585 q 393 764 309 715 q 736 861 564 861 q 775 851 764 861 q 787 831 787 842 q 784 814 787 821 q 772 798 781 807 q 757 781 764 788 q 706 737 740 766 z "},"P":{"ha":1388,"x_min":-54,"x_max":1430,"o":"m 774 745 q 638 378 732 679 q 705 377 661 377 q 933 470 840 377 q 1027 711 1027 563 q 766 928 1027 928 q 567 913 663 928 q 415 881 471 899 q 313 848 359 863 q 251 833 266 833 q 217 858 217 833 q 263 908 217 882 q 370 957 310 933 q 517 1008 429 981 q 951 1069 718 1069 q 1370 932 1259 1069 q 1430 753 1430 858 q 1265 427 1430 555 q 901 287 1125 317 q 750 278 835 278 q 610 290 666 278 q 566 150 582 198 q 530 73 550 102 q 489 26 511 43 q 433 1 467 9 q 290 -14 379 -14 q 121 6 201 -14 q -6 54 41 26 q -54 110 -54 83 q -40 135 -54 125 q -9 144 -26 144 q 84 164 54 144 q 142 239 114 184 q 198 365 170 293 q 251 499 227 437 q 307 626 275 562 q 469 811 375 767 q 587 845 514 833 q 702 857 661 857 q 756 856 744 857 q 782 851 769 854 q 808 823 808 844 q 802 795 808 808 q 774 745 796 783 z "},"Q":{"ha":1389,"x_min":92,"x_max":1434,"o":"m 468 102 q 1102 -61 681 -61 q 1353 -22 1240 -61 q 1398 -12 1381 -12 q 1434 -47 1434 -12 q 1393 -137 1434 -74 q 1082 -346 1256 -346 q 910 -308 992 -346 q 659 -134 791 -254 q 468 102 526 -14 m 706 737 q 534 465 593 646 q 503 267 503 368 q 618 92 503 92 q 739 140 676 92 q 851 265 801 188 q 933 448 901 342 q 965 659 965 553 q 912 871 965 808 q 734 935 859 935 q 585 920 665 935 q 450 887 505 905 q 351 854 395 869 q 300 839 307 839 q 275 859 275 839 q 308 902 275 876 q 401 957 342 928 q 534 1010 461 985 q 864 1069 703 1069 q 1302 888 1174 1069 q 1377 625 1377 782 q 1336 402 1377 507 q 1221 220 1295 298 q 1047 86 1147 142 q 591 -27 846 -27 q 92 314 92 -27 q 133 497 92 410 q 242 650 174 585 q 393 764 309 715 q 736 861 564 861 q 775 851 764 861 q 787 831 787 842 q 784 814 787 821 q 772 798 781 807 q 757 781 764 788 q 706 737 740 766 z "},"R":{"ha":1504,"x_min":-54,"x_max":1447,"o":"m 673 423 l 640 422 q 567 197 595 292 q 521 73 538 102 q 484 27 504 44 q 433 1 464 9 q 293 -14 381 -14 q 124 6 205 -14 q -5 55 43 26 q -54 111 -54 83 q -40 135 -54 126 q -9 144 -27 144 q 82 164 53 144 q 138 238 112 184 q 191 362 165 292 q 240 493 217 433 q 292 616 262 553 q 450 798 356 752 q 571 831 496 819 q 688 843 646 843 q 743 842 730 843 q 769 838 756 841 q 795 808 795 831 q 790 781 795 793 q 757 723 785 769 q 663 489 730 676 q 1023 752 1023 531 q 977 864 1023 827 q 879 909 928 901 q 716 922 805 922 q 532 905 628 922 q 382 868 435 888 q 287 832 329 848 q 234 815 245 815 q 198 839 198 815 q 237 893 198 869 q 544 1024 371 979 q 977 1069 717 1069 q 1200 1041 1111 1069 q 1338 984 1290 1014 q 1416 904 1385 954 q 1447 795 1447 854 q 1424 691 1447 736 q 1363 614 1402 646 q 1264 556 1324 582 q 985 484 1161 512 q 1198 438 1120 484 q 1276 308 1276 392 l 1263 187 q 1313 132 1263 138 q 1355 126 1334 128 q 1404 88 1404 122 q 1290 7 1404 42 q 1038 -27 1175 -27 q 779 124 779 -27 q 802 229 779 161 q 824 319 824 296 q 789 393 824 362 q 673 423 753 423 z "},"S":{"ha":1273,"x_min":63,"x_max":1362,"o":"m 80 53 q 63 87 63 61 q 104 197 63 113 q 170 281 146 281 q 212 263 183 281 q 278 218 240 244 q 359 165 315 191 q 568 102 467 102 q 640 122 618 102 q 661 163 661 142 q 638 210 661 184 q 578 264 615 236 q 496 322 541 292 q 407 388 452 353 q 326 457 362 422 q 242 610 242 536 q 270 706 242 663 q 342 775 298 749 q 441 819 386 802 q 647 852 541 852 q 690 843 676 852 q 705 823 705 834 q 694 788 705 811 q 684 746 684 764 q 709 699 684 728 q 773 641 734 671 q 860 577 812 611 q 955 505 907 543 q 1042 428 1002 467 q 1131 256 1131 339 q 1087 117 1131 173 q 968 31 1044 62 q 800 -13 891 1 q 576 -27 708 -27 q 287 0 445 -27 q 80 53 128 28 m 1203 717 q 983 874 1114 823 q 709 926 852 926 q 206 828 448 926 q 160 815 174 815 q 133 841 133 815 q 169 891 133 862 q 274 951 205 920 q 428 1008 342 982 q 850 1069 625 1069 q 1352 975 1183 1069 q 1361 943 1362 970 q 1336 861 1360 916 q 1279 758 1312 805 q 1221 710 1245 710 q 1203 717 1215 717 z "},"T":{"ha":1158,"x_min":117,"x_max":1268,"o":"m 840 146 l 977 159 q 1038 127 1038 159 q 998 71 1038 95 q 792 -7 902 14 q 578 -27 682 -27 q 430 -23 474 -27 q 341 -8 385 -20 q 270 23 298 3 q 210 157 210 66 q 399 551 210 313 q 642 760 542 730 q 763 775 694 775 q 833 722 833 775 q 823 680 833 705 q 755 493 784 601 q 726 298 726 385 q 840 146 726 146 m 152 705 q 117 745 117 705 q 144 865 117 789 q 254 1027 195 1011 q 353 1034 271 1034 l 811 1023 q 1009 1043 845 1023 q 1181 1063 1173 1063 q 1268 1004 1268 1063 q 1250 920 1268 977 q 1200 812 1231 863 q 1144 761 1170 761 q 1074 786 1128 761 q 806 862 907 862 q 570 842 704 862 q 372 796 437 823 q 258 747 307 769 q 152 705 167 705 z "},"U":{"ha":1508,"x_min":146,"x_max":1466,"o":"m 1154 1036 l 1367 1033 q 1436 1011 1405 1033 q 1466 955 1466 989 q 1449 882 1466 921 q 1301 501 1364 688 q 1239 234 1239 314 q 1255 180 1239 201 q 1293 152 1270 159 q 1338 138 1316 144 q 1392 104 1392 127 q 1315 36 1392 68 q 1145 -12 1238 4 q 983 -27 1053 -27 q 791 130 791 -27 q 791 151 791 143 q 620 25 726 77 q 416 -27 514 -27 q 161 121 212 -27 q 146 230 146 165 q 173 381 146 294 q 230 534 199 469 q 300 677 262 600 q 355 809 355 787 q 272 867 355 854 q 238 881 250 871 q 226 908 226 892 q 247 943 226 924 q 309 980 267 962 q 406 1010 350 997 q 696 1042 529 1042 q 820 966 820 1042 q 779 866 820 952 q 690 679 739 781 q 601 457 642 577 q 560 277 560 337 q 584 199 560 217 q 638 182 607 182 q 688 184 669 182 q 724 191 706 186 q 753 199 742 196 q 782 209 764 203 q 801 216 799 215 q 946 636 831 363 q 1054 960 1054 894 q 1154 1036 1054 1036 z "},"V":{"ha":1392,"x_min":104,"x_max":1489,"o":"m 1165 1027 l 1466 1035 q 1489 1022 1489 1035 q 1440 837 1489 960 q 1323 603 1392 713 q 1173 400 1254 493 q 1000 225 1093 307 q 818 88 907 144 q 486 -34 625 -34 q 328 38 404 -34 q 208 226 253 110 q 163 467 163 342 q 209 690 163 569 q 239 764 224 732 q 253 809 253 797 q 245 829 253 821 q 218 844 237 838 q 161 858 194 853 q 104 899 104 867 q 171 960 104 926 q 354 1018 237 993 q 576 1042 471 1042 q 730 1029 682 1042 q 779 980 779 1016 q 768 945 779 964 q 597 597 642 733 q 552 302 552 460 q 567 196 552 249 q 605 143 582 143 q 689 192 635 143 q 804 326 742 240 q 927 516 867 412 q 1040 745 988 620 q 1117 982 1091 869 q 1122 1000 1120 993 q 1136 1016 1124 1006 q 1165 1027 1147 1025 z "},"W":{"ha":1966,"x_min":77,"x_max":2054,"o":"m 1758 1027 l 2031 1035 q 2054 1021 2054 1035 q 2035 921 2054 988 q 1853 540 1978 724 q 1451 129 1689 300 q 1237 8 1341 50 q 1050 -34 1133 -34 q 874 156 924 -34 q 652 17 761 67 q 460 -34 544 -34 q 301 38 376 -34 q 181 226 226 110 q 136 467 136 342 q 182 689 136 570 q 212 763 197 730 q 226 808 226 796 q 218 829 226 820 q 191 844 210 838 q 134 857 167 852 q 77 898 77 867 q 143 959 77 926 q 327 1017 210 992 q 549 1042 444 1042 q 703 1028 654 1042 q 751 979 751 1015 q 741 945 751 964 q 570 599 614 735 q 525 302 525 463 q 540 196 525 249 q 578 143 555 143 q 657 189 608 143 q 763 315 706 234 q 873 498 819 397 q 1049 968 996 726 q 1097 1014 1057 1008 l 1384 1021 q 1407 1006 1407 1021 q 1279 667 1377 859 q 1204 518 1241 591 q 1122 269 1122 353 q 1144 154 1122 177 q 1178 143 1154 143 q 1251 179 1202 143 q 1361 289 1300 216 q 1483 461 1422 363 q 1710 982 1624 686 q 1758 1027 1723 1027 z "},"X":{"ha":1276,"x_min":-12,"x_max":1371,"o":"m 144 859 q 103 889 103 859 q 138 945 103 914 q 231 1004 173 976 q 374 1050 288 1031 q 553 1069 459 1069 q 705 1015 648 1069 q 805 828 762 961 q 931 498 848 696 q 1065 205 1014 300 q 1171 134 1096 149 q 1194 130 1179 132 q 1216 126 1209 127 q 1232 121 1222 125 q 1246 113 1242 117 q 1258 80 1258 100 q 1165 6 1258 39 q 931 -27 1072 -27 q 712 9 782 -27 q 602 109 642 46 q 557 211 580 145 q 494 387 535 277 q 164 16 271 93 q 92 -18 119 -18 q 40 22 65 -18 q 2 108 16 62 q -12 176 -12 153 q 27 247 -12 230 q 264 359 168 307 q 456 489 361 412 q 335 795 410 607 q 295 850 319 836 q 221 865 270 865 l 144 859 m 934 643 q 898 682 898 643 q 927 749 898 697 q 1020 878 956 801 q 1154 1007 1084 954 q 1272 1061 1225 1061 q 1345 998 1319 1061 q 1371 824 1371 935 q 1328 762 1371 770 q 1143 720 1221 743 q 970 652 1066 697 q 934 643 951 643 z "},"Y":{"ha":1389,"x_min":142,"x_max":1436,"o":"m 1156 1035 l 1339 1033 q 1406 1015 1375 1033 q 1436 970 1436 998 q 1426 937 1436 958 q 1273 494 1381 849 q 1139 73 1165 139 q 1079 -54 1113 7 q 1010 -158 1046 -114 q 934 -236 975 -203 q 851 -290 892 -269 q 762 -323 810 -311 q 561 -346 673 -346 q 494 -310 494 -346 q 533 -249 494 -288 q 578 -201 572 -209 q 759 151 660 -95 q 596 66 690 100 q 429 32 502 32 q 309 45 355 32 q 225 85 263 59 q 142 262 142 144 q 168 407 142 319 q 226 566 195 494 q 289 707 258 638 q 324 787 320 775 q 328 809 328 798 q 245 867 328 854 q 211 881 223 871 q 199 910 199 892 q 229 952 199 929 q 315 996 260 976 q 648 1042 440 1042 q 772 968 772 1042 q 656 653 772 913 q 540 296 540 392 q 655 205 540 205 q 790 229 716 205 q 1021 995 918 568 q 1058 1027 1027 1019 q 1156 1035 1088 1035 z "},"Z":{"ha":1273,"x_min":-16,"x_max":1289,"o":"m 1151 309 q 1196 272 1196 309 q 1166 155 1196 230 q 1113 43 1136 81 q 1045 -11 1090 6 q 908 -27 1000 -27 q 691 -4 815 -27 q 474 60 568 19 q 388 -7 421 12 q 314 -26 355 -26 q 178 0 273 -26 q 44 44 83 26 q -5 74 5 63 q -16 102 -16 84 q 273 402 -16 170 q 524 604 397 501 q 888 966 835 854 q 987 1049 928 1049 q 1166 990 1050 1049 q 1253 928 1216 964 q 1289 859 1289 892 q 1289 852 1289 859 q 1222 727 1282 804 q 1078 568 1162 649 q 894 401 993 486 q 561 144 705 241 q 784 174 672 148 q 966 231 897 201 q 1089 285 1036 260 q 1151 309 1143 309 m 505 1023 q 776 951 776 1023 q 751 905 776 921 q 660 873 727 888 q 512 827 593 859 q 387 770 431 795 q 243 709 281 709 q 205 769 205 709 q 222 863 205 811 q 272 958 239 915 q 344 1010 304 1002 q 505 1023 411 1023 z "},"[":{"ha":809,"x_min":115,"x_max":964,"o":"m 140 -157 q 115 -113 115 -157 q 186 228 115 -24 q 341 745 258 479 q 437 1080 424 1010 q 507 1151 451 1151 l 715 1144 l 941 1151 q 964 1105 964 1151 q 900 1035 964 1035 q 793 1042 854 1035 q 712 1048 731 1048 l 671 1048 q 519 550 616 899 q 363 -53 423 201 q 426 -54 393 -54 q 527 -47 460 -54 q 628 -41 594 -41 q 652 -87 652 -41 q 587 -157 652 -157 q 366 -150 587 -157 l 140 -157 z "},"\\":{"ha":706,"x_min":216,"x_max":543,"o":"m 315 1065 l 541 -87 q 543 -108 543 -96 q 530 -134 543 -120 q 496 -149 517 -149 q 461 -136 475 -149 q 443 -104 446 -123 l 217 1048 q 216 1068 216 1056 q 228 1094 216 1080 q 262 1109 241 1109 q 297 1096 283 1109 q 315 1065 312 1084 z "},"]":{"ha":808,"x_min":-1,"x_max":848,"o":"m 823 1151 q 848 1107 848 1151 q 777 767 848 1019 q 622 250 705 515 q 526 -86 539 -16 q 456 -157 512 -157 l 248 -150 l 22 -157 q -1 -111 -1 -157 q 63 -41 -1 -41 q 170 -47 109 -41 q 251 -54 232 -54 l 292 -54 q 444 444 347 95 q 600 1047 540 793 q 537 1048 570 1048 q 436 1042 503 1048 q 335 1035 369 1035 q 311 1081 311 1035 q 376 1151 311 1151 q 597 1144 376 1151 l 823 1151 z "},"^":{"ha":1003,"x_min":108,"x_max":837,"o":"m 684 49 q 549 509 612 304 q 252 52 353 237 q 194 23 237 23 q 139 52 171 23 q 108 100 108 81 q 111 111 108 106 q 484 653 323 402 q 561 714 522 714 q 603 706 583 714 q 628 686 624 699 q 770 294 703 473 q 837 113 837 116 q 797 55 837 86 q 734 23 756 23 q 684 49 692 23 z "},"_":{"ha":763,"x_min":-256,"x_max":776,"o":"m -212 -124 l 732 -124 q 764 -139 753 -124 q 776 -176 776 -155 q 764 -212 776 -197 q 732 -227 753 -227 l -212 -227 q -244 -212 -232 -227 q -256 -176 -256 -197 q -244 -139 -256 -155 q -212 -124 -232 -124 z "},"`":{"ha":833,"x_min":170,"x_max":663,"o":"m 329 1164 q 490 1046 410 1118 q 617 915 570 975 q 663 837 663 856 q 655 810 663 818 q 638 802 646 802 q 522 848 631 802 q 258 947 413 895 q 170 1036 170 977 q 215 1124 170 1080 q 304 1168 260 1168 q 329 1164 320 1168 z "},"a":{"ha":1273,"x_min":55,"x_max":1404,"o":"m 534 145 q 747 340 661 145 q 786 486 786 430 q 767 562 786 541 q 694 583 749 583 q 576 533 640 583 q 474 406 513 482 q 435 268 435 329 q 463 176 435 206 q 534 145 490 145 m 886 720 l 1197 705 q 1223 695 1215 705 q 1232 671 1232 684 q 1191 514 1232 622 q 1109 299 1150 406 q 1068 159 1068 193 q 1079 115 1068 125 q 1119 106 1089 106 q 1228 135 1149 106 q 1335 178 1307 163 q 1378 193 1363 193 q 1404 170 1404 193 q 1201 38 1404 119 q 1036 -8 1133 10 q 840 -27 939 -27 q 640 79 673 -27 q 355 -27 534 -27 q 147 32 232 -27 q 55 235 55 96 q 141 503 55 380 q 393 691 235 640 q 581 720 481 720 q 821 644 735 720 q 821 656 821 648 l 821 686 q 886 720 821 720 z "},"b":{"ha":1273,"x_min":32,"x_max":1404,"o":"m 406 53 q 154 -14 208 -14 q 65 8 99 -14 q 32 65 32 31 q 121 338 32 91 q 289 945 289 808 l 288 970 q 354 1004 288 1004 l 531 1004 l 667 1006 q 694 996 685 1006 q 703 972 703 985 q 578 578 703 909 l 578 578 q 721 683 637 646 q 902 720 805 720 q 1185 455 1185 720 q 1135 259 1185 353 q 998 95 1084 165 q 1346 183 1221 115 q 1378 193 1364 193 q 1404 172 1404 193 q 1381 133 1404 151 q 1107 24 1292 71 q 709 -24 922 -24 q 635 -27 675 -27 q 523 -6 594 -27 q 406 53 451 16 m 712 547 q 499 352 585 547 q 460 207 460 262 q 478 130 460 151 q 552 109 497 109 q 670 160 606 109 q 772 287 733 210 q 810 425 810 363 q 783 517 810 486 q 712 547 756 547 z "},"c":{"ha":1042,"x_min":50,"x_max":1174,"o":"m 469 443 q 438 290 438 359 q 452 185 438 220 q 495 133 467 151 q 879 126 592 72 q 1077 173 1015 152 q 1150 193 1139 193 q 1174 170 1174 193 q 1138 123 1174 147 q 870 17 1043 62 q 484 -27 697 -27 q 160 49 271 -27 q 50 259 50 125 q 84 416 50 342 q 180 545 119 490 q 321 640 241 600 q 688 720 483 720 q 1023 665 926 720 q 1034 632 1034 656 q 1013 552 1034 608 q 957 449 991 496 q 895 401 923 401 q 849 432 866 401 q 821 482 832 463 q 789 528 809 501 q 750 568 768 554 q 707 591 732 581 q 644 602 681 602 q 570 579 607 602 q 509 523 533 557 q 469 443 486 488 z "},"d":{"ha":1273,"x_min":55,"x_max":1404,"o":"m 1374 193 q 1404 165 1404 193 q 1376 125 1404 146 q 1149 21 1300 69 q 886 -27 998 -27 q 720 -4 773 -27 q 646 79 667 20 q 533 6 607 39 q 377 -27 459 -27 q 242 -13 294 -27 q 147 32 190 2 q 80 114 104 62 q 55 235 55 165 q 76 372 55 304 q 141 504 97 441 q 245 614 184 566 q 394 691 307 663 q 581 720 481 720 q 855 637 746 720 q 893 953 893 879 l 892 972 q 958 1006 892 1006 l 1262 992 q 1288 982 1278 992 q 1297 960 1297 972 q 1185 527 1297 854 q 1074 167 1074 199 q 1083 121 1074 135 q 1121 108 1092 108 q 1221 132 1150 108 q 1329 175 1293 157 q 1374 193 1364 193 m 534 145 q 747 340 661 145 q 795 506 795 434 q 777 566 795 545 q 703 587 758 587 q 582 536 648 587 q 476 407 516 484 q 435 268 435 329 q 463 176 435 206 q 534 145 490 145 z "},"e":{"ha":1042,"x_min":39,"x_max":1174,"o":"m 1150 193 q 1174 171 1174 193 q 1142 131 1174 149 q 1062 91 1109 112 q 931 40 1015 69 q 498 -27 739 -27 q 39 255 39 -27 q 126 499 39 393 q 360 663 214 606 q 680 720 507 720 q 933 666 852 720 q 1013 519 1013 612 q 936 361 1013 422 q 732 271 859 300 q 438 229 604 241 q 589 98 449 123 q 665 92 625 92 q 1122 187 823 92 q 1150 193 1141 193 m 439 303 q 625 403 557 336 q 694 565 694 470 q 677 605 694 590 q 628 620 661 620 q 560 591 595 620 q 500 517 524 563 q 439 303 448 421 z "},"f":{"ha":926,"x_min":-17,"x_max":1058,"o":"m 400 -265 q 389 -290 399 -279 q 368 -300 378 -300 q 230 -295 359 -300 q 34 -290 100 -290 q 18 -282 24 -290 q 11 -267 11 -275 q 77 130 26 -98 q 18 167 39 151 q -17 214 -17 190 q 12 237 -17 237 q 42 229 24 237 q 96 207 60 221 q 317 812 195 610 q 473 978 387 926 q 677 1030 560 1030 q 859 967 795 1030 q 922 781 922 904 q 802 392 922 570 q 484 124 682 214 q 521 122 505 122 q 1006 189 802 122 q 1030 193 1017 193 q 1058 170 1058 193 q 1037 138 1058 152 q 797 55 953 88 q 439 16 640 21 q 400 -265 409 -148 m 471 179 q 698 451 608 272 q 787 814 787 630 q 774 908 787 882 q 741 934 762 934 q 708 922 720 934 q 678 873 695 910 q 641 783 661 837 q 572 574 622 728 q 471 179 522 420 z "},"g":{"ha":1273,"x_min":19,"x_max":1404,"o":"m 19 -231 q 84 -151 19 -189 q 254 -83 150 -112 q 645 -4 441 -32 q 689 123 669 62 q 526 39 616 69 q 363 8 436 8 q 239 21 290 8 q 146 60 189 33 q 55 253 55 119 q 127 494 55 387 q 322 660 199 601 q 601 720 445 720 q 842 652 757 720 q 986 685 904 671 q 1114 700 1067 700 q 1193 677 1160 700 q 1225 626 1225 655 q 1205 539 1225 597 q 1136 345 1185 481 q 1043 71 1087 208 q 1335 181 1180 108 q 1375 193 1360 193 q 1404 170 1404 193 q 1380 134 1404 151 q 1015 -21 1268 50 l 996 -81 q 927 -194 977 -145 q 812 -273 877 -243 q 665 -320 748 -302 q 337 -353 519 -353 q 19 -231 19 -353 m 663 207 q 755 340 715 250 q 795 486 795 430 q 776 562 795 541 q 703 583 758 583 q 583 536 648 583 q 476 416 517 489 q 435 281 435 342 q 462 193 435 220 q 522 165 489 165 q 571 168 555 165 q 614 179 588 170 q 663 207 641 189 m 585 -172 l 617 -81 q 314 -219 314 -130 q 339 -261 314 -245 q 404 -277 365 -277 q 585 -172 548 -277 z "},"h":{"ha":1275,"x_min":9,"x_max":1407,"o":"m 354 1004 l 665 1006 q 690 997 680 1006 q 700 964 700 987 q 672 833 700 942 q 610 620 644 724 q 806 689 699 658 q 1000 720 914 720 q 1119 684 1065 720 q 1179 562 1179 644 q 1116 345 1179 481 q 1053 170 1053 208 q 1106 114 1053 114 q 1345 182 1212 114 q 1379 193 1366 193 q 1407 169 1407 193 q 1376 124 1407 144 q 1298 83 1345 105 q 1181 35 1251 61 q 829 -27 1016 -27 q 642 65 642 -27 q 710 278 642 125 q 778 486 778 432 q 684 550 778 550 q 581 534 631 550 q 420 19 469 205 q 405 0 416 6 q 384 -6 393 -6 l 35 -14 q 18 -4 27 -14 q 9 18 9 5 q 53 155 9 32 q 149 421 96 277 q 245 720 201 565 q 289 951 289 876 l 288 970 q 354 1004 288 1004 z "},"i":{"ha":696,"x_min":32,"x_max":828,"o":"m 700 956 q 620 830 700 884 q 450 776 539 776 q 311 812 361 776 q 262 901 262 848 q 300 996 262 953 q 398 1063 338 1038 q 530 1087 459 1087 q 651 1049 602 1087 q 700 956 700 1012 m 509 115 q 634 137 555 115 q 749 176 713 159 q 800 193 785 193 q 828 165 828 193 q 807 136 828 152 q 558 28 738 84 q 237 -27 378 -27 q 91 1 150 -27 q 32 85 32 28 q 91 255 32 120 q 202 640 202 511 l 201 666 q 267 700 201 700 l 602 707 q 629 697 620 707 q 637 673 637 686 q 595 519 637 627 q 509 308 552 412 q 467 159 467 204 q 509 115 467 115 z "},"j":{"ha":695,"x_min":-211,"x_max":827,"o":"m 796 193 q 827 165 827 193 q 654 71 827 127 q 430 15 547 35 q 388 -123 414 -42 q 271 -294 349 -241 q 57 -346 193 -346 q -159 -312 -78 -346 q -211 -259 -211 -290 q -176 -229 -211 -229 l -130 -231 q -28 -124 -78 -231 q 51 92 2 -59 q 207 663 149 395 q 220 691 211 683 q 258 700 229 700 l 587 707 q 616 699 605 707 q 627 675 627 690 q 613 625 627 661 q 584 549 599 589 q 556 467 570 510 q 533 396 542 423 q 511 320 524 370 q 493 255 497 271 q 474 183 489 240 q 458 119 460 127 q 728 172 614 129 q 796 193 783 193 m 704 956 q 624 830 704 884 q 454 776 543 776 q 315 812 365 776 q 266 901 266 848 q 304 996 266 953 q 402 1063 342 1038 q 534 1087 463 1087 q 655 1049 606 1087 q 704 956 704 1012 z "},"k":{"ha":1156,"x_min":9,"x_max":1287,"o":"m 857 700 l 1122 707 q 1149 697 1140 707 q 1158 673 1158 686 q 1125 579 1158 625 q 1043 498 1093 533 q 926 434 993 464 q 664 351 805 380 q 832 366 760 366 q 1004 258 1004 366 q 996 207 1004 241 q 987 153 987 174 q 1030 110 987 110 q 1122 133 1062 110 q 1215 175 1182 157 q 1258 193 1247 193 q 1278 186 1270 193 q 1287 161 1287 179 q 1258 122 1287 143 q 1021 13 1159 52 q 773 -27 882 -27 q 625 -5 663 -27 q 586 68 586 17 q 600 147 586 94 q 614 231 614 200 q 507 331 614 321 q 420 19 425 109 q 384 -6 418 -6 l 35 -14 q 18 -4 27 -14 q 9 18 9 5 q 53 155 9 32 q 149 421 96 277 q 245 720 201 565 q 289 951 289 876 l 288 970 q 354 1004 288 1004 l 665 1006 q 690 997 680 1006 q 700 975 700 987 q 642 728 700 917 q 530 395 583 538 q 722 496 652 427 q 792 640 792 564 l 791 666 q 857 700 791 700 z "},"l":{"ha":694,"x_min":45,"x_max":825,"o":"m 361 999 l 693 1006 q 720 996 711 1006 q 728 972 728 985 q 598 562 728 901 q 469 161 469 222 q 479 124 469 136 q 515 111 489 111 q 765 186 595 111 q 798 193 782 193 q 825 172 825 193 q 798 134 825 153 q 721 90 770 114 q 602 39 672 66 q 444 -8 532 11 q 258 -27 355 -27 q 103 -1 161 -27 q 45 95 45 25 q 170 478 45 144 q 256 738 217 603 q 296 939 296 872 l 295 965 q 361 999 295 999 z "},"m":{"ha":1735,"x_min":10,"x_max":1866,"o":"m 260 698 l 581 705 q 608 695 599 705 q 616 669 616 684 q 609 620 616 654 q 924 720 790 720 q 1033 690 983 720 q 1097 604 1082 661 q 1463 720 1318 720 q 1576 684 1527 720 q 1628 573 1628 644 q 1604 422 1628 501 q 1554 275 1579 343 q 1529 178 1529 206 q 1544 136 1529 150 q 1581 121 1558 121 q 1799 182 1669 121 q 1836 193 1823 193 q 1866 169 1866 193 q 1840 128 1866 147 q 1765 85 1814 109 q 1642 36 1715 62 q 1471 -9 1569 9 q 1296 -27 1373 -27 q 1181 -1 1219 -27 q 1143 65 1143 24 q 1169 187 1143 106 q 1221 348 1195 269 q 1248 464 1248 428 q 1230 516 1248 500 q 1178 532 1213 532 q 1101 522 1143 532 q 1010 168 1090 406 q 973 43 977 68 q 968 15 969 18 q 963 5 966 11 q 937 -6 957 -6 q 744 -10 840 -6 q 622 -14 649 -14 q 594 18 594 -14 q 615 113 594 50 q 662 239 636 176 q 729 486 729 404 q 650 546 729 546 q 587 535 617 546 q 496 250 561 445 q 423 30 431 54 q 385 -6 412 -6 l 36 -14 q 19 -4 28 -14 q 10 17 10 5 q 39 106 10 30 q 102 270 68 182 q 166 464 137 358 q 195 638 195 569 l 194 664 q 260 698 194 698 z "},"n":{"ha":1275,"x_min":10,"x_max":1407,"o":"m 1381 193 q 1407 170 1407 193 q 1382 129 1407 146 q 1309 89 1357 111 q 1189 39 1261 66 q 1024 -8 1118 12 q 844 -27 930 -27 q 643 65 643 -27 q 711 278 643 125 q 779 486 779 432 q 685 546 779 546 q 588 535 642 546 q 496 246 562 444 q 421 21 430 48 q 385 -6 413 -6 l 36 -14 q 19 -4 28 -14 q 10 17 10 5 q 39 106 10 30 q 103 270 68 182 q 166 464 138 358 q 195 638 195 569 l 195 664 q 260 698 195 698 l 582 705 q 608 695 600 705 q 617 669 617 684 q 610 620 617 654 q 1002 720 848 720 q 1120 684 1067 720 q 1180 562 1180 644 q 1117 344 1180 479 q 1054 177 1054 209 q 1104 114 1054 114 q 1213 138 1136 114 q 1327 178 1290 162 q 1381 193 1364 193 z "},"o":{"ha":1158,"x_min":43,"x_max":1406,"o":"m 170 45 q 43 278 43 122 q 76 431 43 359 q 169 555 110 503 q 305 644 227 607 q 663 720 461 720 q 1090 469 1059 720 q 1188 453 1138 453 q 1273 460 1239 453 q 1337 483 1307 468 q 1380 498 1367 498 q 1406 473 1406 498 q 1366 420 1406 448 q 1166 369 1291 369 q 1090 374 1120 369 q 914 90 1069 203 q 733 4 840 35 q 510 -27 625 -27 q 313 -9 395 -27 q 170 45 231 9 m 416 218 q 508 93 416 93 q 617 157 566 93 q 695 315 667 220 q 724 507 724 409 q 655 605 724 605 q 539 549 595 605 q 450 402 484 492 q 416 218 416 313 z "},"p":{"ha":1273,"x_min":-72,"x_max":1404,"o":"m 245 698 l 553 705 q 580 695 571 705 q 589 671 589 684 q 584 626 589 658 q 579 578 579 593 q 912 720 704 720 q 1112 655 1039 720 q 1185 471 1185 590 q 1004 94 1185 241 q 1326 172 1214 109 q 1381 193 1364 193 q 1404 168 1404 193 q 1379 132 1404 151 q 1083 13 1264 52 q 692 -26 901 -26 q 654 -27 667 -27 q 510 -5 582 -27 q 391 56 438 16 q 344 -275 344 -87 l 345 -294 q 279 -328 345 -328 l -37 -336 q -62 -327 -53 -336 q -72 -304 -72 -317 q 55 145 -72 -189 q 182 593 182 479 l 179 649 q 192 686 179 674 q 245 698 204 698 m 712 547 q 499 352 585 547 q 460 207 460 262 q 478 130 460 151 q 552 109 497 109 q 670 160 606 109 q 772 287 733 210 q 810 425 810 363 q 783 517 810 486 q 712 547 756 547 z "},"q":{"ha":1273,"x_min":55,"x_max":1404,"o":"m 881 -329 l 559 -336 q 533 -326 542 -336 q 524 -302 524 -315 q 650 78 524 -247 q 535 6 611 39 q 376 -27 458 -27 q 242 -13 294 -27 q 147 32 190 2 q 80 114 104 62 q 55 235 55 165 q 76 372 55 304 q 141 504 97 441 q 245 614 184 566 q 394 691 307 663 q 581 720 481 720 q 841 635 732 720 q 1020 679 907 657 q 1168 700 1132 700 q 1221 686 1204 700 q 1239 647 1239 672 q 1211 548 1239 623 q 1132 340 1183 473 q 1047 115 1080 208 l 1057 115 q 1219 138 1139 115 q 1334 177 1299 160 q 1380 193 1369 193 q 1404 171 1404 193 q 1374 125 1404 149 q 1231 64 1343 101 q 1012 12 1118 27 q 946 -269 946 -187 l 947 -295 q 881 -329 947 -329 m 534 145 q 746 334 663 145 q 787 502 787 429 q 768 560 787 537 q 694 583 748 583 q 576 533 640 583 q 474 406 513 482 q 435 268 435 329 q 463 176 435 206 q 534 145 490 145 z "},"r":{"ha":926,"x_min":10,"x_max":991,"o":"m 260 698 l 582 705 q 608 695 600 705 q 617 675 617 684 q 612 646 617 667 q 600 597 608 626 q 591 560 593 568 q 723 671 644 623 q 863 720 802 720 q 991 664 991 720 q 956 532 991 609 q 891 431 922 455 q 855 420 876 420 q 815 433 833 420 q 636 494 733 494 q 571 489 599 494 q 487 222 545 398 q 423 26 429 46 q 385 -6 413 -6 q 174 -17 287 -6 q 45 -27 62 -27 q 19 -18 28 -27 q 10 4 10 -9 q 39 95 10 16 q 103 263 68 173 q 166 461 138 353 q 195 638 195 569 l 195 664 q 260 698 195 698 z "},"s":{"ha":1040,"x_min":-23,"x_max":1172,"o":"m 492 -26 q 442 -27 475 -27 q 148 2 286 -27 q -15 70 10 31 q -23 100 -23 82 q 20 159 -23 119 q 80 199 64 199 q 114 188 96 199 q 152 159 131 176 q 199 125 173 142 q 347 84 260 84 q 403 102 382 84 q 425 146 425 119 q 407 193 425 173 q 360 227 389 212 q 296 256 331 241 q 227 288 262 271 q 163 326 192 305 q 98 438 98 371 q 139 555 98 506 q 243 635 180 605 q 384 685 305 665 q 645 720 522 720 q 874 707 768 720 q 1021 670 981 694 q 1031 638 1031 664 q 1013 563 1031 612 q 967 474 995 515 q 916 433 939 433 q 901 440 907 433 q 776 559 837 517 q 644 601 715 601 q 567 579 590 601 q 543 533 543 557 q 569 488 543 509 q 634 448 595 466 q 719 407 673 431 q 804 360 765 384 q 869 299 843 336 q 895 208 895 263 q 855 101 895 153 q 1118 184 1023 135 q 1146 193 1135 193 q 1172 168 1172 193 q 1145 128 1172 146 q 1058 84 1119 110 q 913 33 997 59 q 492 -26 717 -26 z "},"t":{"ha":812,"x_min":42,"x_max":943,"o":"m 674 690 l 852 713 q 903 674 903 713 q 855 625 903 635 q 641 599 808 615 q 572 431 618 538 q 477 168 477 212 q 537 119 477 119 q 883 184 730 119 q 918 193 905 193 q 943 171 943 193 q 911 127 943 149 q 610 17 811 61 q 240 -27 410 -27 q 93 3 144 -27 q 42 86 42 33 q 113 286 42 140 q 227 574 192 450 q 168 572 184 572 q 128 605 128 572 q 141 637 128 629 q 168 648 154 645 q 192 653 182 652 q 219 655 201 654 q 245 657 237 656 q 254 754 254 709 l 253 780 q 330 821 253 810 q 492 855 356 825 q 659 886 629 886 q 708 852 708 886 q 674 690 708 793 z "},"u":{"ha":1275,"x_min":68,"x_max":1407,"o":"m 275 698 l 581 705 q 608 695 599 705 q 616 664 616 684 q 579 556 616 643 q 503 373 541 470 q 465 231 465 275 q 555 146 465 146 q 648 157 597 146 q 703 310 665 215 q 819 672 799 548 q 854 697 822 697 q 1061 701 953 697 q 1186 705 1170 705 q 1212 696 1203 705 q 1221 679 1221 687 q 1179 541 1221 646 q 1095 324 1137 436 q 1053 160 1053 212 q 1099 109 1053 109 q 1226 133 1145 109 q 1339 176 1307 158 q 1381 193 1371 193 q 1407 169 1407 193 q 1370 122 1407 144 q 1283 78 1334 100 q 1160 30 1232 55 q 823 -27 994 -27 q 629 65 651 -27 q 522 23 564 38 q 405 -10 479 7 q 268 -27 330 -27 q 68 136 68 -27 q 90 272 68 192 q 138 418 112 353 q 208 632 208 591 q 220 686 208 674 q 275 698 233 698 z "},"v":{"ha":1156,"x_min":73,"x_max":1407,"o":"m 231 698 l 589 705 q 612 675 612 705 q 600 643 612 659 q 502 466 539 565 q 465 273 465 367 q 486 187 465 224 q 535 151 506 151 q 654 237 587 151 q 771 441 721 324 q 837 650 822 557 q 849 685 841 675 q 882 695 857 695 l 1147 703 q 1172 684 1172 703 l 1172 674 q 1105 469 1172 591 q 1154 466 1125 466 q 1348 515 1260 466 q 1379 526 1367 526 q 1407 501 1407 526 q 1377 454 1407 476 q 1114 379 1280 379 q 1051 383 1076 379 q 1036 360 1046 375 q 828 163 964 260 q 557 8 693 66 q 336 -50 422 -50 q 206 -3 273 -50 q 73 282 73 90 q 104 477 73 364 q 174 659 135 591 q 231 698 195 697 z "},"w":{"ha":1705,"x_min":77,"x_max":1971,"o":"m 239 698 l 598 705 q 625 679 625 705 q 608 643 625 663 q 510 477 550 570 q 471 288 471 384 q 503 161 471 186 q 537 150 516 150 q 620 184 581 150 q 687 272 659 219 q 736 394 714 325 q 791 652 774 513 q 803 683 792 669 q 836 698 813 698 l 1195 705 q 1221 683 1221 705 q 1205 643 1221 665 q 1067 273 1067 452 q 1136 157 1067 157 q 1233 201 1188 157 q 1307 316 1278 245 q 1369 652 1369 467 q 1415 698 1369 692 q 1539 703 1430 700 q 1680 705 1649 705 q 1711 677 1711 705 q 1655 472 1711 575 q 1718 466 1686 466 q 1912 515 1824 466 q 1944 526 1931 526 q 1971 501 1971 526 q 1942 454 1971 476 q 1678 379 1844 379 q 1600 386 1634 379 l 1569 345 q 1376 150 1490 239 q 1145 8 1263 60 q 936 -44 1027 -44 q 820 7 877 -44 q 729 138 764 59 q 519 1 625 53 q 332 -51 412 -51 q 149 46 220 -51 q 77 300 77 143 q 105 479 77 366 q 171 655 133 593 q 200 689 186 680 q 239 698 214 698 z "},"x":{"ha":1156,"x_min":-26,"x_max":1288,"o":"m 712 600 q 757 493 741 541 q 948 664 867 601 q 1078 726 1029 726 q 1141 670 1114 726 q 1168 540 1168 613 q 1158 510 1168 526 q 1127 489 1147 493 q 1042 484 1107 484 q 921 466 977 484 q 794 395 865 448 q 919 138 867 202 q 989 104 945 104 q 1102 127 1032 104 q 1208 172 1172 150 q 1259 193 1245 193 q 1288 168 1288 193 q 1259 125 1288 151 q 1041 2 1160 39 q 774 -35 922 -35 q 487 56 559 -35 q 410 192 446 106 q 219 31 302 90 q 77 -28 136 -28 q 4 28 33 -28 q -26 144 -26 84 q 5 206 -26 203 q 69 210 22 208 q 164 214 115 211 q 372 290 283 222 q 350 358 366 311 q 327 429 335 406 q 248 568 284 549 q 197 578 230 578 q 132 572 163 578 q 92 566 100 566 q 66 590 66 566 q 121 645 66 614 q 268 697 175 675 q 429 720 361 720 q 528 716 496 720 q 585 706 559 713 q 629 689 610 698 q 663 666 648 681 q 690 636 679 650 q 712 600 701 623 z "},"y":{"ha":1273,"x_min":0,"x_max":1404,"o":"m 1379 193 q 1404 170 1404 193 q 1231 52 1404 125 q 992 -21 1122 7 q 963 -101 976 -66 q 916 -180 950 -136 q 835 -252 882 -223 q 735 -301 789 -281 q 616 -332 682 -321 q 335 -353 496 -353 q 87 -317 174 -353 q 0 -213 0 -281 q 34 -142 0 -174 q 122 -88 68 -110 q 262 -49 177 -66 q 625 -1 406 -20 q 651 100 643 60 q 289 27 454 27 q 68 173 68 27 q 130 426 68 275 q 191 638 191 577 l 191 664 q 256 698 191 698 l 414 695 l 557 705 q 584 695 575 705 q 593 658 593 684 q 573 567 593 632 q 529 446 553 503 q 465 243 465 295 q 486 197 465 213 q 543 182 508 182 q 682 223 618 182 q 816 659 755 419 q 852 684 822 684 q 1063 695 950 684 q 1192 705 1175 705 q 1218 697 1208 705 q 1227 682 1227 689 q 1025 71 1227 652 q 1212 127 1125 94 q 1330 177 1298 160 q 1379 193 1361 193 m 566 -172 q 600 -78 586 -122 q 295 -219 295 -117 q 322 -269 295 -245 q 378 -292 350 -292 q 493 -261 439 -292 q 566 -172 547 -229 z "},"z":{"ha":1156,"x_min":-15,"x_max":1288,"o":"m 722 642 q 801 715 776 715 q 910 702 825 715 q 1080 663 994 689 q 1166 610 1166 637 q 1114 522 1166 576 q 666 163 1000 402 q 602 117 621 130 q 822 109 716 109 q 1195 173 1040 109 q 1262 193 1244 193 q 1288 171 1288 193 q 1153 68 1288 139 q 1006 8 1094 37 q 847 -20 918 -20 q 712 -11 777 -20 q 610 9 648 -1 q 544 30 573 20 q 510 39 515 39 q 486 24 505 39 q 394 -23 427 -23 q 250 -1 362 -23 q 62 40 138 21 q -15 109 -15 59 q 4 149 -15 130 q 74 197 23 168 q 189 262 124 227 q 612 538 367 361 q 530 540 579 540 q 421 526 481 540 q 319 491 361 511 q 243 449 277 470 q 148 400 163 400 q 124 411 134 400 q 115 442 115 422 q 160 565 115 463 q 228 689 205 668 q 273 715 251 711 q 337 720 295 720 q 535 668 378 720 q 699 617 692 617 q 722 642 705 617 z "},"{":{"ha":809,"x_min":153,"x_max":956,"o":"m 578 -157 l 357 -150 q 216 -128 259 -150 q 173 -59 173 -106 q 204 84 173 -12 q 268 276 236 179 q 299 409 299 374 q 282 451 299 444 q 223 458 266 458 q 167 466 181 458 q 153 496 153 473 q 162 534 153 519 q 201 555 172 549 q 262 564 231 562 q 322 581 294 566 q 358 623 351 595 q 412 839 395 764 q 442 960 429 913 q 463 1029 455 1006 q 486 1078 471 1052 q 513 1114 500 1103 q 548 1134 526 1124 q 655 1149 580 1149 l 932 1151 q 956 1105 956 1151 q 891 1035 956 1035 l 794 1048 q 686 984 714 1048 q 601 633 658 920 q 596 610 597 618 q 344 516 578 520 q 453 499 402 515 q 551 419 551 470 q 489 210 551 391 q 427 5 427 30 q 509 -60 427 -60 l 619 -41 q 643 -87 643 -41 q 578 -157 643 -157 z "},"|":{"ha":665,"x_min":93,"x_max":617,"o":"m 96 -345 l 517 1116 q 571 1160 530 1160 q 605 1147 593 1160 q 617 1119 617 1134 q 616 1099 617 1104 l 194 -362 q 140 -406 181 -406 q 106 -393 120 -406 q 93 -367 93 -380 q 96 -345 93 -353 z "},"}":{"ha":809,"x_min":-61,"x_max":741,"o":"m 316 1151 l 538 1144 q 679 1122 635 1144 q 722 1053 722 1100 q 690 910 722 1006 q 627 718 659 815 q 595 585 595 621 q 612 543 595 550 q 671 536 629 536 q 727 528 713 536 q 741 498 741 521 q 732 460 741 475 q 693 439 723 446 q 632 430 663 433 q 572 413 601 428 q 536 371 544 399 q 482 156 499 230 q 452 35 465 81 q 431 -35 439 -12 q 409 -83 423 -58 q 381 -119 395 -109 q 347 -140 368 -130 q 239 -155 315 -155 l -37 -157 q -61 -111 -61 -157 q 3 -41 -61 -41 l 100 -54 q 209 10 180 -54 q 294 361 237 75 q 298 385 297 376 q 551 478 317 474 q 441 495 492 479 q 344 575 344 524 q 406 784 344 604 q 467 989 467 964 q 386 1055 467 1055 l 275 1035 q 252 1081 252 1035 q 316 1151 252 1151 z "},"~":{"ha":1003,"x_min":127,"x_max":902,"o":"m 859 371 q 639 302 757 302 q 533 320 591 302 q 423 356 475 338 q 345 374 371 374 q 261 345 318 374 q 183 315 205 315 q 144 344 162 315 q 127 391 127 373 q 170 449 127 420 q 390 518 272 518 q 496 500 437 518 q 606 465 554 483 q 685 447 659 447 q 767 476 711 447 q 847 505 824 505 q 886 476 869 505 q 902 424 902 448 q 859 371 902 400 z "},"":{"ha":524,"x_min":0,"x_max":0,"o":""},"":{"ha":812,"x_min":-22,"x_max":741,"o":"m 361 450 q 542 448 494 450 q 589 412 589 447 q 519 66 589 339 q 441 -253 448 -208 q 422 -310 433 -298 q 372 -327 412 -322 q 206 -339 333 -331 q 28 -347 79 -347 q -22 -308 -22 -347 q -18 -284 -22 -296 q 155 96 54 -89 q 296 406 254 276 q 361 450 310 450 m 317 769 q 421 840 357 814 q 561 865 485 865 q 688 827 636 865 q 741 733 741 788 q 700 633 741 678 q 596 562 660 588 q 457 536 532 536 q 329 576 381 536 q 277 670 277 616 q 317 769 277 725 z "},"":{"ha":1183,"x_min":96,"x_max":1080,"o":"m 732 809 q 785 850 752 850 q 822 806 822 850 q 804 718 822 788 q 1059 669 959 711 q 1080 642 1080 660 q 1052 500 1080 570 q 1002 429 1023 429 q 982 441 991 429 q 770 591 897 558 q 631 79 714 381 q 787 149 700 86 q 943 273 859 201 q 967 283 954 283 q 996 258 996 283 q 978 129 996 230 q 942 16 961 28 q 602 -26 876 -24 l 568 -151 q 530 -193 556 -193 q 497 -151 497 -193 q 518 -26 497 -128 q 119 145 198 -18 q 96 259 96 196 q 145 445 96 359 q 279 588 195 530 q 698 719 455 709 q 732 809 719 785 m 545 104 q 663 598 602 371 q 581 554 617 589 q 523 471 544 519 q 492 372 503 423 q 481 270 481 321 q 498 175 481 220 q 545 104 514 130 z "},"":{"ha":1273,"x_min":40,"x_max":1199,"o":"m 888 -14 l 310 1 q 202 -5 258 1 q 107 -12 146 -12 q 40 34 40 -12 q 58 71 40 55 q 105 106 76 86 q 150 148 134 126 q 234 403 204 222 q 88 395 130 395 q 55 440 55 395 q 73 508 55 484 q 123 533 92 532 q 197 535 155 535 l 254 535 q 292 736 275 673 q 331 841 309 798 q 379 916 353 884 q 439 971 404 947 q 505 1012 474 996 q 578 1039 536 1028 q 652 1056 621 1050 q 728 1065 684 1062 q 874 1069 792 1069 q 1051 1053 957 1069 q 1188 1009 1145 1036 q 1199 977 1199 1003 q 1181 896 1199 951 q 1134 794 1162 842 q 1084 747 1106 747 q 1069 754 1074 747 q 942 910 985 868 q 851 952 899 952 q 741 836 789 952 q 685 662 711 767 q 656 547 659 556 q 916 567 892 566 q 940 516 940 568 q 910 441 940 458 q 822 427 885 427 q 625 428 760 427 q 592 319 605 359 q 416 88 529 136 q 696 129 589 94 q 890 229 812 168 q 1063 391 962 286 q 1108 411 1082 411 q 1148 398 1135 411 q 1162 354 1162 386 q 1138 187 1162 291 q 1059 35 1114 83 q 888 -14 1004 -14 z "},"":{"ha":1273,"x_min":145,"x_max":1195,"o":"m 292 406 q 378 685 292 566 q 263 768 316 724 q 246 801 246 781 q 275 858 246 821 q 331 895 304 895 q 354 887 344 895 q 475 781 406 846 q 727 857 583 857 q 958 781 871 857 q 1112 887 1036 839 q 1140 895 1124 895 q 1176 867 1157 895 q 1195 813 1195 840 q 1166 768 1195 787 q 1026 686 1090 719 q 1051 554 1051 626 q 958 271 1051 390 q 1077 186 1020 231 q 1094 153 1094 173 q 1065 96 1094 132 q 1009 60 1036 60 q 986 67 996 60 q 858 180 928 112 q 611 110 750 110 q 388 178 471 110 q 229 67 302 114 q 199 60 216 60 q 164 87 182 60 q 145 141 145 115 q 174 186 145 168 q 317 271 248 233 q 292 406 292 329 m 713 753 q 594 724 648 753 q 507 648 541 696 q 438 418 438 549 q 486 269 438 323 q 625 214 534 214 q 778 259 715 214 q 873 379 841 304 q 906 549 906 454 q 858 698 906 644 q 713 753 810 753 z "},"":{"ha":1389,"x_min":199,"x_max":1402,"o":"m 757 -8 l 505 -12 q 414 14 430 -12 q 406 52 406 26 q 421 138 406 77 q 245 131 297 131 q 215 172 215 131 q 279 240 215 240 q 447 233 311 240 q 473 327 465 296 q 298 319 349 319 q 267 361 267 319 q 332 429 267 429 q 477 422 370 429 q 401 645 446 536 q 335 795 356 755 q 297 848 314 835 q 251 867 279 862 q 199 906 199 875 q 293 996 199 956 q 606 1042 397 1042 q 689 1023 661 1042 q 730 968 718 1005 q 784 757 753 892 q 829 515 815 622 q 937 746 896 640 q 1012 985 977 852 q 1031 1020 1019 1010 q 1070 1029 1044 1029 l 1339 1035 q 1402 970 1402 1035 q 1275 745 1402 872 q 1090 573 1215 684 q 929 423 964 463 q 1089 429 1065 429 q 1114 389 1114 429 q 1050 319 1114 319 q 861 326 998 319 q 841 233 850 278 q 1038 240 1004 240 q 1062 201 1062 240 q 998 131 1062 131 q 828 136 939 131 q 825 74 825 107 l 828 37 q 805 4 828 16 q 757 -8 782 -8 z "},"":{"ha":665,"x_min":93,"x_max":618,"o":"m 270 254 l 373 254 l 194 -362 q 140 -406 181 -406 q 106 -394 120 -406 q 93 -367 93 -381 q 96 -345 93 -353 l 270 254 m 449 528 l 346 528 l 517 1116 q 571 1160 530 1160 q 605 1147 591 1160 q 618 1121 618 1135 q 616 1099 618 1107 l 449 528 z "},"":{"ha":1328,"x_min":18,"x_max":1310,"o":"m 26 2 q 18 33 18 14 q 61 91 18 51 q 121 132 104 132 q 154 120 137 132 q 193 91 172 108 q 239 57 214 74 q 388 16 301 16 q 444 34 422 16 q 465 78 465 52 q 447 125 465 105 q 400 159 429 144 q 337 188 372 174 q 268 220 302 203 q 203 258 233 237 q 139 377 139 303 q 311 591 139 518 q 524 645 402 631 q 513 710 513 670 q 536 794 513 751 q 600 866 559 837 q 691 917 641 895 q 798 951 741 939 q 1012 974 912 974 q 1299 931 1230 974 q 1310 898 1310 925 q 1299 829 1310 871 q 1266 750 1287 787 q 1222 714 1244 714 q 1207 722 1213 714 q 1099 823 1149 791 q 991 855 1048 855 q 913 833 937 855 q 890 784 890 811 q 927 724 890 756 q 1017 660 964 691 q 1123 595 1070 629 q 1214 517 1177 562 q 1251 427 1251 473 q 1168 281 1251 334 q 907 228 1086 228 q 831 229 857 228 q 868 124 868 180 q 837 25 868 68 q 753 -43 806 -18 q 486 -95 644 -95 q 189 -66 327 -95 q 26 2 51 -37 m 839 404 q 799 466 839 439 q 680 524 765 488 q 621 533 648 533 q 572 528 593 533 q 534 506 551 522 q 516 464 516 489 q 546 417 516 439 q 636 364 575 395 l 638 365 q 745 338 694 338 q 839 404 839 338 z "},"":{"ha":833,"x_min":-18,"x_max":852,"o":"m 363 981 q 293 871 363 918 q 145 825 223 825 q 25 856 68 825 q -18 933 -18 888 q 15 1016 -18 979 q 101 1074 48 1053 q 215 1095 153 1095 q 320 1062 277 1095 q 363 981 363 1029 m 819 903 q 733 846 786 867 q 618 825 681 825 q 513 856 556 825 q 470 933 470 888 q 503 1016 470 979 q 589 1074 536 1053 q 704 1095 642 1095 q 809 1062 766 1095 q 852 984 852 1029 q 819 903 852 939 z "},"":{"ha":1485,"x_min":180,"x_max":1441,"o":"m 983 823 q 933 857 983 857 q 827 795 883 857 q 731 643 770 734 q 692 472 692 551 q 729 348 692 394 q 845 302 767 302 q 1000 330 921 302 q 1044 338 1027 338 q 1062 324 1062 338 q 1013 266 1062 296 q 888 216 963 236 q 743 196 812 196 q 518 266 603 196 q 433 451 433 335 q 463 596 433 524 q 544 726 493 668 q 657 828 594 783 q 910 922 790 922 q 1088 870 1031 922 q 1145 726 1145 817 q 1072 563 1145 617 q 993 534 1034 534 q 926 547 952 534 q 899 586 899 559 q 941 699 899 597 q 983 823 983 802 m 229 298 q 180 543 180 414 q 230 787 180 671 q 364 989 279 904 q 566 1123 449 1074 q 810 1173 682 1173 q 1055 1123 939 1173 q 1257 989 1172 1074 q 1391 787 1341 904 q 1441 543 1441 671 q 1391 298 1441 414 q 1257 96 1341 181 q 1055 -38 1172 12 q 810 -88 939 -88 q 566 -38 682 -88 q 364 96 449 12 q 229 298 279 181 m 258 543 q 332 267 258 394 q 532 66 406 140 q 808 -7 659 -7 q 1023 36 920 -7 q 1199 154 1125 80 q 1317 329 1273 227 q 1360 543 1360 431 q 1317 758 1360 655 q 1199 934 1273 860 q 1023 1052 1125 1008 q 808 1095 920 1095 q 594 1052 696 1095 q 419 934 492 1008 q 301 758 345 860 q 258 543 258 655 z "},"":{"ha":1021,"x_min":218,"x_max":1011,"o":"m 473 863 q 490 817 473 835 q 544 800 508 800 q 669 891 621 800 q 688 964 688 929 q 635 1017 688 1017 q 521 972 569 1017 q 473 863 473 927 m 760 1116 l 963 1107 q 980 1101 975 1107 q 986 1088 986 1095 q 932 935 986 1053 q 879 789 879 818 q 907 763 879 763 q 951 773 922 763 q 992 783 979 783 q 1011 761 1011 783 q 969 718 1011 739 q 874 688 928 696 q 721 680 821 680 q 599 741 622 680 q 413 680 532 680 q 278 714 334 680 q 218 831 218 750 q 304 1019 218 935 q 412 1084 345 1059 q 570 1109 479 1109 q 718 1065 661 1109 l 718 1096 q 760 1116 718 1116 z "},"":{"ha":1567,"x_min":233,"x_max":1471,"o":"m 679 7 q 647 27 673 7 q 531 117 622 46 q 248 328 342 262 q 233 367 233 338 q 260 443 233 396 q 315 500 287 490 q 671 651 457 558 q 889 744 884 744 q 917 731 905 744 q 928 698 928 718 q 889 635 928 661 q 774 553 850 608 q 505 377 631 452 q 591 283 557 324 q 662 199 625 243 q 722 129 699 156 q 745 74 745 102 q 725 27 745 47 q 679 7 706 7 m 1221 7 q 1190 27 1215 7 q 1074 117 1164 46 q 790 328 884 262 q 775 367 775 338 q 802 443 775 396 q 857 500 829 490 q 1213 651 1000 558 q 1432 744 1427 744 q 1459 731 1448 744 q 1471 698 1471 718 q 1432 635 1471 661 q 1317 553 1393 608 q 1047 377 1174 452 q 1134 283 1100 324 q 1204 199 1168 243 q 1264 129 1241 156 q 1287 74 1287 102 q 1268 27 1287 47 q 1221 7 1249 7 z "},"":{"ha":1003,"x_min":165,"x_max":878,"o":"m 200 322 q 165 362 165 322 q 176 438 165 422 q 232 472 198 469 q 319 476 267 476 l 603 470 l 843 477 q 878 437 878 477 q 829 168 878 355 q 781 144 823 144 l 700 134 q 679 140 685 134 q 673 170 673 146 q 690 257 673 194 q 708 323 707 319 l 440 329 l 200 322 z "},"":{"ha":1046,"x_min":237,"x_max":949,"o":"m 271 322 q 237 362 237 322 q 248 438 237 422 q 303 472 269 469 q 391 476 338 476 l 674 470 l 914 477 q 949 437 949 477 q 937 361 949 377 q 882 327 916 330 q 795 323 848 323 l 511 329 l 271 322 z "},"":{"ha":1485,"x_min":180,"x_max":1441,"o":"m 229 298 q 180 543 180 414 q 230 787 180 671 q 364 989 279 904 q 566 1123 449 1074 q 810 1173 682 1173 q 1055 1123 939 1173 q 1257 989 1172 1074 q 1391 787 1341 904 q 1441 543 1441 671 q 1391 298 1441 414 q 1257 96 1341 181 q 1055 -38 1172 12 q 810 -88 939 -88 q 566 -38 682 -88 q 364 96 449 12 q 229 298 279 181 m 258 543 q 332 267 258 394 q 532 66 406 140 q 808 -7 659 -7 q 1023 36 920 -7 q 1199 154 1125 80 q 1317 329 1273 227 q 1360 543 1360 431 q 1317 758 1360 655 q 1199 934 1273 860 q 1023 1052 1125 1008 q 808 1095 920 1095 q 594 1052 696 1095 q 419 934 492 1008 q 301 758 345 860 q 258 543 258 655 m 1093 449 l 1086 345 q 1098 316 1086 325 q 1124 308 1109 308 q 1161 283 1161 309 q 1100 233 1161 254 q 967 212 1039 212 q 830 306 830 212 q 842 386 830 334 q 854 460 854 438 q 829 504 854 482 q 760 526 804 526 l 742 526 q 695 316 700 335 q 650 234 680 253 q 555 215 621 215 q 432 242 489 215 q 375 295 375 269 q 382 310 375 304 q 411 316 389 316 q 448 328 432 316 q 479 378 464 340 q 510 480 494 415 q 538 596 526 545 q 574 696 550 647 q 629 763 597 745 q 768 791 677 791 q 812 769 812 791 q 796 724 812 757 q 751 566 780 692 q 903 621 846 578 q 959 734 959 664 q 793 840 959 840 q 600 807 681 840 q 545 784 569 794 q 515 774 520 774 q 496 788 496 774 q 516 822 496 807 q 921 931 661 931 q 1120 878 1043 931 q 1183 760 1183 835 q 1107 628 1183 674 q 926 564 1040 586 q 1045 532 997 564 q 1093 449 1093 500 z "},"":{"ha":833,"x_min":115,"x_max":718,"o":"m 146 884 q 115 928 115 884 q 135 996 115 972 q 180 1021 155 1021 l 441 1007 q 576 1014 492 1007 q 694 1021 661 1021 q 718 977 718 1021 q 699 909 718 934 q 647 884 680 884 q 534 891 615 884 q 399 898 452 898 q 264 891 347 898 q 146 884 182 884 z "},"":{"ha":798,"x_min":284,"x_max":866,"o":"m 728 1118 q 691 1217 728 1180 q 593 1254 655 1254 q 477 1202 530 1254 q 423 1087 423 1149 q 459 988 423 1024 q 558 952 495 952 q 674 1004 621 952 q 728 1118 728 1056 m 284 1059 q 312 1193 284 1130 q 387 1298 340 1255 q 619 1390 487 1390 q 796 1320 726 1390 q 866 1154 866 1251 q 820 980 866 1057 q 697 859 774 903 q 523 814 621 814 q 354 885 425 814 q 284 1059 284 955 z "},"":{"ha":1003,"x_min":114,"x_max":878,"o":"m 848 340 q 814 325 827 326 q 784 323 801 324 q 756 323 766 323 l 683 323 l 670 323 l 656 323 l 643 324 q 621 325 629 324 l 591 326 q 571 326 585 326 l 568 312 q 537 170 557 270 q 513 54 517 69 q 466 30 508 31 l 385 20 q 363 26 370 20 q 357 56 357 32 q 372 132 357 80 q 424 329 387 184 l 389 328 l 374 328 q 272 324 330 327 l 242 323 q 200 322 224 322 l 193 322 q 165 362 165 327 l 165 376 q 166 391 165 386 q 234 473 166 465 q 319 476 267 476 l 373 475 l 386 475 l 400 475 q 427 473 407 474 q 459 473 446 473 l 460 473 l 470 511 q 495 627 481 554 q 513 713 509 700 q 561 737 517 734 l 640 742 q 669 709 669 742 q 643 584 669 677 q 615 488 616 492 q 613 479 614 485 q 610 470 612 474 l 641 470 l 654 471 q 703 472 671 471 l 731 473 q 751 473 738 473 l 789 475 l 800 475 q 843 477 837 477 l 859 473 q 876 451 869 469 l 878 441 l 878 422 l 877 415 l 877 408 l 876 397 q 858 349 873 370 l 848 340 m 149 -35 q 114 5 114 -35 q 125 81 114 64 q 181 115 146 111 q 268 119 215 119 l 551 113 l 791 119 q 826 79 826 119 q 815 3 826 20 q 759 -31 793 -27 q 672 -35 725 -35 l 389 -28 l 149 -35 z "},"":{"ha":902,"x_min":123,"x_max":968,"o":"m 914 861 q 950 842 950 861 q 914 752 950 813 q 854 688 878 690 q 756 685 804 685 q 594 705 709 685 q 390 749 479 726 q 296 712 347 724 q 218 701 244 701 q 158 727 193 701 q 123 770 123 753 q 406 944 123 806 q 551 1026 512 996 q 591 1086 591 1057 q 535 1124 591 1124 q 420 1116 460 1124 q 349 1102 379 1109 q 293 1091 300 1091 q 267 1112 267 1091 q 300 1152 267 1136 q 713 1239 482 1239 q 902 1204 836 1239 q 968 1102 968 1169 q 844 948 968 1003 q 724 904 785 923 q 467 810 528 843 q 731 837 566 812 q 914 861 897 861 z "},"":{"ha":902,"x_min":152,"x_max":980,"o":"m 688 1239 q 980 1125 980 1239 q 687 981 980 1012 q 900 942 831 972 q 968 847 968 912 q 524 689 968 689 q 300 702 395 689 q 183 724 205 714 q 156 738 161 734 q 152 757 152 742 q 175 824 152 772 q 219 876 199 876 q 262 854 229 876 q 484 774 382 774 q 561 798 528 774 q 593 855 593 821 q 559 912 593 889 q 474 940 525 936 q 409 949 424 943 q 391 961 394 956 q 389 977 389 966 q 449 1008 389 1005 q 596 1035 552 1015 q 640 1086 640 1055 q 551 1143 640 1143 q 412 1121 486 1143 q 324 1098 338 1098 q 303 1106 311 1098 q 296 1130 296 1114 q 324 1160 296 1146 q 688 1239 489 1239 z "},"":{"ha":833,"x_min":149,"x_max":685,"o":"m 504 1161 q 538 1168 518 1168 q 636 1131 587 1168 q 685 1051 685 1093 q 609 974 685 1001 q 222 814 380 890 q 176 802 195 802 q 149 827 149 802 q 196 910 149 852 q 329 1041 243 968 q 504 1161 414 1113 z "},"":{"ha":1003,"x_min":-44,"x_max":943,"o":"m 884 705 q 909 676 909 705 q 874 543 909 646 q 804 329 839 439 q 768 180 768 218 q 814 108 768 108 q 877 124 846 108 q 917 141 907 141 q 943 117 943 141 q 901 42 943 83 q 739 -27 832 -27 q 589 86 613 -27 q 476 4 547 35 q 323 -26 406 -26 q 215 48 241 -26 q 119 -304 195 -17 q 71 -328 112 -327 l -17 -337 q -38 -331 -32 -337 q -44 -301 -44 -326 q -31 -231 -44 -277 q 49 29 -18 -185 q 201 642 201 517 q 211 685 201 673 q 248 698 221 698 l 357 705 q 384 695 375 705 q 393 659 393 684 q 364 538 393 633 q 306 346 335 443 q 277 208 277 248 q 304 146 277 168 q 383 124 332 124 q 604 225 504 124 q 663 424 614 262 q 733 672 713 587 q 769 697 740 697 l 884 705 z "},"":{"ha":1388,"x_min":162,"x_max":1364,"o":"m 1342 868 q 1281 887 1326 868 q 1196 921 1237 906 q 1050 293 1168 784 q 968 -241 968 -46 q 958 -278 968 -269 q 833 -291 943 -291 q 832 -259 832 -273 q 952 304 832 -120 q 1095 949 1076 742 q 1027 962 1062 958 q 917 454 1008 777 q 788 -37 814 96 q 762 -222 762 -171 q 764 -294 762 -274 q 686 -298 723 -298 q 635 -286 648 -298 q 623 -235 623 -274 q 641 -111 623 -195 q 680 45 659 -27 q 740 256 700 118 q 800 463 781 394 q 534 403 709 403 q 281 463 389 403 q 194 546 227 493 q 162 669 162 599 q 237 880 162 789 q 448 1020 311 971 q 765 1069 585 1069 q 1256 980 1055 1069 q 1364 889 1364 932 q 1342 868 1364 868 z "},"":{"ha":812,"x_min":217,"x_max":680,"o":"m 640 429 q 537 359 601 385 q 397 333 473 333 q 269 372 321 333 q 217 465 217 410 q 257 565 217 520 q 361 636 298 610 q 501 662 425 662 q 628 622 576 662 q 680 528 680 583 q 640 429 680 473 z "},"":{"ha":833,"x_min":146,"x_max":687,"o":"m 521 -76 q 642 -116 597 -76 q 687 -222 687 -157 q 656 -328 687 -287 q 465 -407 597 -407 q 216 -338 332 -407 q 163 -299 180 -317 q 146 -260 146 -280 q 182 -220 146 -220 q 225 -237 197 -220 q 313 -273 254 -254 q 410 -292 371 -292 q 469 -274 449 -292 q 490 -229 490 -257 q 470 -185 490 -201 q 406 -168 450 -168 q 338 -161 361 -168 q 314 -129 314 -154 q 346 -37 314 -103 q 418 68 378 30 l 467 44 l 429 -87 q 521 -76 480 -76 z "},"":{"ha":725,"x_min":262,"x_max":807,"o":"m 422 1101 l 293 1084 q 262 1107 262 1084 q 300 1143 262 1128 q 699 1243 548 1243 q 807 1183 807 1243 q 764 1031 807 1130 q 705 893 720 933 q 676 805 690 853 q 662 743 662 757 q 651 720 662 730 q 623 711 640 711 l 390 706 q 320 715 330 706 q 311 739 311 724 q 326 784 311 753 q 383 903 340 816 q 460 1083 460 1061 q 422 1101 460 1101 z "},"":{"ha":1021,"x_min":245,"x_max":966,"o":"m 557 680 q 327 728 409 680 q 245 854 245 776 q 302 991 245 933 q 671 1109 417 1109 q 926 1036 850 1109 q 966 941 966 997 q 941 839 966 886 q 865 757 915 793 q 557 680 760 680 m 564 756 q 639 789 604 756 q 693 873 674 822 q 713 980 713 924 q 665 1036 713 1036 q 552 973 602 1036 q 502 833 502 910 q 564 756 502 756 z "},"":{"ha":1567,"x_min":172,"x_max":1410,"o":"m 421 744 q 453 725 427 744 q 569 635 478 705 q 852 423 758 489 q 867 384 867 413 q 840 309 867 355 q 785 251 813 262 q 429 100 643 193 q 211 7 216 7 q 183 20 195 7 q 172 54 172 33 q 218 121 172 90 q 325 198 247 142 q 595 374 469 301 q 508 468 538 433 q 437 553 479 503 q 375 627 395 604 q 355 677 355 650 q 375 724 355 705 q 421 744 394 744 m 964 744 q 995 725 970 744 q 1112 635 1021 705 q 1395 423 1301 489 q 1410 384 1410 413 q 1383 309 1410 355 q 1328 251 1356 262 q 972 100 1185 193 q 753 7 758 7 q 726 20 737 7 q 714 54 714 33 q 760 121 714 90 q 867 198 789 142 q 1137 374 1011 301 q 1051 468 1080 433 q 979 553 1021 503 q 918 627 937 604 q 898 677 898 650 q 917 724 898 705 q 964 744 937 744 z "},"":{"ha":2040,"x_min":313,"x_max":1878,"o":"m 1756 215 l 1855 220 q 1878 206 1878 220 q 1871 162 1878 173 q 1842 150 1864 152 q 1740 144 1820 147 q 1727 66 1729 88 q 1724 33 1726 45 q 1722 16 1722 20 q 1705 1 1722 6 q 1669 -5 1689 -5 l 1425 -7 q 1367 20 1367 -7 q 1376 59 1367 40 q 1419 133 1385 79 q 1097 125 1183 125 q 978 130 1010 125 q 893 185 893 145 q 937 245 893 207 q 1141 488 1031 328 q 1169 515 1154 507 q 1215 522 1184 522 q 1497 528 1215 522 q 1537 511 1537 528 q 1531 495 1537 503 q 1440 421 1525 488 q 1194 213 1194 228 q 1292 206 1194 204 q 1403 209 1390 208 q 1437 210 1415 209 q 1469 210 1459 210 q 1541 329 1534 309 q 1589 349 1549 349 l 1706 348 q 1759 339 1744 348 q 1774 311 1774 331 q 1756 215 1774 290 m 538 925 l 410 907 q 379 931 379 907 q 417 966 379 951 q 816 1067 665 1067 q 924 1007 924 1067 q 880 855 924 954 q 822 717 837 757 q 792 629 806 677 q 779 567 779 581 q 767 544 779 553 q 739 534 756 534 l 507 530 q 437 539 446 530 q 427 562 427 548 q 442 608 427 576 q 500 727 457 640 q 577 907 577 885 q 538 925 577 925 m 1567 1007 q 1521 936 1567 974 l 418 22 q 360 -6 384 -6 q 325 6 336 -6 q 313 37 313 18 q 358 106 313 68 l 1461 1020 q 1519 1048 1495 1048 q 1555 1037 1543 1048 q 1567 1007 1567 1025 z "},"":{"ha":2040,"x_min":380,"x_max":1778,"o":"m 606 925 l 477 907 q 447 931 447 907 q 485 966 447 951 q 884 1067 732 1067 q 991 1007 991 1067 q 948 855 991 954 q 889 717 905 757 q 860 629 874 677 q 846 567 846 581 q 835 544 846 553 q 807 534 824 534 l 574 530 q 505 539 514 530 q 495 562 495 548 q 510 608 495 576 q 568 727 525 640 q 645 907 645 885 q 606 925 645 925 m 1634 1007 q 1589 936 1634 974 l 486 22 q 428 -6 452 -6 q 392 6 404 -6 q 380 37 380 18 q 426 106 380 68 l 1529 1020 q 1587 1048 1563 1048 q 1623 1037 1611 1048 q 1634 1007 1634 1025 m 1761 136 q 1724 46 1761 108 q 1665 -17 1688 -15 q 1567 -20 1615 -20 q 1404 0 1519 -20 q 1200 43 1289 20 q 1106 7 1158 18 q 1029 -4 1055 -4 q 968 22 1003 -4 q 933 64 933 48 q 1217 239 933 100 q 1362 321 1322 290 q 1401 380 1401 351 q 1345 418 1401 418 q 1210 407 1271 418 q 1150 395 1190 404 q 1103 386 1110 386 q 1078 406 1078 386 q 1110 446 1078 431 q 1523 534 1293 534 q 1712 499 1646 534 q 1778 397 1778 464 q 1653 243 1778 298 q 1467 178 1596 218 q 1278 105 1338 138 q 1542 131 1376 106 q 1725 156 1708 156 q 1761 136 1761 156 z "},"":{"ha":2040,"x_min":170,"x_max":1925,"o":"m 1804 215 l 1903 220 q 1925 206 1925 220 q 1919 162 1925 173 q 1890 150 1912 152 q 1788 144 1868 147 q 1775 66 1776 88 q 1771 33 1773 45 q 1769 16 1769 20 q 1753 1 1769 6 q 1716 -5 1736 -5 l 1472 -7 q 1414 20 1414 -7 q 1423 59 1414 40 q 1466 133 1433 79 q 1144 125 1230 125 q 1025 130 1058 125 q 941 185 941 145 q 985 245 941 207 q 1189 488 1079 328 q 1217 515 1202 507 q 1262 522 1232 522 q 1544 528 1262 522 q 1585 511 1585 528 q 1579 495 1585 503 q 1488 421 1573 488 q 1241 213 1241 228 q 1339 206 1241 204 q 1450 209 1438 208 q 1485 210 1463 209 q 1516 210 1507 210 q 1589 329 1581 309 q 1636 349 1596 349 l 1754 348 q 1806 339 1791 348 q 1822 311 1822 331 q 1804 215 1822 290 m 1626 1007 q 1581 936 1626 974 l 478 22 q 420 -6 444 -6 q 384 6 396 -6 q 372 37 372 18 q 418 106 372 68 l 1520 1020 q 1579 1048 1555 1048 q 1614 1037 1603 1048 q 1626 1007 1626 1025 m 705 1070 q 998 957 998 1070 q 705 812 998 843 q 917 773 849 804 q 985 678 985 743 q 541 520 985 520 q 318 533 413 520 q 201 555 223 545 q 174 569 178 565 q 170 588 170 573 q 193 655 170 603 q 237 707 216 707 q 279 685 246 707 q 502 606 399 606 q 578 629 546 606 q 611 686 611 652 q 577 744 611 720 q 492 771 543 767 q 427 781 441 774 q 409 792 412 787 q 406 808 406 797 q 467 840 406 836 q 613 866 570 846 q 657 917 657 886 q 569 975 657 975 q 429 952 503 975 q 342 929 355 929 q 321 937 328 929 q 313 961 313 945 q 342 991 313 977 q 705 1070 507 1070 z "},"":{"ha":1040,"x_min":-36,"x_max":902,"o":"m 814 14 q 860 22 829 22 q 890 -3 890 22 q 836 -167 890 -54 q 747 -299 781 -281 q 618 -332 713 -318 q 428 -347 524 -347 q 106 -288 237 -347 q 2 -205 40 -258 q -36 -83 -36 -153 q 58 118 -36 30 q 154 194 101 158 q 268 264 208 230 q 382 328 328 298 q 569 471 512 401 q 598 481 577 481 q 665 447 618 481 q 711 379 711 413 q 674 298 711 345 q 583 204 636 251 q 476 113 529 158 q 385 27 422 68 q 347 -37 347 -14 q 371 -74 347 -60 q 436 -88 394 -88 q 649 -62 566 -88 q 814 14 732 -36 m 478 775 q 582 846 518 820 q 722 871 646 871 q 850 833 798 871 q 902 739 902 794 q 862 639 902 684 q 758 568 821 594 q 618 543 694 543 q 491 582 543 543 q 439 676 439 622 q 478 775 439 731 z "},"":{"ha":1275,"x_min":-23,"x_max":1215,"o":"m 802 -27 q 576 123 576 -27 q 684 464 576 208 q 792 819 792 720 q 751 898 792 875 q 632 922 710 922 q 475 908 555 922 q 372 895 395 895 q 349 915 349 895 q 445 985 349 941 q 850 1069 629 1069 q 1112 1006 1025 1069 q 1199 801 1199 943 q 1169 590 1199 717 q 1110 353 1139 464 q 1080 200 1080 241 q 1096 142 1080 159 q 1172 122 1116 122 q 1211 115 1206 122 q 1215 99 1215 107 q 1187 48 1215 68 q 802 -27 1079 -27 m 408 464 l 581 468 q 629 440 629 468 q 606 409 629 420 q 335 358 528 369 q 280 168 280 250 q 290 100 280 131 q 299 56 299 69 q 254 7 299 20 q 120 -5 208 -5 q 5 11 33 -5 q -23 67 -23 26 q 21 235 -23 143 q 135 410 66 326 q 288 574 204 494 q 452 713 372 655 q 692 844 628 844 q 721 827 721 844 q 692 787 721 809 q 548 653 632 743 q 398 464 464 563 l 408 464 m 1140 1135 q 1113 1109 1140 1109 q 1010 1133 1086 1109 q 700 1190 878 1173 q 635 1220 661 1194 q 610 1291 610 1246 q 646 1363 610 1335 q 742 1390 683 1390 q 876 1358 802 1390 q 1007 1282 951 1325 q 1102 1197 1063 1238 q 1140 1135 1140 1155 z "},"":{"ha":1275,"x_min":-23,"x_max":1357,"o":"m 802 -27 q 576 123 576 -27 q 684 464 576 208 q 792 819 792 720 q 751 898 792 875 q 632 922 710 922 q 475 908 555 922 q 372 895 395 895 q 349 915 349 895 q 445 985 349 941 q 850 1069 629 1069 q 1112 1006 1025 1069 q 1199 801 1199 943 q 1169 590 1199 717 q 1110 353 1139 464 q 1080 200 1080 241 q 1096 142 1080 159 q 1172 122 1116 122 q 1211 115 1206 122 q 1215 99 1215 107 q 1187 48 1215 68 q 802 -27 1079 -27 m 408 464 l 581 468 q 629 440 629 468 q 606 409 629 420 q 335 358 528 369 q 280 168 280 250 q 290 100 280 131 q 299 56 299 69 q 254 7 299 20 q 120 -5 208 -5 q 5 11 33 -5 q -23 67 -23 26 q 21 235 -23 143 q 135 410 66 326 q 288 574 204 494 q 452 713 372 655 q 692 844 628 844 q 721 827 721 844 q 692 787 721 809 q 548 653 632 743 q 398 464 464 563 l 408 464 m 1093 1365 q 1214 1390 1159 1390 q 1313 1357 1268 1390 q 1357 1279 1357 1323 q 1339 1230 1357 1253 q 1280 1202 1320 1207 q 1235 1196 1274 1201 q 1175 1187 1196 1190 q 1113 1179 1154 1185 q 1041 1167 1071 1173 q 973 1154 1010 1162 q 902 1139 935 1147 q 840 1122 868 1131 q 789 1113 811 1113 q 766 1139 766 1113 q 865 1247 766 1178 q 1093 1365 963 1316 z "},"":{"ha":1275,"x_min":-23,"x_max":1268,"o":"m 802 -27 q 576 123 576 -27 q 684 464 576 208 q 792 819 792 720 q 751 898 792 875 q 632 922 710 922 q 475 908 555 922 q 372 895 395 895 q 349 915 349 895 q 445 985 349 941 q 850 1069 629 1069 q 1112 1006 1025 1069 q 1199 801 1199 943 q 1169 590 1199 717 q 1110 353 1139 464 q 1080 200 1080 241 q 1096 142 1080 159 q 1172 122 1116 122 q 1211 115 1206 122 q 1215 99 1215 107 q 1187 48 1215 68 q 802 -27 1079 -27 m 408 464 l 581 468 q 629 440 629 468 q 606 409 629 420 q 335 358 528 369 q 280 168 280 250 q 290 100 280 131 q 299 56 299 69 q 254 7 299 20 q 120 -5 208 -5 q 5 11 33 -5 q -23 67 -23 26 q 21 235 -23 143 q 135 410 66 326 q 288 574 204 494 q 452 713 372 655 q 692 844 628 844 q 721 827 721 844 q 692 787 721 809 q 548 653 632 743 q 398 464 464 563 l 408 464 m 962 1208 q 644 1103 688 1103 q 621 1112 630 1103 q 611 1134 611 1120 q 684 1219 611 1162 q 893 1361 758 1276 q 940 1384 920 1378 q 994 1390 960 1390 q 1048 1379 1028 1390 q 1088 1350 1069 1369 q 1222 1207 1177 1262 q 1268 1126 1268 1153 q 1236 1099 1268 1099 q 1148 1121 1204 1099 q 962 1208 1053 1160 z "},"":{"ha":1275,"x_min":-23,"x_max":1343,"o":"m 802 -27 q 576 123 576 -27 q 684 464 576 208 q 792 819 792 720 q 751 898 792 875 q 632 922 710 922 q 475 908 555 922 q 372 895 395 895 q 349 915 349 895 q 445 985 349 941 q 850 1069 629 1069 q 1112 1006 1025 1069 q 1199 801 1199 943 q 1169 590 1199 717 q 1110 353 1139 464 q 1080 200 1080 241 q 1096 142 1080 159 q 1172 122 1116 122 q 1211 115 1206 122 q 1215 99 1215 107 q 1187 48 1215 68 q 802 -27 1079 -27 m 408 464 l 581 468 q 629 440 629 468 q 606 409 629 420 q 335 358 528 369 q 280 168 280 250 q 290 100 280 131 q 299 56 299 69 q 254 7 299 20 q 120 -5 208 -5 q 5 11 33 -5 q -23 67 -23 26 q 21 235 -23 143 q 135 410 66 326 q 288 574 204 494 q 452 713 372 655 q 692 844 628 844 q 721 827 721 844 q 692 787 721 809 q 548 653 632 743 q 398 464 464 563 l 408 464 m 640 1156 q 593 1190 593 1156 q 610 1232 593 1211 q 644 1270 627 1252 q 857 1373 738 1373 q 1006 1338 926 1373 q 1118 1304 1085 1304 q 1213 1325 1152 1304 q 1296 1346 1275 1346 q 1330 1337 1316 1346 q 1343 1308 1343 1329 q 1292 1233 1343 1287 q 1078 1129 1198 1129 q 980 1146 1031 1129 q 883 1181 928 1164 q 811 1198 838 1198 q 722 1177 784 1198 q 640 1156 661 1156 z "},"":{"ha":1275,"x_min":-23,"x_max":1404,"o":"m 802 -27 q 576 123 576 -27 q 684 464 576 208 q 792 819 792 720 q 751 898 792 875 q 632 922 710 922 q 475 908 555 922 q 372 895 395 895 q 349 915 349 895 q 445 985 349 941 q 850 1069 629 1069 q 1112 1006 1025 1069 q 1199 801 1199 943 q 1169 590 1199 717 q 1110 353 1139 464 q 1080 200 1080 241 q 1096 142 1080 159 q 1172 122 1116 122 q 1211 115 1206 122 q 1215 99 1215 107 q 1187 48 1215 68 q 802 -27 1079 -27 m 408 464 l 581 468 q 629 440 629 468 q 606 409 629 420 q 335 358 528 369 q 280 168 280 250 q 290 100 280 131 q 299 56 299 69 q 254 7 299 20 q 120 -5 208 -5 q 5 11 33 -5 q -23 67 -23 26 q 21 235 -23 143 q 135 410 66 326 q 288 574 204 494 q 452 713 372 655 q 692 844 628 844 q 721 827 721 844 q 692 787 721 809 q 548 653 632 743 q 398 464 464 563 l 408 464 m 867 1186 q 779 1132 833 1151 q 662 1113 725 1113 q 553 1142 599 1113 q 507 1215 507 1171 q 542 1295 507 1259 q 631 1350 577 1331 q 748 1370 685 1370 q 857 1340 812 1370 q 903 1266 903 1310 q 867 1186 903 1221 m 1404 1263 q 1332 1157 1404 1200 q 1180 1113 1259 1113 q 1055 1142 1101 1113 q 1009 1215 1009 1171 q 1044 1295 1009 1259 q 1133 1350 1079 1331 q 1250 1370 1187 1370 q 1359 1340 1314 1370 q 1404 1263 1404 1310 z "},"":{"ha":1275,"x_min":-23,"x_max":1227,"o":"m 802 -27 q 576 123 576 -27 q 684 464 576 208 q 792 819 792 720 q 751 898 792 875 q 632 922 710 922 q 475 908 555 922 q 372 895 395 895 q 349 915 349 895 q 445 985 349 941 q 850 1069 629 1069 q 1112 1006 1025 1069 q 1199 801 1199 943 q 1169 590 1199 717 q 1110 353 1139 464 q 1080 200 1080 241 q 1096 142 1080 159 q 1172 122 1116 122 q 1211 115 1206 122 q 1215 99 1215 107 q 1187 48 1215 68 q 802 -27 1079 -27 m 408 464 l 581 468 q 629 440 629 468 q 606 409 629 420 q 335 358 528 369 q 280 168 280 250 q 290 100 280 131 q 299 56 299 69 q 254 7 299 20 q 120 -5 208 -5 q 5 11 33 -5 q -23 67 -23 26 q 21 235 -23 143 q 135 410 66 326 q 288 574 204 494 q 452 713 372 655 q 692 844 628 844 q 721 827 721 844 q 692 787 721 809 q 548 653 632 743 q 398 464 464 563 l 408 464 m 966 1288 q 876 1273 910 1288 q 828 1239 842 1257 q 814 1191 814 1221 q 844 1143 814 1161 q 924 1126 873 1126 q 1017 1148 975 1126 q 1058 1212 1058 1171 q 966 1288 1058 1288 m 646 1181 q 738 1328 646 1272 q 966 1383 830 1383 q 1227 1238 1227 1383 q 1134 1097 1227 1153 q 907 1041 1040 1041 q 646 1181 646 1041 z "},"":{"ha":1772,"x_min":-23,"x_max":1817,"o":"m 1438 623 q 1464 584 1464 623 q 1438 515 1464 544 q 1384 485 1413 487 q 1326 479 1356 483 q 1256 467 1295 475 q 1182 448 1217 459 q 1112 420 1147 437 q 1053 381 1078 402 q 998 265 998 334 q 1292 125 998 125 q 1474 143 1371 125 q 1613 174 1577 161 q 1662 187 1650 187 q 1687 161 1687 187 q 1585 69 1687 113 q 1310 -1 1482 25 q 972 -27 1139 -27 q 724 -11 806 -27 q 609 38 642 6 q 576 119 576 70 q 613 268 576 169 q 694 464 650 368 q 812 819 812 723 q 763 898 812 873 q 634 922 713 922 q 475 908 555 922 q 372 895 395 895 q 349 915 349 895 q 445 985 349 941 q 850 1069 629 1069 q 1058 1022 996 1069 q 1355 1069 1187 1069 q 1792 998 1673 1069 q 1817 952 1817 982 q 1773 852 1817 922 q 1701 757 1729 783 q 1650 730 1674 730 q 1608 747 1627 730 q 1578 789 1589 764 q 1350 956 1504 956 q 1170 871 1234 956 q 1137 772 1137 828 q 1381 619 1137 619 l 1438 623 m 408 464 l 581 468 q 629 440 629 468 q 606 409 629 420 q 335 358 528 369 q 280 168 280 250 q 290 100 280 131 q 299 56 299 69 q 254 7 299 20 q 120 -5 208 -5 q 5 11 33 -5 q -23 67 -23 26 q 21 235 -23 143 q 135 410 66 326 q 288 574 204 494 q 452 713 372 655 q 692 844 628 844 q 721 827 721 844 q 692 787 721 809 q 548 653 632 743 q 398 464 464 563 l 408 464 z "},"":{"ha":1273,"x_min":78,"x_max":1303,"o":"m 584 218 q 786 141 648 141 q 1053 184 915 141 q 1120 199 1099 199 q 1160 176 1160 199 q 1108 107 1160 144 q 978 41 1057 70 q 800 -8 899 12 q 611 -27 701 -27 q 332 22 452 -27 q 144 164 211 72 q 78 365 78 256 q 115 566 78 473 q 214 733 151 659 q 360 871 277 808 q 537 978 444 935 q 918 1069 736 1069 q 1202 994 1101 1069 q 1303 810 1303 919 q 1233 604 1303 692 q 1144 534 1200 560 q 1020 509 1089 509 q 941 522 974 509 q 880 591 880 546 q 915 680 880 607 q 987 829 951 752 q 1023 935 1023 906 q 998 975 1023 964 q 929 985 974 985 q 827 951 884 985 q 717 858 770 917 q 620 726 664 798 q 549 569 576 653 q 523 417 523 484 q 538 302 523 350 q 584 218 553 255 m 741 -76 q 862 -116 817 -76 q 907 -222 907 -157 q 876 -328 907 -287 q 684 -407 817 -407 q 435 -338 551 -407 q 383 -299 400 -317 q 366 -260 366 -280 q 401 -220 366 -220 q 445 -237 416 -220 q 532 -273 474 -254 q 630 -292 591 -292 q 689 -274 669 -292 q 709 -229 709 -257 q 690 -185 709 -201 q 626 -168 670 -168 q 557 -161 581 -168 q 534 -129 534 -154 q 566 -37 534 -103 q 638 68 598 30 l 687 44 l 648 -87 q 741 -76 700 -76 z "},"":{"ha":1273,"x_min":41,"x_max":1319,"o":"m 940 623 q 966 584 966 623 q 940 515 966 544 q 884 485 914 487 q 822 478 854 483 q 748 465 789 473 q 673 442 707 456 q 610 409 640 428 q 547 298 547 368 q 570 216 547 251 q 631 162 593 181 q 793 125 705 125 q 1142 184 930 125 q 1163 187 1154 187 q 1189 161 1189 187 q 1092 69 1189 114 q 857 -1 996 24 q 594 -27 718 -27 q 372 -12 470 -27 q 199 36 275 4 q 82 120 124 67 q 41 241 41 172 q 82 364 41 309 q 190 454 123 418 q 346 514 257 490 q 715 559 513 559 q 501 583 572 566 q 389 616 430 600 q 320 652 348 632 q 256 768 256 699 q 308 896 256 837 q 446 991 360 954 q 857 1069 623 1069 q 1293 998 1175 1069 q 1319 952 1319 982 q 1275 852 1319 922 q 1203 757 1230 783 q 1152 730 1175 730 q 1109 747 1128 730 q 1080 789 1090 764 q 852 956 1006 956 q 701 907 762 956 q 640 789 640 859 q 710 669 640 720 q 883 619 781 619 l 940 623 m 1099 1135 q 1072 1109 1099 1109 q 970 1133 1044 1109 q 659 1190 836 1173 q 594 1220 620 1194 q 568 1291 568 1246 q 605 1363 568 1335 q 701 1390 642 1390 q 835 1358 760 1390 q 966 1282 909 1325 q 1060 1197 1022 1238 q 1099 1135 1099 1155 z "},"":{"ha":1273,"x_min":41,"x_max":1319,"o":"m 940 623 q 966 584 966 623 q 940 515 966 544 q 884 485 914 487 q 822 478 854 483 q 748 465 789 473 q 673 442 707 456 q 610 409 640 428 q 547 298 547 368 q 570 216 547 251 q 631 162 593 181 q 793 125 705 125 q 1142 184 930 125 q 1163 187 1154 187 q 1189 161 1189 187 q 1092 69 1189 114 q 857 -1 996 24 q 594 -27 718 -27 q 372 -12 470 -27 q 199 36 275 4 q 82 120 124 67 q 41 241 41 172 q 82 364 41 309 q 190 454 123 418 q 346 514 257 490 q 715 559 513 559 q 501 583 572 566 q 389 616 430 600 q 320 652 348 632 q 256 768 256 699 q 308 896 256 837 q 446 991 360 954 q 857 1069 623 1069 q 1293 998 1175 1069 q 1319 952 1319 982 q 1275 852 1319 922 q 1203 757 1230 783 q 1152 730 1175 730 q 1109 747 1128 730 q 1080 789 1090 764 q 852 956 1006 956 q 701 907 762 956 q 640 789 640 859 q 710 669 640 720 q 883 619 781 619 l 940 623 m 1051 1365 q 1172 1390 1118 1390 q 1271 1357 1227 1390 q 1316 1279 1316 1323 q 1297 1230 1316 1253 q 1239 1202 1279 1207 q 1194 1196 1233 1201 q 1134 1187 1154 1190 q 1071 1179 1113 1185 q 999 1167 1029 1173 q 931 1154 969 1162 q 860 1139 894 1147 q 798 1122 827 1131 q 747 1113 770 1113 q 725 1139 725 1113 q 823 1247 725 1178 q 1051 1365 922 1316 z "},"":{"ha":1273,"x_min":41,"x_max":1319,"o":"m 940 623 q 966 584 966 623 q 940 515 966 544 q 884 485 914 487 q 822 478 854 483 q 748 465 789 473 q 673 442 707 456 q 610 409 640 428 q 547 298 547 368 q 570 216 547 251 q 631 162 593 181 q 793 125 705 125 q 1142 184 930 125 q 1163 187 1154 187 q 1189 161 1189 187 q 1092 69 1189 114 q 857 -1 996 24 q 594 -27 718 -27 q 372 -12 470 -27 q 199 36 275 4 q 82 120 124 67 q 41 241 41 172 q 82 364 41 309 q 190 454 123 418 q 346 514 257 490 q 715 559 513 559 q 501 583 572 566 q 389 616 430 600 q 320 652 348 632 q 256 768 256 699 q 308 896 256 837 q 446 991 360 954 q 857 1069 623 1069 q 1293 998 1175 1069 q 1319 952 1319 982 q 1275 852 1319 922 q 1203 757 1230 783 q 1152 730 1175 730 q 1109 747 1128 730 q 1080 789 1090 764 q 852 956 1006 956 q 701 907 762 956 q 640 789 640 859 q 710 669 640 720 q 883 619 781 619 l 940 623 m 921 1208 q 602 1103 647 1103 q 579 1112 589 1103 q 570 1134 570 1120 q 643 1219 570 1162 q 852 1361 716 1276 q 899 1384 879 1378 q 953 1390 919 1390 q 1007 1379 987 1390 q 1046 1350 1027 1369 q 1181 1207 1135 1262 q 1227 1126 1227 1153 q 1195 1099 1227 1099 q 1107 1121 1162 1099 q 921 1208 1011 1160 z "},"":{"ha":1273,"x_min":41,"x_max":1363,"o":"m 940 623 q 966 584 966 623 q 940 515 966 544 q 884 485 914 487 q 822 478 854 483 q 748 465 789 473 q 673 442 707 456 q 610 409 640 428 q 547 298 547 368 q 570 216 547 251 q 631 162 593 181 q 793 125 705 125 q 1142 184 930 125 q 1163 187 1154 187 q 1189 161 1189 187 q 1092 69 1189 114 q 857 -1 996 24 q 594 -27 718 -27 q 372 -12 470 -27 q 199 36 275 4 q 82 120 124 67 q 41 241 41 172 q 82 364 41 309 q 190 454 123 418 q 346 514 257 490 q 715 559 513 559 q 501 583 572 566 q 389 616 430 600 q 320 652 348 632 q 256 768 256 699 q 308 896 256 837 q 446 991 360 954 q 857 1069 623 1069 q 1293 998 1175 1069 q 1319 952 1319 982 q 1275 852 1319 922 q 1203 757 1230 783 q 1152 730 1175 730 q 1109 747 1128 730 q 1080 789 1090 764 q 852 956 1006 956 q 701 907 762 956 q 640 789 640 859 q 710 669 640 720 q 883 619 781 619 l 940 623 m 826 1186 q 738 1132 791 1151 q 621 1113 684 1113 q 512 1142 557 1113 q 466 1215 466 1171 q 501 1295 466 1259 q 590 1350 536 1331 q 707 1370 644 1370 q 816 1340 770 1370 q 861 1266 861 1310 q 826 1186 861 1221 m 1363 1263 q 1291 1157 1363 1200 q 1139 1113 1218 1113 q 1014 1142 1059 1113 q 968 1215 968 1171 q 1003 1295 968 1259 q 1092 1350 1038 1331 q 1209 1370 1145 1370 q 1318 1340 1272 1370 q 1363 1263 1363 1310 z "},"":{"ha":926,"x_min":49,"x_max":934,"o":"m 316 403 q 151 666 151 505 q 187 800 151 738 q 282 906 223 863 q 416 981 341 949 q 730 1042 565 1042 q 869 998 832 1042 q 902 898 902 960 q 872 736 902 836 q 780 459 843 637 q 684 181 716 282 q 582 33 651 79 q 389 -14 513 -14 q 157 17 265 -14 q 49 88 49 48 q 94 123 49 119 q 192 153 161 132 q 248 231 222 175 q 316 403 275 286 m 439 828 q 430 854 439 844 q 405 865 420 865 q 373 853 390 865 q 338 819 356 842 q 292 667 292 764 q 345 486 292 570 q 439 828 439 768 m 934 1135 q 907 1109 934 1109 q 804 1133 880 1109 q 494 1190 671 1173 q 429 1220 455 1194 q 404 1291 404 1246 q 440 1363 404 1335 q 536 1390 477 1390 q 670 1358 595 1390 q 801 1282 745 1325 q 896 1197 857 1238 q 934 1135 934 1155 z "},"":{"ha":926,"x_min":49,"x_max":1151,"o":"m 316 403 q 151 666 151 505 q 187 800 151 738 q 282 906 223 863 q 416 981 341 949 q 730 1042 565 1042 q 869 998 832 1042 q 902 898 902 960 q 872 736 902 836 q 780 459 843 637 q 684 181 716 282 q 582 33 651 79 q 389 -14 513 -14 q 157 17 265 -14 q 49 88 49 48 q 94 123 49 119 q 192 153 161 132 q 248 231 222 175 q 316 403 275 286 m 439 828 q 430 854 439 844 q 405 865 420 865 q 373 853 390 865 q 338 819 356 842 q 292 667 292 764 q 345 486 292 570 q 439 828 439 768 m 886 1365 q 1007 1390 953 1390 q 1106 1357 1062 1390 q 1151 1279 1151 1323 q 1133 1230 1151 1253 q 1074 1202 1114 1207 q 1029 1196 1068 1201 q 969 1187 989 1190 q 906 1179 948 1185 q 834 1167 865 1173 q 767 1154 804 1162 q 695 1139 729 1147 q 633 1122 662 1131 q 583 1113 605 1113 q 560 1139 560 1113 q 659 1247 560 1178 q 886 1365 757 1316 z "},"":{"ha":926,"x_min":49,"x_max":1062,"o":"m 316 403 q 151 666 151 505 q 187 800 151 738 q 282 906 223 863 q 416 981 341 949 q 730 1042 565 1042 q 869 998 832 1042 q 902 898 902 960 q 872 736 902 836 q 780 459 843 637 q 684 181 716 282 q 582 33 651 79 q 389 -14 513 -14 q 157 17 265 -14 q 49 88 49 48 q 94 123 49 119 q 192 153 161 132 q 248 231 222 175 q 316 403 275 286 m 439 828 q 430 854 439 844 q 405 865 420 865 q 373 853 390 865 q 338 819 356 842 q 292 667 292 764 q 345 486 292 570 q 439 828 439 768 m 756 1208 q 437 1103 482 1103 q 414 1112 424 1103 q 405 1134 405 1120 q 478 1219 405 1162 q 687 1361 551 1276 q 734 1384 714 1378 q 788 1390 754 1390 q 842 1379 822 1390 q 882 1350 863 1369 q 1016 1207 970 1262 q 1062 1126 1062 1153 q 1030 1099 1062 1099 q 942 1121 998 1099 q 756 1208 846 1160 z "},"":{"ha":926,"x_min":49,"x_max":1198,"o":"m 316 403 q 151 666 151 505 q 187 800 151 738 q 282 906 223 863 q 416 981 341 949 q 730 1042 565 1042 q 869 998 832 1042 q 902 898 902 960 q 872 736 902 836 q 780 459 843 637 q 684 181 716 282 q 582 33 651 79 q 389 -14 513 -14 q 157 17 265 -14 q 49 88 49 48 q 94 123 49 119 q 192 153 161 132 q 248 231 222 175 q 316 403 275 286 m 439 828 q 430 854 439 844 q 405 865 420 865 q 373 853 390 865 q 338 819 356 842 q 292 667 292 764 q 345 486 292 570 q 439 828 439 768 m 661 1186 q 573 1132 627 1151 q 456 1113 519 1113 q 347 1142 393 1113 q 301 1215 301 1171 q 336 1295 301 1259 q 425 1350 371 1331 q 542 1370 479 1370 q 651 1340 606 1370 q 696 1266 696 1310 q 661 1186 696 1221 m 1198 1263 q 1126 1157 1198 1200 q 974 1113 1053 1113 q 849 1142 895 1113 q 803 1215 803 1171 q 838 1295 803 1259 q 927 1350 873 1331 q 1044 1370 981 1370 q 1153 1340 1107 1370 q 1198 1263 1198 1310 z "},"":{"ha":1388,"x_min":-54,"x_max":1378,"o":"m 721 406 l 544 407 q 319 391 477 407 q 103 374 160 374 q 70 419 70 374 q 88 487 70 463 q 138 512 106 511 q 212 514 170 514 l 357 513 q 600 529 441 513 q 793 547 759 545 q 819 495 819 547 q 789 420 819 437 q 721 406 764 406 m 706 922 q 523 906 620 922 q 359 869 425 889 q 238 832 292 848 q 173 815 184 815 q 136 841 136 815 q 176 895 136 867 q 473 1025 307 982 q 790 1069 639 1069 q 1039 1044 942 1069 q 1198 975 1135 1019 q 1302 869 1261 932 q 1378 580 1378 753 q 1278 243 1378 397 q 985 8 1167 74 q 773 -27 886 -27 q 491 30 593 -27 q 422 -6 463 2 q 309 -14 381 -14 q 172 -2 237 -14 q 58 27 106 9 q -22 67 9 45 q -54 107 -54 90 q -40 135 -54 125 q -8 144 -26 144 q 82 164 53 144 q 141 237 111 183 q 197 359 171 290 q 245 490 222 427 q 297 618 268 553 q 455 804 360 760 q 574 838 502 826 q 720 850 647 850 q 793 816 793 850 q 763 741 793 790 q 696 590 732 692 q 618 346 661 488 q 551 138 575 204 l 540 109 q 606 106 561 106 q 706 125 650 106 q 802 177 761 144 q 875 255 842 210 q 929 350 908 300 q 965 457 951 401 q 991 680 991 561 q 706 922 991 922 z "},"":{"ha":1504,"x_min":87,"x_max":1451,"o":"m 301 832 l 221 816 q 199 820 206 816 q 191 837 191 824 q 254 919 191 868 q 427 1013 317 970 q 624 1055 536 1055 q 750 1025 712 1055 q 787 906 787 994 l 785 876 q 1027 1025 920 980 q 1237 1069 1135 1069 q 1396 1026 1340 1069 q 1451 902 1451 983 q 1373 635 1451 819 q 1308 484 1340 559 q 1229 248 1229 302 q 1326 133 1229 150 q 1386 114 1378 124 q 1394 93 1394 103 q 1290 9 1394 45 q 1055 -27 1185 -27 q 800 124 800 -27 q 873 403 800 230 q 935 545 904 475 q 1008 777 1008 711 q 905 843 1008 843 q 771 801 846 843 q 628 412 738 670 q 528 82 528 177 q 530 37 528 82 q 507 4 530 16 q 458 -8 484 -8 l 186 -12 q 95 14 111 -12 q 87 53 87 26 q 99 130 87 80 q 173 326 111 180 q 286 598 235 472 q 337 765 337 724 q 328 819 337 805 q 301 832 319 832 m 677 1156 q 631 1190 631 1156 q 648 1232 631 1211 q 682 1270 665 1252 q 895 1373 776 1373 q 1044 1338 964 1373 q 1156 1304 1123 1304 q 1251 1325 1190 1304 q 1334 1346 1313 1346 q 1368 1337 1354 1346 q 1381 1308 1381 1329 q 1330 1233 1381 1287 q 1116 1129 1236 1129 q 1018 1146 1069 1129 q 921 1181 966 1164 q 849 1198 876 1198 q 760 1177 822 1198 q 677 1156 699 1156 z "},"":{"ha":1389,"x_min":92,"x_max":1377,"o":"m 706 737 q 534 465 593 646 q 503 267 503 368 q 618 92 503 92 q 739 140 676 92 q 851 265 801 188 q 933 448 901 342 q 965 659 965 553 q 912 871 965 808 q 734 935 859 935 q 585 920 665 935 q 450 887 505 905 q 351 854 395 869 q 300 839 307 839 q 275 859 275 839 q 308 902 275 876 q 401 957 342 928 q 534 1010 461 985 q 864 1069 703 1069 q 1302 888 1174 1069 q 1377 625 1377 782 q 1336 402 1377 507 q 1221 220 1295 298 q 1047 86 1147 142 q 591 -27 846 -27 q 92 314 92 -27 q 133 497 92 410 q 242 650 174 585 q 393 764 309 715 q 736 861 564 861 q 775 851 764 861 q 787 831 787 842 q 784 814 787 821 q 772 798 781 807 q 757 781 764 788 q 706 737 740 766 m 1162 1135 q 1135 1109 1162 1109 q 1034 1133 1108 1109 q 722 1190 900 1173 q 658 1220 684 1194 q 632 1291 632 1246 q 669 1363 632 1335 q 765 1390 705 1390 q 899 1358 824 1390 q 1029 1282 973 1325 q 1124 1197 1086 1238 q 1162 1135 1162 1155 z "},"":{"ha":1389,"x_min":92,"x_max":1379,"o":"m 706 737 q 534 465 593 646 q 503 267 503 368 q 618 92 503 92 q 739 140 676 92 q 851 265 801 188 q 933 448 901 342 q 965 659 965 553 q 912 871 965 808 q 734 935 859 935 q 585 920 665 935 q 450 887 505 905 q 351 854 395 869 q 300 839 307 839 q 275 859 275 839 q 308 902 275 876 q 401 957 342 928 q 534 1010 461 985 q 864 1069 703 1069 q 1302 888 1174 1069 q 1377 625 1377 782 q 1336 402 1377 507 q 1221 220 1295 298 q 1047 86 1147 142 q 591 -27 846 -27 q 92 314 92 -27 q 133 497 92 410 q 242 650 174 585 q 393 764 309 715 q 736 861 564 861 q 775 851 764 861 q 787 831 787 842 q 784 814 787 821 q 772 798 781 807 q 757 781 764 788 q 706 737 740 766 m 1115 1365 q 1236 1390 1181 1390 q 1335 1357 1291 1390 q 1379 1279 1379 1323 q 1361 1230 1379 1253 q 1303 1202 1343 1207 q 1257 1196 1297 1201 q 1197 1187 1218 1190 q 1135 1179 1177 1185 q 1063 1167 1093 1173 q 995 1154 1033 1162 q 924 1139 958 1147 q 862 1122 890 1131 q 811 1113 833 1113 q 789 1139 789 1113 q 887 1247 789 1178 q 1115 1365 985 1316 z "},"":{"ha":1389,"x_min":92,"x_max":1377,"o":"m 706 737 q 534 465 593 646 q 503 267 503 368 q 618 92 503 92 q 739 140 676 92 q 851 265 801 188 q 933 448 901 342 q 965 659 965 553 q 912 871 965 808 q 734 935 859 935 q 585 920 665 935 q 450 887 505 905 q 351 854 395 869 q 300 839 307 839 q 275 859 275 839 q 308 902 275 876 q 401 957 342 928 q 534 1010 461 985 q 864 1069 703 1069 q 1302 888 1174 1069 q 1377 625 1377 782 q 1336 402 1377 507 q 1221 220 1295 298 q 1047 86 1147 142 q 591 -27 846 -27 q 92 314 92 -27 q 133 497 92 410 q 242 650 174 585 q 393 764 309 715 q 736 861 564 861 q 775 851 764 861 q 787 831 787 842 q 784 814 787 821 q 772 798 781 807 q 757 781 764 788 q 706 737 740 766 m 985 1208 q 666 1103 711 1103 q 643 1112 652 1103 q 633 1134 633 1120 q 707 1219 633 1162 q 916 1361 780 1276 q 963 1384 943 1378 q 1017 1390 983 1390 q 1071 1379 1050 1390 q 1110 1350 1091 1369 q 1245 1207 1199 1262 q 1291 1126 1291 1153 q 1258 1099 1291 1099 q 1171 1121 1226 1099 q 985 1208 1075 1160 z "},"":{"ha":1389,"x_min":92,"x_max":1377,"o":"m 706 737 q 534 465 593 646 q 503 267 503 368 q 618 92 503 92 q 739 140 676 92 q 851 265 801 188 q 933 448 901 342 q 965 659 965 553 q 912 871 965 808 q 734 935 859 935 q 585 920 665 935 q 450 887 505 905 q 351 854 395 869 q 300 839 307 839 q 275 859 275 839 q 308 902 275 876 q 401 957 342 928 q 534 1010 461 985 q 864 1069 703 1069 q 1302 888 1174 1069 q 1377 625 1377 782 q 1336 402 1377 507 q 1221 220 1295 298 q 1047 86 1147 142 q 591 -27 846 -27 q 92 314 92 -27 q 133 497 92 410 q 242 650 174 585 q 393 764 309 715 q 736 861 564 861 q 775 851 764 861 q 787 831 787 842 q 784 814 787 821 q 772 798 781 807 q 757 781 764 788 q 706 737 740 766 m 662 1156 q 615 1190 615 1156 q 632 1232 615 1211 q 666 1270 650 1252 q 879 1373 760 1373 q 1028 1338 949 1373 q 1141 1304 1107 1304 q 1236 1325 1174 1304 q 1318 1346 1297 1346 q 1352 1337 1339 1346 q 1365 1308 1365 1329 q 1314 1233 1365 1287 q 1101 1129 1220 1129 q 1002 1146 1053 1129 q 905 1181 951 1164 q 833 1198 860 1198 q 745 1177 806 1198 q 662 1156 683 1156 z "},"":{"ha":1389,"x_min":92,"x_max":1427,"o":"m 706 737 q 534 465 593 646 q 503 267 503 368 q 618 92 503 92 q 739 140 676 92 q 851 265 801 188 q 933 448 901 342 q 965 659 965 553 q 912 871 965 808 q 734 935 859 935 q 585 920 665 935 q 450 887 505 905 q 351 854 395 869 q 300 839 307 839 q 275 859 275 839 q 308 902 275 876 q 401 957 342 928 q 534 1010 461 985 q 864 1069 703 1069 q 1302 888 1174 1069 q 1377 625 1377 782 q 1336 402 1377 507 q 1221 220 1295 298 q 1047 86 1147 142 q 591 -27 846 -27 q 92 314 92 -27 q 133 497 92 410 q 242 650 174 585 q 393 764 309 715 q 736 861 564 861 q 775 851 764 861 q 787 831 787 842 q 784 814 787 821 q 772 798 781 807 q 757 781 764 788 q 706 737 740 766 m 890 1186 q 801 1132 855 1151 q 684 1113 747 1113 q 575 1142 621 1113 q 530 1215 530 1171 q 565 1295 530 1259 q 653 1350 600 1331 q 771 1370 707 1370 q 880 1340 834 1370 q 925 1266 925 1310 q 890 1186 925 1221 m 1427 1263 q 1354 1157 1427 1200 q 1202 1113 1282 1113 q 1077 1142 1123 1113 q 1031 1215 1031 1171 q 1066 1295 1031 1259 q 1155 1350 1101 1331 q 1273 1370 1209 1370 q 1381 1340 1336 1370 q 1427 1263 1427 1310 z "},"":{"ha":1003,"x_min":161,"x_max":909,"o":"m 250 674 q 330 739 317 739 q 354 727 343 739 q 392 681 365 715 q 464 590 419 647 q 541 493 509 533 q 795 714 684 616 q 819 724 804 724 q 871 683 833 724 q 909 630 909 643 q 902 607 909 618 q 884 584 896 596 q 860 562 871 572 q 831 537 848 552 q 786 498 814 523 q 638 373 758 473 l 668 339 q 742 260 696 307 q 810 188 787 214 q 833 148 833 161 q 783 92 833 135 q 719 49 732 49 q 693 59 706 49 q 663 88 680 68 q 603 169 640 118 q 523 277 567 219 q 268 58 330 115 q 242 48 257 48 q 194 85 228 48 q 161 138 161 122 q 172 171 161 154 q 195 198 184 187 q 231 228 207 208 q 261 253 255 248 l 426 394 l 381 442 q 278 557 329 495 q 227 635 227 620 q 250 674 227 651 z "},"":{"ha":1389,"x_min":49,"x_max":1503,"o":"m 291 133 l 323 24 q 216 -56 281 -4 q 103 -131 120 -131 q 67 -102 86 -131 q 49 -42 49 -73 q 75 7 49 -10 q 178 67 101 24 q 291 133 255 110 m 1226 917 q 1337 998 1267 945 q 1452 1076 1438 1076 q 1485 1044 1466 1076 q 1503 982 1503 1012 q 1475 933 1503 952 q 1375 876 1446 915 q 1259 808 1303 837 l 1226 917 m 706 737 q 534 465 593 646 q 503 267 503 368 q 618 92 503 92 q 739 140 676 92 q 851 265 801 188 q 933 448 901 342 q 965 659 965 553 q 912 871 965 808 q 734 935 859 935 q 585 920 665 935 q 450 887 505 905 q 351 854 395 869 q 300 839 307 839 q 275 859 275 839 q 308 902 275 876 q 401 957 342 928 q 534 1010 461 985 q 864 1069 703 1069 q 1302 888 1174 1069 q 1377 625 1377 782 q 1336 402 1377 507 q 1221 220 1295 298 q 1047 86 1147 142 q 591 -27 846 -27 q 92 314 92 -27 q 133 497 92 410 q 242 650 174 585 q 393 764 309 715 q 736 861 564 861 q 775 851 764 861 q 787 831 787 842 q 784 814 787 821 q 772 798 781 807 q 757 781 764 788 q 706 737 740 766 z "},"":{"ha":1508,"x_min":146,"x_max":1466,"o":"m 1154 1036 l 1367 1033 q 1436 1011 1405 1033 q 1466 955 1466 989 q 1449 882 1466 921 q 1301 501 1364 688 q 1239 234 1239 314 q 1255 180 1239 201 q 1293 152 1270 159 q 1338 138 1316 144 q 1392 104 1392 127 q 1315 36 1392 68 q 1145 -12 1238 4 q 983 -27 1053 -27 q 791 130 791 -27 q 791 151 791 143 q 620 25 726 77 q 416 -27 514 -27 q 161 121 212 -27 q 146 230 146 165 q 173 381 146 294 q 230 534 199 469 q 300 677 262 600 q 355 809 355 787 q 272 867 355 854 q 238 881 250 871 q 226 908 226 892 q 247 943 226 924 q 309 980 267 962 q 406 1010 350 997 q 696 1042 529 1042 q 820 966 820 1042 q 779 866 820 952 q 690 679 739 781 q 601 457 642 577 q 560 277 560 337 q 584 199 560 217 q 638 182 607 182 q 688 184 669 182 q 724 191 706 186 q 753 199 742 196 q 782 209 764 203 q 801 216 799 215 q 946 636 831 363 q 1054 960 1054 894 q 1154 1036 1054 1036 m 1204 1135 q 1177 1109 1204 1109 q 1076 1133 1150 1109 q 764 1190 942 1173 q 700 1220 726 1194 q 674 1291 674 1246 q 711 1363 674 1335 q 807 1390 747 1390 q 941 1358 866 1390 q 1072 1282 1015 1325 q 1166 1197 1128 1238 q 1204 1135 1204 1155 z "},"":{"ha":1508,"x_min":146,"x_max":1466,"o":"m 1154 1036 l 1367 1033 q 1436 1011 1405 1033 q 1466 955 1466 989 q 1449 882 1466 921 q 1301 501 1364 688 q 1239 234 1239 314 q 1255 180 1239 201 q 1293 152 1270 159 q 1338 138 1316 144 q 1392 104 1392 127 q 1315 36 1392 68 q 1145 -12 1238 4 q 983 -27 1053 -27 q 791 130 791 -27 q 791 151 791 143 q 620 25 726 77 q 416 -27 514 -27 q 161 121 212 -27 q 146 230 146 165 q 173 381 146 294 q 230 534 199 469 q 300 677 262 600 q 355 809 355 787 q 272 867 355 854 q 238 881 250 871 q 226 908 226 892 q 247 943 226 924 q 309 980 267 962 q 406 1010 350 997 q 696 1042 529 1042 q 820 966 820 1042 q 779 866 820 952 q 690 679 739 781 q 601 457 642 577 q 560 277 560 337 q 584 199 560 217 q 638 182 607 182 q 688 184 669 182 q 724 191 706 186 q 753 199 742 196 q 782 209 764 203 q 801 216 799 215 q 946 636 831 363 q 1054 960 1054 894 q 1154 1036 1054 1036 m 1157 1365 q 1278 1390 1223 1390 q 1377 1357 1333 1390 q 1421 1279 1421 1323 q 1403 1230 1421 1253 q 1345 1202 1385 1207 q 1299 1196 1339 1201 q 1239 1187 1260 1190 q 1177 1179 1219 1185 q 1105 1167 1135 1173 q 1037 1154 1075 1162 q 966 1139 1000 1147 q 904 1122 932 1131 q 853 1113 876 1113 q 831 1139 831 1113 q 929 1247 831 1178 q 1157 1365 1027 1316 z "},"":{"ha":1508,"x_min":146,"x_max":1466,"o":"m 1154 1036 l 1367 1033 q 1436 1011 1405 1033 q 1466 955 1466 989 q 1449 882 1466 921 q 1301 501 1364 688 q 1239 234 1239 314 q 1255 180 1239 201 q 1293 152 1270 159 q 1338 138 1316 144 q 1392 104 1392 127 q 1315 36 1392 68 q 1145 -12 1238 4 q 983 -27 1053 -27 q 791 130 791 -27 q 791 151 791 143 q 620 25 726 77 q 416 -27 514 -27 q 161 121 212 -27 q 146 230 146 165 q 173 381 146 294 q 230 534 199 469 q 300 677 262 600 q 355 809 355 787 q 272 867 355 854 q 238 881 250 871 q 226 908 226 892 q 247 943 226 924 q 309 980 267 962 q 406 1010 350 997 q 696 1042 529 1042 q 820 966 820 1042 q 779 866 820 952 q 690 679 739 781 q 601 457 642 577 q 560 277 560 337 q 584 199 560 217 q 638 182 607 182 q 688 184 669 182 q 724 191 706 186 q 753 199 742 196 q 782 209 764 203 q 801 216 799 215 q 946 636 831 363 q 1054 960 1054 894 q 1154 1036 1054 1036 m 1027 1208 q 708 1103 753 1103 q 685 1112 694 1103 q 675 1134 675 1120 q 749 1219 675 1162 q 958 1361 822 1276 q 1005 1384 985 1378 q 1059 1390 1025 1390 q 1113 1379 1093 1390 q 1152 1350 1133 1369 q 1287 1207 1241 1262 q 1333 1126 1333 1153 q 1300 1099 1333 1099 q 1213 1121 1268 1099 q 1027 1208 1117 1160 z "},"":{"ha":1508,"x_min":146,"x_max":1469,"o":"m 1154 1036 l 1367 1033 q 1436 1011 1405 1033 q 1466 955 1466 989 q 1449 882 1466 921 q 1301 501 1364 688 q 1239 234 1239 314 q 1255 180 1239 201 q 1293 152 1270 159 q 1338 138 1316 144 q 1392 104 1392 127 q 1315 36 1392 68 q 1145 -12 1238 4 q 983 -27 1053 -27 q 791 130 791 -27 q 791 151 791 143 q 620 25 726 77 q 416 -27 514 -27 q 161 121 212 -27 q 146 230 146 165 q 173 381 146 294 q 230 534 199 469 q 300 677 262 600 q 355 809 355 787 q 272 867 355 854 q 238 881 250 871 q 226 908 226 892 q 247 943 226 924 q 309 980 267 962 q 406 1010 350 997 q 696 1042 529 1042 q 820 966 820 1042 q 779 866 820 952 q 690 679 739 781 q 601 457 642 577 q 560 277 560 337 q 584 199 560 217 q 638 182 607 182 q 688 184 669 182 q 724 191 706 186 q 753 199 742 196 q 782 209 764 203 q 801 216 799 215 q 946 636 831 363 q 1054 960 1054 894 q 1154 1036 1054 1036 m 932 1186 q 843 1132 897 1151 q 726 1113 789 1113 q 617 1142 663 1113 q 572 1215 572 1171 q 607 1295 572 1259 q 695 1350 642 1331 q 813 1370 749 1370 q 922 1340 876 1370 q 967 1266 967 1310 q 932 1186 967 1221 m 1469 1263 q 1396 1157 1469 1200 q 1244 1113 1324 1113 q 1119 1142 1165 1113 q 1074 1215 1074 1171 q 1108 1295 1074 1259 q 1197 1350 1143 1331 q 1315 1370 1251 1370 q 1423 1340 1378 1370 q 1469 1263 1469 1310 z "},"":{"ha":1389,"x_min":142,"x_max":1436,"o":"m 1156 1035 l 1339 1033 q 1406 1015 1375 1033 q 1436 970 1436 998 q 1426 937 1436 958 q 1273 494 1381 849 q 1139 73 1165 139 q 1079 -54 1113 7 q 1010 -158 1046 -114 q 934 -236 975 -203 q 851 -290 892 -269 q 762 -323 810 -311 q 561 -346 673 -346 q 494 -310 494 -346 q 533 -249 494 -288 q 578 -201 572 -209 q 759 151 660 -95 q 596 66 690 100 q 429 32 502 32 q 309 45 355 32 q 225 85 263 59 q 142 262 142 144 q 168 407 142 319 q 226 566 195 494 q 289 707 258 638 q 324 787 320 775 q 328 809 328 798 q 245 867 328 854 q 211 881 223 871 q 199 910 199 892 q 229 952 199 929 q 315 996 260 976 q 648 1042 440 1042 q 772 968 772 1042 q 656 653 772 913 q 540 296 540 392 q 655 205 540 205 q 790 229 716 205 q 1021 995 918 568 q 1058 1027 1027 1019 q 1156 1035 1088 1035 m 1086 1365 q 1207 1390 1153 1390 q 1306 1357 1262 1390 q 1351 1279 1351 1323 q 1333 1230 1351 1253 q 1274 1202 1314 1207 q 1229 1196 1268 1201 q 1169 1187 1190 1190 q 1106 1179 1148 1185 q 1035 1167 1065 1173 q 967 1154 1004 1162 q 896 1139 929 1147 q 833 1122 862 1131 q 783 1113 805 1113 q 760 1139 760 1113 q 859 1247 760 1178 q 1086 1365 957 1316 z "},"":{"ha":1388,"x_min":81,"x_max":1355,"o":"m 294 832 l 214 816 q 192 820 199 816 q 184 837 184 824 q 247 919 184 867 q 419 1013 309 970 q 617 1055 529 1055 q 743 1025 705 1055 q 781 917 781 994 q 744 731 781 840 q 646 472 708 623 q 562 256 585 321 q 659 252 603 252 q 777 267 714 252 q 892 315 839 283 q 976 405 945 348 q 1007 536 1007 461 q 883 681 1007 671 q 806 711 806 687 q 829 742 806 724 q 1061 807 911 807 q 1205 773 1139 807 q 1313 675 1272 740 q 1355 525 1355 610 q 1326 375 1355 440 q 1245 269 1297 311 q 1117 201 1194 227 q 752 153 978 153 q 536 173 636 153 q 521 82 521 117 l 523 37 q 500 4 523 16 q 452 -8 477 -8 l 180 -12 q 88 14 104 -12 q 81 53 81 26 q 92 130 81 80 q 166 326 104 180 q 279 598 228 472 q 330 765 330 724 q 321 819 330 805 q 294 832 313 832 z "},"":{"ha":1388,"x_min":-44,"x_max":1592,"o":"m 982 -26 l 932 -27 q 658 1 786 -27 q 501 85 501 35 q 535 159 501 119 q 602 199 568 199 q 644 171 618 199 q 690 125 671 142 q 802 84 739 84 q 921 176 921 84 q 827 281 921 231 q 749 325 788 302 q 683 383 710 348 q 655 456 655 418 q 670 524 655 495 q 710 574 686 553 q 763 616 734 595 q 822 658 792 636 q 875 705 851 680 q 930 844 930 762 q 898 929 930 898 q 823 961 867 961 q 688 876 749 961 q 559 575 628 791 q 438 157 490 360 q 357 -265 386 -47 q 344 -290 355 -279 q 325 -300 334 -300 q 195 -295 316 -300 q 12 -290 75 -290 q -5 -282 2 -290 q -12 -267 -12 -275 q 50 131 6 -77 q -11 168 22 146 q -44 214 -44 190 q -15 237 -44 237 q 13 230 -3 237 q 66 208 28 223 q 286 792 160 619 q 418 930 349 879 q 812 1036 559 1036 q 1124 983 1006 1036 q 1242 838 1242 930 q 1219 764 1242 798 q 1161 706 1196 729 q 1087 662 1127 683 q 1012 625 1046 640 q 932 559 932 589 q 1014 492 932 523 q 1094 463 1050 478 q 1182 426 1138 447 q 1263 380 1226 406 q 1345 239 1345 323 q 1303 98 1345 155 q 1539 184 1453 130 q 1567 193 1556 193 q 1585 186 1578 193 q 1592 163 1592 180 q 1567 128 1592 146 q 1487 84 1542 110 q 1355 33 1432 59 q 976 -26 1177 -26 l 1141 79 q 1303 98 1220 79 q 1176 6 1259 38 q 982 -26 1093 -26 z "},"":{"ha":1273,"x_min":55,"x_max":1404,"o":"m 534 145 q 747 340 661 145 q 786 486 786 430 q 767 562 786 541 q 694 583 749 583 q 576 533 640 583 q 474 406 513 482 q 435 268 435 329 q 463 176 435 206 q 534 145 490 145 m 886 720 l 1197 705 q 1223 695 1215 705 q 1232 671 1232 684 q 1191 514 1232 622 q 1109 299 1150 406 q 1068 159 1068 193 q 1079 115 1068 125 q 1119 106 1089 106 q 1228 135 1149 106 q 1335 178 1307 163 q 1378 193 1363 193 q 1404 170 1404 193 q 1201 38 1404 119 q 1036 -8 1133 10 q 840 -27 939 -27 q 640 79 673 -27 q 355 -27 534 -27 q 147 32 232 -27 q 55 235 55 96 q 141 503 55 380 q 393 691 235 640 q 581 720 481 720 q 821 644 735 720 q 821 656 821 648 l 821 686 q 886 720 821 720 m 659 1164 q 820 1046 740 1118 q 947 915 901 975 q 994 837 994 856 q 985 810 994 818 q 969 802 977 802 q 852 848 961 802 q 589 947 743 895 q 500 1036 500 977 q 545 1124 500 1080 q 634 1168 591 1168 q 659 1164 650 1168 z "},"":{"ha":1273,"x_min":55,"x_max":1404,"o":"m 534 145 q 747 340 661 145 q 786 486 786 430 q 767 562 786 541 q 694 583 749 583 q 576 533 640 583 q 474 406 513 482 q 435 268 435 329 q 463 176 435 206 q 534 145 490 145 m 886 720 l 1197 705 q 1223 695 1215 705 q 1232 671 1232 684 q 1191 514 1232 622 q 1109 299 1150 406 q 1068 159 1068 193 q 1079 115 1068 125 q 1119 106 1089 106 q 1228 135 1149 106 q 1335 178 1307 163 q 1378 193 1363 193 q 1404 170 1404 193 q 1201 38 1404 119 q 1036 -8 1133 10 q 840 -27 939 -27 q 640 79 673 -27 q 355 -27 534 -27 q 147 32 232 -27 q 55 235 55 96 q 141 503 55 380 q 393 691 235 640 q 581 720 481 720 q 821 644 735 720 q 821 656 821 648 l 821 686 q 886 720 821 720 m 895 1161 q 930 1168 909 1168 q 1027 1131 978 1168 q 1076 1051 1076 1093 q 1000 974 1076 1001 q 613 814 772 890 q 568 802 587 802 q 540 827 540 802 q 587 910 540 852 q 720 1041 635 968 q 895 1161 806 1113 z "},"":{"ha":1273,"x_min":55,"x_max":1404,"o":"m 534 145 q 747 340 661 145 q 786 486 786 430 q 767 562 786 541 q 694 583 749 583 q 576 533 640 583 q 474 406 513 482 q 435 268 435 329 q 463 176 435 206 q 534 145 490 145 m 886 720 l 1197 705 q 1223 695 1215 705 q 1232 671 1232 684 q 1191 514 1232 622 q 1109 299 1150 406 q 1068 159 1068 193 q 1079 115 1068 125 q 1119 106 1089 106 q 1228 135 1149 106 q 1335 178 1307 163 q 1378 193 1363 193 q 1404 170 1404 193 q 1201 38 1404 119 q 1036 -8 1133 10 q 840 -27 939 -27 q 640 79 673 -27 q 355 -27 534 -27 q 147 32 232 -27 q 55 235 55 96 q 141 503 55 380 q 393 691 235 640 q 581 720 481 720 q 821 644 735 720 q 821 656 821 648 l 821 686 q 886 720 821 720 m 945 1132 q 1139 841 1139 902 q 1109 812 1139 812 q 1042 838 1080 812 q 826 977 937 909 q 549 838 711 925 q 492 817 511 817 q 454 849 454 817 q 547 971 454 881 q 757 1143 639 1062 q 803 1166 783 1160 q 868 1171 823 1171 q 945 1132 912 1171 z "},"":{"ha":1273,"x_min":55,"x_max":1404,"o":"m 534 145 q 747 340 661 145 q 786 486 786 430 q 767 562 786 541 q 694 583 749 583 q 576 533 640 583 q 474 406 513 482 q 435 268 435 329 q 463 176 435 206 q 534 145 490 145 m 886 720 l 1197 705 q 1223 695 1215 705 q 1232 671 1232 684 q 1191 514 1232 622 q 1109 299 1150 406 q 1068 159 1068 193 q 1079 115 1068 125 q 1119 106 1089 106 q 1228 135 1149 106 q 1335 178 1307 163 q 1378 193 1363 193 q 1404 170 1404 193 q 1201 38 1404 119 q 1036 -8 1133 10 q 840 -27 939 -27 q 640 79 673 -27 q 355 -27 534 -27 q 147 32 232 -27 q 55 235 55 96 q 141 503 55 380 q 393 691 235 640 q 581 720 481 720 q 821 644 735 720 q 821 656 821 648 l 821 686 q 886 720 821 720 m 488 876 q 441 909 441 876 q 459 951 441 930 q 492 989 476 971 q 699 1105 600 1105 q 854 1063 770 1105 q 987 1021 939 1021 q 1063 1050 1006 1021 q 1142 1079 1120 1079 q 1192 1046 1192 1079 q 1141 966 1192 1020 q 934 848 1034 848 q 832 870 886 848 q 728 912 777 891 q 653 934 680 934 q 570 905 627 934 q 488 876 513 876 z "},"":{"ha":1273,"x_min":55,"x_max":1404,"o":"m 534 145 q 747 340 661 145 q 786 486 786 430 q 767 562 786 541 q 694 583 749 583 q 576 533 640 583 q 474 406 513 482 q 435 268 435 329 q 463 176 435 206 q 534 145 490 145 m 886 720 l 1197 705 q 1223 695 1215 705 q 1232 671 1232 684 q 1191 514 1232 622 q 1109 299 1150 406 q 1068 159 1068 193 q 1079 115 1068 125 q 1119 106 1089 106 q 1228 135 1149 106 q 1335 178 1307 163 q 1378 193 1363 193 q 1404 170 1404 193 q 1201 38 1404 119 q 1036 -8 1133 10 q 840 -27 939 -27 q 640 79 673 -27 q 355 -27 534 -27 q 147 32 232 -27 q 55 235 55 96 q 141 503 55 380 q 393 691 235 640 q 581 720 481 720 q 821 644 735 720 q 821 656 821 648 l 821 686 q 886 720 821 720 m 768 981 q 698 871 768 918 q 550 825 628 825 q 430 856 473 825 q 387 933 387 888 q 420 1016 387 979 q 506 1074 453 1053 q 620 1095 558 1095 q 725 1062 682 1095 q 768 981 768 1029 m 1223 903 q 1138 846 1191 867 q 1023 825 1086 825 q 918 856 961 825 q 875 933 875 888 q 908 1016 875 979 q 994 1074 941 1053 q 1108 1095 1046 1095 q 1214 1062 1171 1095 q 1257 984 1257 1029 q 1223 903 1257 939 z "},"":{"ha":1273,"x_min":55,"x_max":1404,"o":"m 534 145 q 747 340 661 145 q 786 486 786 430 q 767 562 786 541 q 694 583 749 583 q 576 533 640 583 q 474 406 513 482 q 435 268 435 329 q 463 176 435 206 q 534 145 490 145 m 886 720 l 1197 705 q 1223 695 1215 705 q 1232 671 1232 684 q 1191 514 1232 622 q 1109 299 1150 406 q 1068 159 1068 193 q 1079 115 1068 125 q 1119 106 1089 106 q 1228 135 1149 106 q 1335 178 1307 163 q 1378 193 1363 193 q 1404 170 1404 193 q 1201 38 1404 119 q 1036 -8 1133 10 q 840 -27 939 -27 q 640 79 673 -27 q 355 -27 534 -27 q 147 32 232 -27 q 55 235 55 96 q 141 503 55 380 q 393 691 235 640 q 581 720 481 720 q 821 644 735 720 q 821 656 821 648 l 821 686 q 886 720 821 720 m 951 973 q 928 1023 951 1005 q 866 1042 904 1042 q 797 1033 828 1042 q 744 1002 766 1025 q 721 943 721 979 q 749 886 721 907 q 825 866 777 866 q 913 894 874 866 q 951 973 951 922 m 867 1137 q 1121 985 1121 1137 q 1030 840 1121 899 q 808 781 939 781 q 553 928 553 781 q 643 1078 553 1019 q 867 1137 732 1137 z "},"":{"ha":1732,"x_min":55,"x_max":1860,"o":"m 842 681 l 841 706 q 907 740 841 740 q 1035 720 937 740 q 1177 699 1133 699 q 1370 720 1271 720 q 1618 666 1538 720 q 1699 519 1699 612 q 1622 361 1699 422 q 1417 271 1545 300 q 1124 229 1289 241 q 1275 98 1135 123 q 1350 92 1310 92 q 1808 187 1509 92 q 1836 193 1826 193 q 1860 170 1860 193 q 1827 131 1860 149 q 1748 91 1795 112 q 1617 40 1700 69 q 1183 -27 1425 -27 q 833 65 924 -27 q 777 176 791 109 q 589 15 681 58 q 388 -27 501 -27 q 157 24 233 -27 q 55 245 55 94 q 98 419 55 336 q 216 563 140 501 q 403 662 292 625 q 644 699 514 699 q 737 689 711 699 q 763 661 763 680 q 747 630 763 642 q 672 593 730 618 q 505 458 575 552 q 435 256 435 363 q 463 176 435 206 q 534 145 490 145 q 681 219 610 145 q 797 418 752 293 q 842 681 842 543 m 1124 303 q 1311 403 1242 336 q 1379 565 1379 470 q 1363 605 1379 590 q 1314 620 1347 620 q 1245 591 1281 620 q 1185 517 1210 563 q 1124 303 1134 421 z "},"":{"ha":1042,"x_min":50,"x_max":1174,"o":"m 469 443 q 438 290 438 359 q 452 185 438 220 q 495 133 467 151 q 879 126 592 72 q 1077 173 1015 152 q 1150 193 1139 193 q 1174 170 1174 193 q 1138 123 1174 147 q 870 17 1043 62 q 484 -27 697 -27 q 160 49 271 -27 q 50 259 50 125 q 84 416 50 342 q 180 545 119 490 q 321 640 241 600 q 688 720 483 720 q 1023 665 926 720 q 1034 632 1034 656 q 1013 552 1034 608 q 957 449 991 496 q 895 401 923 401 q 849 432 866 401 q 821 482 832 463 q 789 528 809 501 q 750 568 768 554 q 707 591 732 581 q 644 602 681 602 q 570 579 607 602 q 509 523 533 557 q 469 443 486 488 m 650 -76 q 771 -116 726 -76 q 817 -222 817 -157 q 786 -328 817 -287 q 594 -407 727 -407 q 345 -338 461 -407 q 293 -299 310 -317 q 275 -260 275 -280 q 311 -220 275 -220 q 355 -237 326 -220 q 442 -273 384 -254 q 539 -292 500 -292 q 599 -274 578 -292 q 619 -229 619 -257 q 600 -185 619 -201 q 535 -168 580 -168 q 467 -161 491 -168 q 444 -129 444 -154 q 476 -37 444 -103 q 548 68 508 30 l 597 44 l 558 -87 q 650 -76 610 -76 z "},"":{"ha":1042,"x_min":39,"x_max":1174,"o":"m 1150 193 q 1174 171 1174 193 q 1142 131 1174 149 q 1062 91 1109 112 q 931 40 1015 69 q 498 -27 739 -27 q 39 255 39 -27 q 126 499 39 393 q 360 663 214 606 q 680 720 507 720 q 933 666 852 720 q 1013 519 1013 612 q 936 361 1013 422 q 732 271 859 300 q 438 229 604 241 q 589 98 449 123 q 665 92 625 92 q 1122 187 823 92 q 1150 193 1141 193 m 439 303 q 625 403 557 336 q 694 565 694 470 q 677 605 694 590 q 628 620 661 620 q 560 591 595 620 q 500 517 524 563 q 439 303 448 421 m 544 1164 q 705 1046 625 1118 q 832 915 785 975 q 878 837 878 856 q 870 810 878 818 q 853 802 861 802 q 737 848 846 802 q 473 947 628 895 q 385 1036 385 977 q 430 1124 385 1080 q 519 1168 475 1168 q 544 1164 535 1168 z "},"":{"ha":1042,"x_min":39,"x_max":1174,"o":"m 1150 193 q 1174 171 1174 193 q 1142 131 1174 149 q 1062 91 1109 112 q 931 40 1015 69 q 498 -27 739 -27 q 39 255 39 -27 q 126 499 39 393 q 360 663 214 606 q 680 720 507 720 q 933 666 852 720 q 1013 519 1013 612 q 936 361 1013 422 q 732 271 859 300 q 438 229 604 241 q 589 98 449 123 q 665 92 625 92 q 1122 187 823 92 q 1150 193 1141 193 m 439 303 q 625 403 557 336 q 694 565 694 470 q 677 605 694 590 q 628 620 661 620 q 560 591 595 620 q 500 517 524 563 q 439 303 448 421 m 780 1161 q 814 1168 794 1168 q 912 1131 863 1168 q 961 1051 961 1093 q 885 974 961 1001 q 498 814 656 890 q 452 802 471 802 q 425 827 425 802 q 472 910 425 852 q 605 1041 519 968 q 780 1161 690 1113 z "},"":{"ha":1042,"x_min":39,"x_max":1174,"o":"m 1150 193 q 1174 171 1174 193 q 1142 131 1174 149 q 1062 91 1109 112 q 931 40 1015 69 q 498 -27 739 -27 q 39 255 39 -27 q 126 499 39 393 q 360 663 214 606 q 680 720 507 720 q 933 666 852 720 q 1013 519 1013 612 q 936 361 1013 422 q 732 271 859 300 q 438 229 604 241 q 589 98 449 123 q 665 92 625 92 q 1122 187 823 92 q 1150 193 1141 193 m 439 303 q 625 403 557 336 q 694 565 694 470 q 677 605 694 590 q 628 620 661 620 q 560 591 595 620 q 500 517 524 563 q 439 303 448 421 m 829 1132 q 1023 841 1023 902 q 994 812 1023 812 q 927 838 964 812 q 711 977 822 909 q 433 838 596 925 q 377 817 396 817 q 339 849 339 817 q 431 971 339 881 q 642 1143 524 1062 q 688 1166 667 1160 q 752 1171 708 1171 q 829 1132 797 1171 z "},"":{"ha":1042,"x_min":39,"x_max":1174,"o":"m 1150 193 q 1174 171 1174 193 q 1142 131 1174 149 q 1062 91 1109 112 q 931 40 1015 69 q 498 -27 739 -27 q 39 255 39 -27 q 126 499 39 393 q 360 663 214 606 q 680 720 507 720 q 933 666 852 720 q 1013 519 1013 612 q 936 361 1013 422 q 732 271 859 300 q 438 229 604 241 q 589 98 449 123 q 665 92 625 92 q 1122 187 823 92 q 1150 193 1141 193 m 439 303 q 625 403 557 336 q 694 565 694 470 q 677 605 694 590 q 628 620 661 620 q 560 591 595 620 q 500 517 524 563 q 439 303 448 421 m 653 981 q 583 871 653 918 q 435 825 513 825 q 314 856 357 825 q 271 933 271 888 q 304 1016 271 979 q 390 1074 338 1053 q 505 1095 443 1095 q 610 1062 567 1095 q 653 981 653 1029 m 1108 903 q 1023 846 1076 867 q 908 825 970 825 q 803 856 846 825 q 760 933 760 888 q 793 1016 760 979 q 879 1074 826 1053 q 993 1095 931 1095 q 1098 1062 1055 1095 q 1141 984 1141 1029 q 1108 903 1141 939 z "},"":{"ha":696,"x_min":45,"x_max":842,"o":"m 523 115 q 648 137 569 115 q 763 176 727 159 q 813 193 799 193 q 842 165 842 193 q 821 136 842 152 q 572 28 751 84 q 251 -27 392 -27 q 104 1 163 -27 q 45 85 45 28 q 104 255 45 120 q 216 640 216 511 l 215 666 q 281 700 215 700 l 616 707 q 642 697 633 707 q 651 673 651 686 q 608 519 651 627 q 523 308 566 412 q 480 159 480 204 q 523 115 480 115 m 364 1164 q 525 1046 445 1118 q 652 915 606 975 q 699 837 699 856 q 690 810 699 818 q 674 802 682 802 q 557 848 666 802 q 294 947 448 895 q 205 1036 205 977 q 250 1124 205 1080 q 339 1168 296 1168 q 364 1164 355 1168 z "},"":{"ha":696,"x_min":45,"x_max":842,"o":"m 523 115 q 648 137 569 115 q 763 176 727 159 q 813 193 799 193 q 842 165 842 193 q 821 136 842 152 q 572 28 751 84 q 251 -27 392 -27 q 104 1 163 -27 q 45 85 45 28 q 104 255 45 120 q 216 640 216 511 l 215 666 q 281 700 215 700 l 616 707 q 642 697 633 707 q 651 673 651 686 q 608 519 651 627 q 523 308 566 412 q 480 159 480 204 q 523 115 480 115 m 577 1161 q 612 1168 591 1168 q 709 1131 660 1168 q 758 1051 758 1093 q 682 974 758 1001 q 295 814 454 890 q 250 802 269 802 q 222 827 222 802 q 269 910 222 852 q 402 1041 317 968 q 577 1161 488 1113 z "},"":{"ha":696,"x_min":45,"x_max":842,"o":"m 523 115 q 648 137 569 115 q 763 176 727 159 q 813 193 799 193 q 842 165 842 193 q 821 136 842 152 q 572 28 751 84 q 251 -27 392 -27 q 104 1 163 -27 q 45 85 45 28 q 104 255 45 120 q 216 640 216 511 l 215 666 q 281 700 215 700 l 616 707 q 642 697 633 707 q 651 673 651 686 q 608 519 651 627 q 523 308 566 412 q 480 159 480 204 q 523 115 480 115 m 627 1132 q 821 841 821 902 q 791 812 821 812 q 724 838 762 812 q 508 977 619 909 q 231 838 393 925 q 174 817 193 817 q 136 849 136 817 q 229 971 136 881 q 439 1143 321 1062 q 485 1166 465 1160 q 549 1171 505 1171 q 627 1132 594 1171 z "},"":{"ha":696,"x_min":45,"x_max":939,"o":"m 523 115 q 648 137 569 115 q 763 176 727 159 q 813 193 799 193 q 842 165 842 193 q 821 136 842 152 q 572 28 751 84 q 251 -27 392 -27 q 104 1 163 -27 q 45 85 45 28 q 104 255 45 120 q 216 640 216 511 l 215 666 q 281 700 215 700 l 616 707 q 642 697 633 707 q 651 673 651 686 q 608 519 651 627 q 523 308 566 412 q 480 159 480 204 q 523 115 480 115 m 450 981 q 380 871 450 918 q 232 825 310 825 q 112 856 155 825 q 68 933 68 888 q 102 1016 68 979 q 188 1074 135 1053 q 302 1095 240 1095 q 407 1062 364 1095 q 450 981 450 1029 m 905 903 q 820 846 873 867 q 705 825 768 825 q 600 856 643 825 q 557 933 557 888 q 590 1016 557 979 q 676 1074 623 1053 q 790 1095 728 1095 q 896 1062 852 1095 q 939 984 939 1029 q 905 903 939 939 z "},"":{"ha":1273,"x_min":58,"x_max":1398,"o":"m 464 897 l 602 971 q 389 1040 516 1025 q 352 1070 352 1045 q 407 1109 352 1102 q 570 1117 461 1117 q 794 1082 678 1117 l 989 1175 q 1001 1177 994 1177 q 1039 1152 1022 1177 q 1057 1100 1057 1127 q 1034 1063 1057 1072 l 936 1022 q 1132 830 1062 949 q 1201 564 1201 711 q 996 113 1201 274 q 1333 184 1222 145 q 1371 193 1356 193 q 1398 171 1398 193 q 1374 133 1398 149 q 1080 36 1301 83 q 641 -22 859 -10 q 530 -27 588 -27 q 409 -19 471 -27 q 280 13 346 -10 q 167 71 215 35 q 89 165 119 106 q 58 299 58 224 q 88 440 58 374 q 171 556 117 507 q 296 642 224 606 q 636 713 440 713 q 768 707 726 713 q 688 895 748 819 l 504 807 q 480 804 498 804 q 449 815 463 804 q 435 853 435 826 q 464 897 435 881 m 780 602 q 744 605 757 605 q 618 573 677 605 q 522 488 560 541 q 441 246 441 378 q 559 97 441 97 q 649 138 607 97 q 720 243 692 178 q 765 387 748 308 q 781 514 781 466 q 780 602 781 563 z "},"":{"ha":1275,"x_min":10,"x_max":1407,"o":"m 1381 193 q 1407 170 1407 193 q 1382 129 1407 146 q 1309 89 1357 111 q 1189 39 1261 66 q 1024 -8 1118 12 q 844 -27 930 -27 q 643 65 643 -27 q 711 278 643 125 q 779 486 779 432 q 685 546 779 546 q 588 535 642 546 q 496 246 562 444 q 421 21 430 48 q 385 -6 413 -6 l 36 -14 q 19 -4 28 -14 q 10 17 10 5 q 39 106 10 30 q 103 270 68 182 q 166 464 138 358 q 195 638 195 569 l 195 664 q 260 698 195 698 l 582 705 q 608 695 600 705 q 617 669 617 684 q 610 620 617 654 q 1002 720 848 720 q 1120 684 1067 720 q 1180 562 1180 644 q 1117 344 1180 479 q 1054 177 1054 209 q 1104 114 1054 114 q 1213 138 1136 114 q 1327 178 1290 162 q 1381 193 1364 193 m 488 876 q 441 909 441 876 q 459 951 441 930 q 492 989 476 971 q 699 1105 600 1105 q 854 1063 770 1105 q 987 1021 939 1021 q 1063 1050 1006 1021 q 1142 1079 1120 1079 q 1192 1046 1192 1079 q 1141 966 1192 1020 q 934 848 1034 848 q 832 870 886 848 q 728 912 777 891 q 653 934 680 934 q 570 905 627 934 q 488 876 513 876 z "},"":{"ha":1158,"x_min":43,"x_max":1406,"o":"m 170 45 q 43 278 43 122 q 76 431 43 359 q 169 555 110 503 q 305 644 227 607 q 663 720 461 720 q 1090 469 1059 720 q 1188 453 1138 453 q 1273 460 1239 453 q 1337 483 1307 468 q 1380 498 1367 498 q 1406 473 1406 498 q 1366 420 1406 448 q 1166 369 1291 369 q 1090 374 1120 369 q 914 90 1069 203 q 733 4 840 35 q 510 -27 625 -27 q 313 -9 395 -27 q 170 45 231 9 m 416 218 q 508 93 416 93 q 617 157 566 93 q 695 315 667 220 q 724 507 724 409 q 655 605 724 605 q 539 549 595 605 q 450 402 484 492 q 416 218 416 313 m 576 1164 q 738 1046 657 1118 q 864 915 818 975 q 911 837 911 856 q 902 810 911 818 q 886 802 894 802 q 769 848 878 802 q 506 947 661 895 q 417 1036 417 977 q 463 1124 417 1080 q 551 1168 508 1168 q 576 1164 568 1168 z "},"":{"ha":1158,"x_min":43,"x_max":1406,"o":"m 170 45 q 43 278 43 122 q 76 431 43 359 q 169 555 110 503 q 305 644 227 607 q 663 720 461 720 q 1090 469 1059 720 q 1188 453 1138 453 q 1273 460 1239 453 q 1337 483 1307 468 q 1380 498 1367 498 q 1406 473 1406 498 q 1366 420 1406 448 q 1166 369 1291 369 q 1090 374 1120 369 q 914 90 1069 203 q 733 4 840 35 q 510 -27 625 -27 q 313 -9 395 -27 q 170 45 231 9 m 416 218 q 508 93 416 93 q 617 157 566 93 q 695 315 667 220 q 724 507 724 409 q 655 605 724 605 q 539 549 595 605 q 450 402 484 492 q 416 218 416 313 m 812 1161 q 847 1168 827 1168 q 944 1131 895 1168 q 994 1051 994 1093 q 918 974 994 1001 q 530 814 689 890 q 485 802 504 802 q 457 827 457 802 q 505 910 457 852 q 637 1041 552 968 q 812 1161 723 1113 z "},"":{"ha":1158,"x_min":43,"x_max":1406,"o":"m 170 45 q 43 278 43 122 q 76 431 43 359 q 169 555 110 503 q 305 644 227 607 q 663 720 461 720 q 1090 469 1059 720 q 1188 453 1138 453 q 1273 460 1239 453 q 1337 483 1307 468 q 1380 498 1367 498 q 1406 473 1406 498 q 1366 420 1406 448 q 1166 369 1291 369 q 1090 374 1120 369 q 914 90 1069 203 q 733 4 840 35 q 510 -27 625 -27 q 313 -9 395 -27 q 170 45 231 9 m 416 218 q 508 93 416 93 q 617 157 566 93 q 695 315 667 220 q 724 507 724 409 q 655 605 724 605 q 539 549 595 605 q 450 402 484 492 q 416 218 416 313 m 862 1132 q 1056 841 1056 902 q 1026 812 1056 812 q 960 838 997 812 q 743 977 854 909 q 466 838 629 925 q 410 817 429 817 q 372 849 372 817 q 464 971 372 881 q 674 1143 556 1062 q 720 1166 700 1160 q 785 1171 741 1171 q 862 1132 829 1171 z "},"":{"ha":1158,"x_min":43,"x_max":1406,"o":"m 170 45 q 43 278 43 122 q 76 431 43 359 q 169 555 110 503 q 305 644 227 607 q 663 720 461 720 q 1090 469 1059 720 q 1188 453 1138 453 q 1273 460 1239 453 q 1337 483 1307 468 q 1380 498 1367 498 q 1406 473 1406 498 q 1366 420 1406 448 q 1166 369 1291 369 q 1090 374 1120 369 q 914 90 1069 203 q 733 4 840 35 q 510 -27 625 -27 q 313 -9 395 -27 q 170 45 231 9 m 416 218 q 508 93 416 93 q 617 157 566 93 q 695 315 667 220 q 724 507 724 409 q 655 605 724 605 q 539 549 595 605 q 450 402 484 492 q 416 218 416 313 m 406 876 q 359 909 359 876 q 376 951 359 930 q 410 989 393 971 q 616 1105 517 1105 q 772 1063 687 1105 q 905 1021 857 1021 q 980 1050 924 1021 q 1059 1079 1037 1079 q 1109 1046 1109 1079 q 1058 966 1109 1020 q 851 848 951 848 q 749 870 804 848 q 646 912 694 891 q 570 934 597 934 q 487 905 544 934 q 406 876 431 876 z "},"":{"ha":1158,"x_min":43,"x_max":1406,"o":"m 170 45 q 43 278 43 122 q 76 431 43 359 q 169 555 110 503 q 305 644 227 607 q 663 720 461 720 q 1090 469 1059 720 q 1188 453 1138 453 q 1273 460 1239 453 q 1337 483 1307 468 q 1380 498 1367 498 q 1406 473 1406 498 q 1366 420 1406 448 q 1166 369 1291 369 q 1090 374 1120 369 q 914 90 1069 203 q 733 4 840 35 q 510 -27 625 -27 q 313 -9 395 -27 q 170 45 231 9 m 416 218 q 508 93 416 93 q 617 157 566 93 q 695 315 667 220 q 724 507 724 409 q 655 605 724 605 q 539 549 595 605 q 450 402 484 492 q 416 218 416 313 m 686 981 q 615 871 686 918 q 468 825 545 825 q 347 856 390 825 q 304 933 304 888 q 337 1016 304 979 q 423 1074 370 1053 q 537 1095 475 1095 q 643 1062 600 1095 q 686 981 686 1029 m 1141 903 q 1056 846 1108 867 q 941 825 1003 825 q 835 856 878 825 q 792 933 792 888 q 825 1016 792 979 q 911 1074 859 1053 q 1026 1095 964 1095 q 1131 1062 1088 1095 q 1174 984 1174 1029 q 1141 903 1174 939 z "},"":{"ha":1003,"x_min":165,"x_max":878,"o":"m 200 322 q 165 362 165 322 q 176 438 165 422 q 232 472 198 469 q 319 476 267 476 l 603 470 l 843 477 q 878 437 878 477 q 867 361 878 377 q 811 327 845 330 q 724 323 777 323 l 440 329 l 200 322 m 747 658 q 688 573 747 612 q 566 534 630 534 q 466 560 502 534 q 430 633 430 587 q 489 719 430 680 q 611 759 547 759 q 711 731 675 759 q 747 658 747 704 m 631 164 q 573 79 631 118 q 451 40 515 40 q 351 66 387 40 q 315 139 315 93 q 373 225 315 186 q 496 265 432 265 q 596 238 560 265 q 631 164 631 210 z "},"":{"ha":1158,"x_min":-53,"x_max":1406,"o":"m 189 187 l 222 78 q 115 -1 180 50 q 1 -77 18 -77 q -34 -48 -16 -77 q -53 13 -53 -19 q -27 61 -53 44 q 76 121 -1 78 q 189 187 153 164 m 888 627 q 1000 708 930 654 q 1114 786 1100 786 q 1147 754 1128 786 q 1166 692 1166 722 q 1137 643 1166 662 q 1037 586 1108 625 q 921 517 966 547 l 888 627 m 170 45 q 43 278 43 122 q 76 431 43 359 q 169 555 110 503 q 305 644 227 607 q 663 720 461 720 q 1090 469 1059 720 q 1188 453 1138 453 q 1273 460 1239 453 q 1337 483 1307 468 q 1380 498 1367 498 q 1406 473 1406 498 q 1366 420 1406 448 q 1166 369 1291 369 q 1090 374 1120 369 q 914 90 1069 203 q 733 4 840 35 q 510 -27 625 -27 q 313 -9 395 -27 q 170 45 231 9 m 416 218 q 508 93 416 93 q 617 157 566 93 q 695 315 667 220 q 724 507 724 409 q 655 605 724 605 q 539 549 595 605 q 450 402 484 492 q 416 218 416 313 z "},"":{"ha":1275,"x_min":68,"x_max":1407,"o":"m 275 698 l 581 705 q 608 695 599 705 q 616 664 616 684 q 579 556 616 643 q 503 373 541 470 q 465 231 465 275 q 555 146 465 146 q 648 157 597 146 q 703 310 665 215 q 819 672 799 548 q 854 697 822 697 q 1061 701 953 697 q 1186 705 1170 705 q 1212 696 1203 705 q 1221 679 1221 687 q 1179 541 1221 646 q 1095 324 1137 436 q 1053 160 1053 212 q 1099 109 1053 109 q 1226 133 1145 109 q 1339 176 1307 158 q 1381 193 1371 193 q 1407 169 1407 193 q 1370 122 1407 144 q 1283 78 1334 100 q 1160 30 1232 55 q 823 -27 994 -27 q 629 65 651 -27 q 522 23 564 38 q 405 -10 479 7 q 268 -27 330 -27 q 68 136 68 -27 q 90 272 68 192 q 138 418 112 353 q 208 632 208 591 q 220 686 208 674 q 275 698 233 698 m 631 1164 q 792 1046 712 1118 q 919 915 873 975 q 966 837 966 856 q 957 810 966 818 q 941 802 949 802 q 824 848 933 802 q 561 947 715 895 q 472 1036 472 977 q 517 1124 472 1080 q 606 1168 563 1168 q 631 1164 623 1168 z "},"":{"ha":1275,"x_min":68,"x_max":1407,"o":"m 275 698 l 581 705 q 608 695 599 705 q 616 664 616 684 q 579 556 616 643 q 503 373 541 470 q 465 231 465 275 q 555 146 465 146 q 648 157 597 146 q 703 310 665 215 q 819 672 799 548 q 854 697 822 697 q 1061 701 953 697 q 1186 705 1170 705 q 1212 696 1203 705 q 1221 679 1221 687 q 1179 541 1221 646 q 1095 324 1137 436 q 1053 160 1053 212 q 1099 109 1053 109 q 1226 133 1145 109 q 1339 176 1307 158 q 1381 193 1371 193 q 1407 169 1407 193 q 1370 122 1407 144 q 1283 78 1334 100 q 1160 30 1232 55 q 823 -27 994 -27 q 629 65 651 -27 q 522 23 564 38 q 405 -10 479 7 q 268 -27 330 -27 q 68 136 68 -27 q 90 272 68 192 q 138 418 112 353 q 208 632 208 591 q 220 686 208 674 q 275 698 233 698 m 867 1161 q 902 1168 882 1168 q 999 1131 950 1168 q 1048 1051 1048 1093 q 972 974 1048 1001 q 585 814 744 890 q 540 802 559 802 q 512 827 512 802 q 559 910 512 852 q 692 1041 607 968 q 867 1161 778 1113 z "},"":{"ha":1275,"x_min":68,"x_max":1407,"o":"m 275 698 l 581 705 q 608 695 599 705 q 616 664 616 684 q 579 556 616 643 q 503 373 541 470 q 465 231 465 275 q 555 146 465 146 q 648 157 597 146 q 703 310 665 215 q 819 672 799 548 q 854 697 822 697 q 1061 701 953 697 q 1186 705 1170 705 q 1212 696 1203 705 q 1221 679 1221 687 q 1179 541 1221 646 q 1095 324 1137 436 q 1053 160 1053 212 q 1099 109 1053 109 q 1226 133 1145 109 q 1339 176 1307 158 q 1381 193 1371 193 q 1407 169 1407 193 q 1370 122 1407 144 q 1283 78 1334 100 q 1160 30 1232 55 q 823 -27 994 -27 q 629 65 651 -27 q 522 23 564 38 q 405 -10 479 7 q 268 -27 330 -27 q 68 136 68 -27 q 90 272 68 192 q 138 418 112 353 q 208 632 208 591 q 220 686 208 674 q 275 698 233 698 m 917 1132 q 1111 841 1111 902 q 1081 812 1111 812 q 1015 838 1052 812 q 798 977 909 909 q 521 838 684 925 q 465 817 484 817 q 427 849 427 817 q 519 971 427 881 q 729 1143 611 1062 q 775 1166 755 1160 q 840 1171 795 1171 q 917 1132 884 1171 z "},"":{"ha":1275,"x_min":68,"x_max":1407,"o":"m 275 698 l 581 705 q 608 695 599 705 q 616 664 616 684 q 579 556 616 643 q 503 373 541 470 q 465 231 465 275 q 555 146 465 146 q 648 157 597 146 q 703 310 665 215 q 819 672 799 548 q 854 697 822 697 q 1061 701 953 697 q 1186 705 1170 705 q 1212 696 1203 705 q 1221 679 1221 687 q 1179 541 1221 646 q 1095 324 1137 436 q 1053 160 1053 212 q 1099 109 1053 109 q 1226 133 1145 109 q 1339 176 1307 158 q 1381 193 1371 193 q 1407 169 1407 193 q 1370 122 1407 144 q 1283 78 1334 100 q 1160 30 1232 55 q 823 -27 994 -27 q 629 65 651 -27 q 522 23 564 38 q 405 -10 479 7 q 268 -27 330 -27 q 68 136 68 -27 q 90 272 68 192 q 138 418 112 353 q 208 632 208 591 q 220 686 208 674 q 275 698 233 698 m 741 981 q 670 871 741 918 q 523 825 600 825 q 402 856 445 825 q 359 933 359 888 q 392 1016 359 979 q 478 1074 425 1053 q 592 1095 530 1095 q 697 1062 654 1095 q 741 981 741 1029 m 1196 903 q 1111 846 1163 867 q 996 825 1058 825 q 890 856 933 825 q 847 933 847 888 q 880 1016 847 979 q 966 1074 913 1053 q 1081 1095 1019 1095 q 1186 1062 1143 1095 q 1229 984 1229 1029 q 1196 903 1229 939 z "},"":{"ha":1273,"x_min":0,"x_max":1404,"o":"m 1379 193 q 1404 170 1404 193 q 1231 52 1404 125 q 992 -21 1122 7 q 963 -101 976 -66 q 916 -180 950 -136 q 835 -252 882 -223 q 735 -301 789 -281 q 616 -332 682 -321 q 335 -353 496 -353 q 87 -317 174 -353 q 0 -213 0 -281 q 34 -142 0 -174 q 122 -88 68 -110 q 262 -49 177 -66 q 625 -1 406 -20 q 651 100 643 60 q 289 27 454 27 q 68 173 68 27 q 130 426 68 275 q 191 638 191 577 l 191 664 q 256 698 191 698 l 414 695 l 557 705 q 584 695 575 705 q 593 658 593 684 q 573 567 593 632 q 529 446 553 503 q 465 243 465 295 q 486 197 465 213 q 543 182 508 182 q 682 223 618 182 q 816 659 755 419 q 852 684 822 684 q 1063 695 950 684 q 1192 705 1175 705 q 1218 697 1208 705 q 1227 682 1227 689 q 1025 71 1227 652 q 1212 127 1125 94 q 1330 177 1298 160 q 1379 193 1361 193 m 566 -172 q 600 -78 586 -122 q 295 -219 295 -117 q 322 -269 295 -245 q 378 -292 350 -292 q 493 -261 439 -292 q 566 -172 547 -229 m 843 1161 q 878 1168 857 1168 q 975 1131 926 1168 q 1024 1051 1024 1093 q 948 974 1024 1001 q 561 814 720 890 q 515 802 534 802 q 488 827 488 802 q 535 910 488 852 q 668 1041 583 968 q 843 1161 753 1113 z "},"":{"ha":1273,"x_min":-72,"x_max":1404,"o":"m 531 1004 l 667 1006 q 694 996 685 1006 q 703 965 703 985 q 682 878 703 945 q 578 577 658 792 q 912 720 704 720 q 1112 655 1039 720 q 1185 471 1185 590 q 1004 94 1185 241 q 1326 172 1214 109 q 1381 193 1364 193 q 1404 168 1404 193 q 1379 132 1404 151 q 1083 13 1264 52 q 692 -26 901 -26 q 654 -27 667 -27 q 515 -7 585 -27 q 397 50 446 14 q 388 47 390 47 q 344 -275 344 -94 l 345 -294 q 279 -328 345 -328 l -37 -336 q -62 -327 -53 -336 q -72 -304 -72 -317 q -22 -85 -72 -245 q 112 302 28 74 q 222 606 196 531 q 293 902 293 809 l 288 970 q 354 1004 288 1004 l 531 1004 m 712 547 q 499 352 585 547 q 460 207 460 262 q 478 130 460 151 q 552 109 497 109 q 670 160 606 109 q 772 287 733 210 q 810 425 810 363 q 783 517 810 486 q 712 547 756 547 z "},"":{"ha":1273,"x_min":0,"x_max":1404,"o":"m 1379 193 q 1404 170 1404 193 q 1231 52 1404 125 q 992 -21 1122 7 q 963 -101 976 -66 q 916 -180 950 -136 q 835 -252 882 -223 q 735 -301 789 -281 q 616 -332 682 -321 q 335 -353 496 -353 q 87 -317 174 -353 q 0 -213 0 -281 q 34 -142 0 -174 q 122 -88 68 -110 q 262 -49 177 -66 q 625 -1 406 -20 q 651 100 643 60 q 289 27 454 27 q 68 173 68 27 q 130 426 68 275 q 191 638 191 577 l 191 664 q 256 698 191 698 l 414 695 l 557 705 q 584 695 575 705 q 593 658 593 684 q 573 567 593 632 q 529 446 553 503 q 465 243 465 295 q 486 197 465 213 q 543 182 508 182 q 682 223 618 182 q 816 659 755 419 q 852 684 822 684 q 1063 695 950 684 q 1192 705 1175 705 q 1218 697 1208 705 q 1227 682 1227 689 q 1025 71 1227 652 q 1212 127 1125 94 q 1330 177 1298 160 q 1379 193 1361 193 m 566 -172 q 600 -78 586 -122 q 295 -219 295 -117 q 322 -269 295 -245 q 378 -292 350 -292 q 493 -261 439 -292 q 566 -172 547 -229 m 716 981 q 646 871 716 918 q 498 825 576 825 q 377 856 420 825 q 334 933 334 888 q 368 1016 334 979 q 453 1074 401 1053 q 568 1095 506 1095 q 673 1062 630 1095 q 716 981 716 1029 m 1171 903 q 1086 846 1139 867 q 971 825 1034 825 q 866 856 909 825 q 823 933 823 888 q 856 1016 823 979 q 942 1074 889 1053 q 1056 1095 994 1095 q 1161 1062 1118 1095 q 1204 984 1204 1029 q 1171 903 1204 939 z "},"":{"ha":1275,"x_min":-23,"x_max":1263,"o":"m 802 -27 q 576 123 576 -27 q 684 464 576 208 q 792 819 792 720 q 751 898 792 875 q 632 922 710 922 q 475 908 555 922 q 372 895 395 895 q 349 915 349 895 q 445 985 349 941 q 850 1069 629 1069 q 1112 1006 1025 1069 q 1199 801 1199 943 q 1169 590 1199 717 q 1110 353 1139 464 q 1080 200 1080 241 q 1096 142 1080 159 q 1172 122 1116 122 q 1211 115 1206 122 q 1215 99 1215 107 q 1187 48 1215 68 q 802 -27 1079 -27 m 408 464 l 581 468 q 629 440 629 468 q 606 409 629 420 q 335 358 528 369 q 280 168 280 250 q 290 100 280 131 q 299 56 299 69 q 254 7 299 20 q 120 -5 208 -5 q 5 11 33 -5 q -23 67 -23 26 q 21 235 -23 143 q 135 410 66 326 q 288 574 204 494 q 452 713 372 655 q 692 844 628 844 q 721 827 721 844 q 692 787 721 809 q 548 653 632 743 q 398 464 464 563 l 408 464 m 923 1172 l 650 1158 q 629 1176 638 1158 q 620 1227 620 1194 q 640 1291 620 1260 q 684 1322 661 1322 l 966 1308 l 1240 1322 q 1257 1304 1251 1322 q 1263 1253 1263 1286 q 1243 1189 1263 1220 q 1192 1158 1223 1158 q 1069 1165 1160 1158 q 923 1172 977 1172 z "},"":{"ha":1273,"x_min":55,"x_max":1404,"o":"m 534 145 q 747 340 661 145 q 786 486 786 430 q 767 562 786 541 q 694 583 749 583 q 576 533 640 583 q 474 406 513 482 q 435 268 435 329 q 463 176 435 206 q 534 145 490 145 m 886 720 l 1197 705 q 1223 695 1215 705 q 1232 671 1232 684 q 1191 514 1232 622 q 1109 299 1150 406 q 1068 159 1068 193 q 1079 115 1068 125 q 1119 106 1089 106 q 1228 135 1149 106 q 1335 178 1307 163 q 1378 193 1363 193 q 1404 170 1404 193 q 1201 38 1404 119 q 1036 -8 1133 10 q 840 -27 939 -27 q 640 79 673 -27 q 355 -27 534 -27 q 147 32 232 -27 q 55 235 55 96 q 141 503 55 380 q 393 691 235 640 q 581 720 481 720 q 821 644 735 720 q 821 656 821 648 l 821 686 q 886 720 821 720 m 521 884 q 490 928 490 884 q 510 996 490 972 q 555 1021 530 1021 l 817 1007 q 951 1014 867 1007 q 1069 1021 1036 1021 q 1093 977 1093 1021 q 1074 909 1093 934 q 1022 884 1055 884 q 909 891 990 884 q 774 898 827 898 q 640 891 722 898 q 521 884 557 884 z "},"":{"ha":1275,"x_min":-23,"x_max":1354,"o":"m 802 -27 q 576 123 576 -27 q 684 464 576 208 q 792 819 792 720 q 751 898 792 875 q 632 922 710 922 q 475 908 555 922 q 372 895 395 895 q 349 915 349 895 q 445 985 349 941 q 850 1069 629 1069 q 1112 1006 1025 1069 q 1199 801 1199 943 q 1169 590 1199 717 q 1110 353 1139 464 q 1080 200 1080 241 q 1096 142 1080 159 q 1172 122 1116 122 q 1211 115 1206 122 q 1215 99 1215 107 q 1187 48 1215 68 q 802 -27 1079 -27 m 408 464 l 581 468 q 629 440 629 468 q 606 409 629 420 q 335 358 528 369 q 280 168 280 250 q 290 100 280 131 q 299 56 299 69 q 254 7 299 20 q 120 -5 208 -5 q 5 11 33 -5 q -23 67 -23 26 q 21 235 -23 143 q 135 410 66 326 q 288 574 204 494 q 452 713 372 655 q 692 844 628 844 q 721 827 721 844 q 692 787 721 809 q 548 653 632 743 q 398 464 464 563 l 408 464 m 670 1341 q 717 1387 670 1387 q 800 1356 743 1387 q 1013 1296 910 1296 q 1245 1355 1147 1296 q 1320 1388 1300 1388 q 1354 1361 1354 1388 q 1337 1311 1354 1335 q 1288 1253 1320 1286 q 982 1116 1150 1116 q 696 1266 793 1116 q 670 1341 670 1305 z "},"":{"ha":1273,"x_min":55,"x_max":1404,"o":"m 534 145 q 747 340 661 145 q 786 486 786 430 q 767 562 786 541 q 694 583 749 583 q 576 533 640 583 q 474 406 513 482 q 435 268 435 329 q 463 176 435 206 q 534 145 490 145 m 886 720 l 1197 705 q 1223 695 1215 705 q 1232 671 1232 684 q 1191 514 1232 622 q 1109 299 1150 406 q 1068 159 1068 193 q 1079 115 1068 125 q 1119 106 1089 106 q 1228 135 1149 106 q 1335 178 1307 163 q 1378 193 1363 193 q 1404 170 1404 193 q 1201 38 1404 119 q 1036 -8 1133 10 q 840 -27 939 -27 q 640 79 673 -27 q 355 -27 534 -27 q 147 32 232 -27 q 55 235 55 96 q 141 503 55 380 q 393 691 235 640 q 581 720 481 720 q 821 644 735 720 q 821 656 821 648 l 821 686 q 886 720 821 720 m 555 932 q 508 992 531 956 q 484 1072 484 1028 q 531 1116 484 1116 q 615 1082 557 1116 q 827 1019 724 1019 q 1059 1082 961 1019 q 1135 1117 1114 1117 q 1168 1089 1168 1117 q 1102 976 1168 1042 q 796 838 964 838 q 555 932 644 838 z "},"":{"ha":1275,"x_min":-23,"x_max":1215,"o":"m 802 -27 q 576 123 576 -27 q 684 464 576 208 q 792 819 792 720 q 751 898 792 875 q 632 922 710 922 q 475 908 555 922 q 372 895 395 895 q 349 915 349 895 q 445 985 349 941 q 850 1069 629 1069 q 1112 1006 1025 1069 q 1199 801 1199 943 q 1169 590 1199 717 q 1110 353 1139 464 q 1080 200 1080 241 q 1096 142 1080 159 q 1172 122 1116 122 q 1211 115 1206 122 q 1215 99 1215 107 q 1187 48 1215 68 q 802 -27 1079 -27 m 408 464 l 581 468 q 629 440 629 468 q 606 409 629 420 q 335 358 528 369 q 280 168 280 250 q 290 100 280 131 q 299 56 299 69 q 254 7 299 20 q 120 -5 208 -5 q 5 11 33 -5 q -23 67 -23 26 q 21 235 -23 143 q 135 410 66 326 q 288 574 204 494 q 452 713 372 655 q 692 844 628 844 q 721 827 721 844 q 692 787 721 809 q 548 653 632 743 q 398 464 464 563 l 408 464 m 939 -260 l 1008 -254 q 1038 -280 1038 -254 q 956 -341 1038 -315 q 773 -368 875 -368 q 624 -336 671 -368 q 577 -251 577 -305 q 640 -131 577 -196 q 796 -15 703 -65 q 987 65 888 36 l 987 14 q 884 -70 932 -14 q 836 -181 836 -126 q 939 -260 836 -260 z "},"":{"ha":1273,"x_min":55,"x_max":1404,"o":"m 534 145 q 747 340 661 145 q 786 486 786 430 q 767 562 786 541 q 694 583 749 583 q 576 533 640 583 q 474 406 513 482 q 435 268 435 329 q 463 176 435 206 q 534 145 490 145 m 886 720 l 1197 705 q 1223 695 1215 705 q 1232 671 1232 684 q 1191 514 1232 622 q 1109 299 1150 406 q 1068 159 1068 193 q 1079 115 1068 125 q 1119 106 1089 106 q 1228 135 1149 106 q 1335 178 1307 163 q 1378 193 1363 193 q 1404 170 1404 193 q 1201 38 1404 119 q 1036 -8 1133 10 q 840 -27 939 -27 q 640 79 673 -27 q 355 -27 534 -27 q 147 32 232 -27 q 55 235 55 96 q 141 503 55 380 q 393 691 235 640 q 581 720 481 720 q 821 644 735 720 q 821 656 821 648 l 821 686 q 886 720 821 720 m 945 -260 l 1015 -254 q 1044 -280 1044 -254 q 963 -341 1044 -315 q 780 -368 882 -368 q 631 -336 677 -368 q 584 -251 584 -305 q 647 -131 584 -196 q 803 -15 710 -65 q 994 65 895 36 l 994 14 q 890 -70 939 -14 q 842 -181 842 -126 q 945 -260 842 -260 z "},"":{"ha":1273,"x_min":78,"x_max":1343,"o":"m 584 218 q 786 141 648 141 q 1053 184 915 141 q 1120 199 1099 199 q 1160 176 1160 199 q 1108 107 1160 144 q 978 41 1057 70 q 800 -8 899 12 q 611 -27 701 -27 q 332 22 452 -27 q 144 164 211 72 q 78 365 78 256 q 115 566 78 473 q 214 733 151 659 q 360 871 277 808 q 537 978 444 935 q 918 1069 736 1069 q 1202 994 1101 1069 q 1303 810 1303 919 q 1233 604 1303 692 q 1144 534 1200 560 q 1020 509 1089 509 q 941 522 974 509 q 880 591 880 546 q 915 680 880 607 q 987 829 951 752 q 1023 935 1023 906 q 998 975 1023 964 q 929 985 974 985 q 827 951 884 985 q 717 858 770 917 q 620 726 664 798 q 549 569 576 653 q 523 417 523 484 q 538 302 523 350 q 584 218 553 255 m 1078 1365 q 1199 1390 1145 1390 q 1298 1357 1254 1390 q 1343 1279 1343 1323 q 1324 1230 1343 1253 q 1266 1202 1306 1207 q 1221 1196 1260 1201 q 1161 1187 1181 1190 q 1098 1179 1140 1185 q 1026 1167 1057 1173 q 959 1154 996 1162 q 887 1139 921 1147 q 825 1122 854 1131 q 774 1113 797 1113 q 752 1139 752 1113 q 850 1247 752 1178 q 1078 1365 949 1316 z "},"":{"ha":1042,"x_min":50,"x_max":1174,"o":"m 469 443 q 438 290 438 359 q 452 185 438 220 q 495 133 467 151 q 879 126 592 72 q 1077 173 1015 152 q 1150 193 1139 193 q 1174 170 1174 193 q 1138 123 1174 147 q 870 17 1043 62 q 484 -27 697 -27 q 160 49 271 -27 q 50 259 50 125 q 84 416 50 342 q 180 545 119 490 q 321 640 241 600 q 688 720 483 720 q 1023 665 926 720 q 1034 632 1034 656 q 1013 552 1034 608 q 957 449 991 496 q 895 401 923 401 q 849 432 866 401 q 821 482 832 463 q 789 528 809 501 q 750 568 768 554 q 707 591 732 581 q 644 602 681 602 q 570 579 607 602 q 509 523 533 557 q 469 443 486 488 m 835 1161 q 869 1168 849 1168 q 967 1131 918 1168 q 1016 1051 1016 1093 q 940 974 1016 1001 q 553 814 711 890 q 507 802 526 802 q 479 827 479 802 q 527 910 479 852 q 660 1041 574 968 q 835 1161 745 1113 z "},"":{"ha":1273,"x_min":78,"x_max":1303,"o":"m 584 218 q 786 141 648 141 q 1053 184 915 141 q 1120 199 1099 199 q 1160 176 1160 199 q 1108 107 1160 144 q 978 41 1057 70 q 800 -8 899 12 q 611 -27 701 -27 q 332 22 452 -27 q 144 164 211 72 q 78 365 78 256 q 115 566 78 473 q 214 733 151 659 q 360 871 277 808 q 537 978 444 935 q 918 1069 736 1069 q 1202 994 1101 1069 q 1303 810 1303 919 q 1233 604 1303 692 q 1144 534 1200 560 q 1020 509 1089 509 q 941 522 974 509 q 880 591 880 546 q 915 680 880 607 q 987 829 951 752 q 1023 935 1023 906 q 998 975 1023 964 q 929 985 974 985 q 827 951 884 985 q 717 858 770 917 q 620 726 664 798 q 549 569 576 653 q 523 417 523 484 q 538 302 523 350 q 584 218 553 255 m 948 1208 q 629 1103 674 1103 q 606 1112 616 1103 q 597 1134 597 1120 q 670 1219 597 1162 q 879 1361 743 1276 q 926 1384 906 1378 q 980 1390 946 1390 q 1034 1379 1014 1390 q 1074 1350 1055 1369 q 1208 1207 1162 1262 q 1254 1126 1254 1153 q 1222 1099 1254 1099 q 1134 1121 1190 1099 q 948 1208 1038 1160 z "},"":{"ha":1042,"x_min":50,"x_max":1174,"o":"m 469 443 q 438 290 438 359 q 452 185 438 220 q 495 133 467 151 q 879 126 592 72 q 1077 173 1015 152 q 1150 193 1139 193 q 1174 170 1174 193 q 1138 123 1174 147 q 870 17 1043 62 q 484 -27 697 -27 q 160 49 271 -27 q 50 259 50 125 q 84 416 50 342 q 180 545 119 490 q 321 640 241 600 q 688 720 483 720 q 1023 665 926 720 q 1034 632 1034 656 q 1013 552 1034 608 q 957 449 991 496 q 895 401 923 401 q 849 432 866 401 q 821 482 832 463 q 789 528 809 501 q 750 568 768 554 q 707 591 732 581 q 644 602 681 602 q 570 579 607 602 q 509 523 533 557 q 469 443 486 488 m 884 1132 q 1078 841 1078 902 q 1049 812 1078 812 q 982 838 1019 812 q 766 977 877 909 q 488 838 651 925 q 432 817 451 817 q 394 849 394 817 q 486 971 394 881 q 696 1143 578 1062 q 742 1166 722 1160 q 807 1171 762 1171 q 884 1132 852 1171 z "},"":{"ha":1273,"x_min":78,"x_max":1303,"o":"m 584 218 q 786 141 648 141 q 1053 184 915 141 q 1120 199 1099 199 q 1160 176 1160 199 q 1108 107 1160 144 q 978 41 1057 70 q 800 -8 899 12 q 611 -27 701 -27 q 332 22 452 -27 q 144 164 211 72 q 78 365 78 256 q 115 566 78 473 q 214 733 151 659 q 360 871 277 808 q 537 978 444 935 q 918 1069 736 1069 q 1202 994 1101 1069 q 1303 810 1303 919 q 1233 604 1303 692 q 1144 534 1200 560 q 1020 509 1089 509 q 941 522 974 509 q 880 591 880 546 q 915 680 880 607 q 987 829 951 752 q 1023 935 1023 906 q 998 975 1023 964 q 929 985 974 985 q 827 951 884 985 q 717 858 770 917 q 620 726 664 798 q 549 569 576 653 q 523 417 523 484 q 538 302 523 350 q 584 218 553 255 m 735 1316 q 946 1386 813 1386 q 1068 1356 1021 1386 q 1114 1278 1114 1325 q 1077 1197 1114 1231 q 983 1144 1040 1162 q 858 1126 926 1126 q 743 1157 790 1126 q 696 1234 696 1187 q 735 1316 696 1282 z "},"":{"ha":1042,"x_min":50,"x_max":1174,"o":"m 469 443 q 438 290 438 359 q 452 185 438 220 q 495 133 467 151 q 879 126 592 72 q 1077 173 1015 152 q 1150 193 1139 193 q 1174 170 1174 193 q 1138 123 1174 147 q 870 17 1043 62 q 484 -27 697 -27 q 160 49 271 -27 q 50 259 50 125 q 84 416 50 342 q 180 545 119 490 q 321 640 241 600 q 688 720 483 720 q 1023 665 926 720 q 1034 632 1034 656 q 1013 552 1034 608 q 957 449 991 496 q 895 401 923 401 q 849 432 866 401 q 821 482 832 463 q 789 528 809 501 q 750 568 768 554 q 707 591 732 581 q 644 602 681 602 q 570 579 607 602 q 509 523 533 557 q 469 443 486 488 m 926 996 q 852 880 926 930 q 696 830 779 830 q 569 864 614 830 q 523 945 523 897 q 558 1033 523 993 q 649 1095 593 1072 q 770 1117 705 1117 q 881 1082 836 1117 q 926 996 926 1048 z "},"":{"ha":1273,"x_min":78,"x_max":1342,"o":"m 584 218 q 786 141 648 141 q 1053 184 915 141 q 1120 199 1099 199 q 1160 176 1160 199 q 1108 107 1160 144 q 978 41 1057 70 q 800 -8 899 12 q 611 -27 701 -27 q 332 22 452 -27 q 144 164 211 72 q 78 365 78 256 q 115 566 78 473 q 214 733 151 659 q 360 871 277 808 q 537 978 444 935 q 918 1069 736 1069 q 1202 994 1101 1069 q 1303 810 1303 919 q 1233 604 1303 692 q 1144 534 1200 560 q 1020 509 1089 509 q 941 522 974 509 q 880 591 880 546 q 915 680 880 607 q 987 829 951 752 q 1023 935 1023 906 q 998 975 1023 964 q 929 985 974 985 q 827 951 884 985 q 717 858 770 917 q 620 726 664 798 q 549 569 576 653 q 523 417 523 484 q 538 302 523 350 q 584 218 553 255 m 991 1280 q 1310 1385 1265 1385 q 1333 1377 1323 1385 q 1342 1354 1342 1369 q 1269 1269 1342 1326 q 1060 1127 1196 1213 q 1013 1104 1033 1110 q 959 1099 993 1099 q 905 1109 925 1099 q 865 1138 884 1119 q 730 1281 775 1227 q 685 1362 685 1335 q 717 1390 685 1390 q 805 1367 749 1390 q 991 1280 901 1329 z "},"":{"ha":1042,"x_min":50,"x_max":1174,"o":"m 469 443 q 438 290 438 359 q 452 185 438 220 q 495 133 467 151 q 879 126 592 72 q 1077 173 1015 152 q 1150 193 1139 193 q 1174 170 1174 193 q 1138 123 1174 147 q 870 17 1043 62 q 484 -27 697 -27 q 160 49 271 -27 q 50 259 50 125 q 84 416 50 342 q 180 545 119 490 q 321 640 241 600 q 688 720 483 720 q 1023 665 926 720 q 1034 632 1034 656 q 1013 552 1034 608 q 957 449 991 496 q 895 401 923 401 q 849 432 866 401 q 821 482 832 463 q 789 528 809 501 q 750 568 768 554 q 707 591 732 581 q 644 602 681 602 q 570 579 607 602 q 509 523 533 557 q 469 443 486 488 m 608 852 q 414 1143 414 1082 q 444 1171 414 1171 q 511 1146 473 1171 q 727 1007 616 1074 q 1004 1146 842 1059 q 1061 1166 1042 1166 q 1099 1135 1099 1166 q 1006 1012 1099 1103 q 796 841 914 922 q 750 818 770 823 q 686 812 730 812 q 608 852 641 812 z "},"":{"ha":1388,"x_min":-54,"x_max":1378,"o":"m 706 922 q 523 906 620 922 q 359 869 425 889 q 238 832 292 848 q 173 815 184 815 q 136 841 136 815 q 176 895 136 867 q 473 1025 307 982 q 790 1069 639 1069 q 1039 1044 942 1069 q 1198 975 1135 1019 q 1302 869 1261 932 q 1378 580 1378 753 q 1278 243 1378 397 q 985 8 1167 74 q 773 -27 886 -27 q 491 30 593 -27 q 422 -6 463 2 q 309 -14 381 -14 q 172 -2 237 -14 q 58 27 106 9 q -22 67 9 45 q -54 107 -54 90 q -40 135 -54 125 q -8 144 -26 144 q 82 164 53 144 q 141 237 111 183 q 197 359 171 290 q 245 490 222 427 q 297 618 268 553 q 455 804 360 760 q 574 838 502 826 q 720 850 647 850 q 793 816 793 850 q 763 741 793 790 q 696 590 732 692 q 618 346 661 488 q 551 138 575 204 l 540 109 q 606 106 561 106 q 706 125 650 106 q 802 177 761 144 q 875 255 842 210 q 929 350 908 300 q 965 457 951 401 q 991 680 991 561 q 706 922 991 922 m 916 1280 q 1234 1385 1190 1385 q 1257 1377 1248 1385 q 1267 1354 1267 1369 q 1194 1269 1267 1326 q 985 1127 1120 1213 q 938 1104 958 1110 q 884 1099 918 1099 q 829 1109 850 1099 q 790 1138 809 1119 q 655 1281 700 1227 q 610 1362 610 1335 q 642 1390 610 1390 q 730 1367 674 1390 q 916 1280 825 1329 z "},"":{"ha":1329,"x_min":55,"x_max":1532,"o":"m 1292 564 q 1302 620 1292 583 q 1353 831 1344 779 q 1364 896 1362 883 q 1375 928 1367 909 q 1393 956 1383 947 q 1463 980 1418 980 q 1532 905 1532 980 q 1497 762 1532 852 q 1414 601 1463 672 q 1329 530 1365 530 q 1292 564 1292 530 m 1374 193 q 1404 165 1404 193 q 1376 125 1404 146 q 1149 21 1300 69 q 886 -27 998 -27 q 720 -4 773 -27 q 646 79 667 20 q 533 6 607 39 q 377 -27 459 -27 q 242 -13 294 -27 q 147 32 190 2 q 80 114 104 62 q 55 235 55 165 q 76 372 55 304 q 141 504 97 441 q 245 614 184 566 q 394 691 307 663 q 581 720 481 720 q 855 637 746 720 q 893 953 893 879 l 892 972 q 958 1006 892 1006 l 1262 992 q 1288 982 1278 992 q 1297 960 1297 972 q 1185 527 1297 854 q 1074 167 1074 199 q 1083 121 1074 135 q 1121 108 1092 108 q 1221 132 1150 108 q 1329 175 1293 157 q 1374 193 1364 193 m 534 145 q 747 340 661 145 q 795 506 795 434 q 777 566 795 545 q 703 587 758 587 q 582 536 648 587 q 476 407 516 484 q 435 268 435 329 q 463 176 435 206 q 534 145 490 145 z "},"":{"ha":1388,"x_min":-54,"x_max":1378,"o":"m 721 406 l 544 407 q 319 391 477 407 q 103 374 160 374 q 70 419 70 374 q 88 487 70 463 q 138 512 106 511 q 212 514 170 514 l 357 513 q 600 529 441 513 q 793 547 759 545 q 819 495 819 547 q 789 420 819 437 q 721 406 764 406 m 706 922 q 523 906 620 922 q 359 869 425 889 q 238 832 292 848 q 173 815 184 815 q 136 841 136 815 q 176 895 136 867 q 473 1025 307 982 q 790 1069 639 1069 q 1039 1044 942 1069 q 1198 975 1135 1019 q 1302 869 1261 932 q 1378 580 1378 753 q 1278 243 1378 397 q 985 8 1167 74 q 773 -27 886 -27 q 491 30 593 -27 q 422 -6 463 2 q 309 -14 381 -14 q 172 -2 237 -14 q 58 27 106 9 q -22 67 9 45 q -54 107 -54 90 q -40 135 -54 125 q -8 144 -26 144 q 82 164 53 144 q 141 237 111 183 q 197 359 171 290 q 245 490 222 427 q 297 618 268 553 q 455 804 360 760 q 574 838 502 826 q 720 850 647 850 q 793 816 793 850 q 763 741 793 790 q 696 590 732 692 q 618 346 661 488 q 551 138 575 204 l 540 109 q 606 106 561 106 q 706 125 650 106 q 802 177 761 144 q 875 255 842 210 q 929 350 908 300 q 965 457 951 401 q 991 680 991 561 q 706 922 991 922 z "},"":{"ha":1273,"x_min":55,"x_max":1423,"o":"m 1409 731 q 1423 695 1423 724 q 1397 638 1423 666 q 1345 610 1371 610 q 1204 654 1331 610 q 1027 713 1078 699 q 862 753 975 728 q 713 787 749 778 q 693 827 693 797 q 720 885 693 858 q 765 911 746 911 q 919 865 783 911 q 1099 806 1054 819 q 1260 767 1145 793 q 1409 731 1375 741 m 1374 193 q 1404 165 1404 193 q 1376 125 1404 146 q 1149 21 1300 69 q 886 -27 998 -27 q 720 -4 773 -27 q 646 79 667 20 q 533 6 607 39 q 377 -27 459 -27 q 242 -13 294 -27 q 147 32 190 2 q 80 114 104 62 q 55 235 55 165 q 76 372 55 304 q 141 504 97 441 q 245 614 184 566 q 394 691 307 663 q 581 720 481 720 q 855 637 746 720 q 893 953 893 879 l 892 972 q 958 1006 892 1006 q 1262 992 958 1006 q 1288 982 1278 992 q 1297 960 1297 972 q 1185 527 1297 854 q 1074 167 1074 199 q 1083 121 1074 135 q 1121 108 1092 108 q 1221 132 1150 108 q 1329 175 1293 157 q 1374 193 1364 193 m 534 145 q 747 340 661 145 q 795 506 795 434 q 777 566 795 545 q 703 587 758 587 q 582 536 648 587 q 476 407 516 484 q 435 268 435 329 q 463 176 435 206 q 534 145 490 145 z "},"":{"ha":1273,"x_min":41,"x_max":1319,"o":"m 940 623 q 966 584 966 623 q 940 515 966 544 q 884 485 914 487 q 822 478 854 483 q 748 465 789 473 q 673 442 707 456 q 610 409 640 428 q 547 298 547 368 q 570 216 547 251 q 631 162 593 181 q 793 125 705 125 q 1142 184 930 125 q 1163 187 1154 187 q 1189 161 1189 187 q 1092 69 1189 114 q 857 -1 996 24 q 594 -27 718 -27 q 372 -12 470 -27 q 199 36 275 4 q 82 120 124 67 q 41 241 41 172 q 82 364 41 309 q 190 454 123 418 q 346 514 257 490 q 715 559 513 559 q 501 583 572 566 q 389 616 430 600 q 320 652 348 632 q 256 768 256 699 q 308 896 256 837 q 446 991 360 954 q 857 1069 623 1069 q 1293 998 1175 1069 q 1319 952 1319 982 q 1275 852 1319 922 q 1203 757 1230 783 q 1152 730 1175 730 q 1109 747 1128 730 q 1080 789 1090 764 q 852 956 1006 956 q 701 907 762 956 q 640 789 640 859 q 710 669 640 720 q 883 619 781 619 l 940 623 m 882 1172 l 609 1158 q 588 1176 597 1158 q 578 1227 578 1194 q 599 1291 578 1260 q 643 1322 619 1322 l 925 1308 l 1198 1322 q 1216 1304 1209 1322 q 1222 1253 1222 1286 q 1202 1189 1222 1220 q 1151 1158 1182 1158 q 1027 1165 1119 1158 q 882 1172 936 1172 z "},"":{"ha":1042,"x_min":39,"x_max":1174,"o":"m 1150 193 q 1174 171 1174 193 q 1142 131 1174 149 q 1062 91 1109 112 q 931 40 1015 69 q 498 -27 739 -27 q 39 255 39 -27 q 126 499 39 393 q 360 663 214 606 q 680 720 507 720 q 933 666 852 720 q 1013 519 1013 612 q 936 361 1013 422 q 732 271 859 300 q 438 229 604 241 q 589 98 449 123 q 665 92 625 92 q 1122 187 823 92 q 1150 193 1141 193 m 439 303 q 625 403 557 336 q 694 565 694 470 q 677 605 694 590 q 628 620 661 620 q 560 591 595 620 q 500 517 524 563 q 439 303 448 421 m 406 884 q 375 928 375 884 q 395 996 375 972 q 439 1021 415 1021 l 701 1007 q 836 1014 752 1007 q 954 1021 920 1021 q 978 977 978 1021 q 959 909 978 934 q 907 884 939 884 q 793 891 875 884 q 659 898 712 898 q 524 891 606 898 q 406 884 442 884 z "},"":{"ha":1273,"x_min":41,"x_max":1319,"o":"m 940 623 q 966 584 966 623 q 940 515 966 544 q 884 485 914 487 q 822 478 854 483 q 748 465 789 473 q 673 442 707 456 q 610 409 640 428 q 547 298 547 368 q 570 216 547 251 q 631 162 593 181 q 793 125 705 125 q 1142 184 930 125 q 1163 187 1154 187 q 1189 161 1189 187 q 1092 69 1189 114 q 857 -1 996 24 q 594 -27 718 -27 q 372 -12 470 -27 q 199 36 275 4 q 82 120 124 67 q 41 241 41 172 q 82 364 41 309 q 190 454 123 418 q 346 514 257 490 q 715 559 513 559 q 501 583 572 566 q 389 616 430 600 q 320 652 348 632 q 256 768 256 699 q 308 896 256 837 q 446 991 360 954 q 857 1069 623 1069 q 1293 998 1175 1069 q 1319 952 1319 982 q 1275 852 1319 922 q 1203 757 1230 783 q 1152 730 1175 730 q 1109 747 1128 730 q 1080 789 1090 764 q 852 956 1006 956 q 701 907 762 956 q 640 789 640 859 q 710 669 640 720 q 883 619 781 619 l 940 623 m 629 1341 q 675 1387 629 1387 q 759 1356 702 1387 q 971 1296 869 1296 q 1204 1355 1105 1296 q 1279 1388 1259 1388 q 1313 1361 1313 1388 q 1296 1311 1313 1335 q 1246 1253 1279 1286 q 941 1116 1109 1116 q 654 1266 751 1116 q 629 1341 629 1305 z "},"":{"ha":1042,"x_min":39,"x_max":1174,"o":"m 1150 193 q 1174 171 1174 193 q 1142 131 1174 149 q 1062 91 1109 112 q 931 40 1015 69 q 498 -27 739 -27 q 39 255 39 -27 q 126 499 39 393 q 360 663 214 606 q 680 720 507 720 q 933 666 852 720 q 1013 519 1013 612 q 936 361 1013 422 q 732 271 859 300 q 438 229 604 241 q 589 98 449 123 q 665 92 625 92 q 1122 187 823 92 q 1150 193 1141 193 m 439 303 q 625 403 557 336 q 694 565 694 470 q 677 605 694 590 q 628 620 661 620 q 560 591 595 620 q 500 517 524 563 q 439 303 448 421 m 439 932 q 392 992 416 956 q 369 1072 369 1028 q 416 1116 369 1116 q 500 1082 442 1116 q 711 1019 609 1019 q 944 1082 846 1019 q 1019 1117 999 1117 q 1053 1089 1053 1117 q 987 976 1053 1042 q 681 838 849 838 q 439 932 529 838 z "},"":{"ha":1273,"x_min":41,"x_max":1319,"o":"m 940 623 q 966 584 966 623 q 940 515 966 544 q 884 485 914 487 q 822 478 854 483 q 748 465 789 473 q 673 442 707 456 q 610 409 640 428 q 547 298 547 368 q 570 216 547 251 q 631 162 593 181 q 793 125 705 125 q 1142 184 930 125 q 1163 187 1154 187 q 1189 161 1189 187 q 1092 69 1189 114 q 857 -1 996 24 q 594 -27 718 -27 q 372 -12 470 -27 q 199 36 275 4 q 82 120 124 67 q 41 241 41 172 q 82 364 41 309 q 190 454 123 418 q 346 514 257 490 q 715 559 513 559 q 501 583 572 566 q 389 616 430 600 q 320 652 348 632 q 256 768 256 699 q 308 896 256 837 q 446 991 360 954 q 857 1069 623 1069 q 1293 998 1175 1069 q 1319 952 1319 982 q 1275 852 1319 922 q 1203 757 1230 783 q 1152 730 1175 730 q 1109 747 1128 730 q 1080 789 1090 764 q 852 956 1006 956 q 701 907 762 956 q 640 789 640 859 q 710 669 640 720 q 883 619 781 619 l 940 623 m 708 1316 q 919 1386 786 1386 q 1041 1356 994 1386 q 1087 1278 1087 1325 q 1050 1197 1087 1231 q 956 1144 1013 1162 q 831 1126 899 1126 q 716 1157 763 1126 q 669 1234 669 1187 q 708 1316 669 1282 z "},"":{"ha":1042,"x_min":39,"x_max":1174,"o":"m 1150 193 q 1174 171 1174 193 q 1142 131 1174 149 q 1062 91 1109 112 q 931 40 1015 69 q 498 -27 739 -27 q 39 255 39 -27 q 126 499 39 393 q 360 663 214 606 q 680 720 507 720 q 933 666 852 720 q 1013 519 1013 612 q 936 361 1013 422 q 732 271 859 300 q 438 229 604 241 q 589 98 449 123 q 665 92 625 92 q 1122 187 823 92 q 1150 193 1141 193 m 439 303 q 625 403 557 336 q 694 565 694 470 q 677 605 694 590 q 628 620 661 620 q 560 591 595 620 q 500 517 524 563 q 439 303 448 421 m 871 996 q 798 880 871 930 q 642 830 724 830 q 514 864 559 830 q 468 945 468 897 q 503 1033 468 993 q 594 1095 538 1072 q 715 1117 650 1117 q 826 1082 781 1117 q 871 996 871 1048 z "},"":{"ha":1273,"x_min":41,"x_max":1319,"o":"m 907 -260 l 977 -254 q 1006 -280 1006 -254 q 924 -341 1006 -315 q 741 -368 843 -368 q 592 -336 639 -368 q 545 -251 545 -305 q 608 -131 545 -196 q 764 -15 671 -65 q 955 65 857 36 l 1061 56 q 1015 38 1050 52 q 955 14 980 25 q 852 -68 900 -11 q 804 -181 804 -125 q 907 -260 804 -260 m 940 623 q 966 584 966 623 q 940 515 966 544 q 884 485 914 487 q 822 478 854 483 q 748 465 789 473 q 673 442 707 456 q 610 409 640 428 q 547 298 547 368 q 570 216 547 251 q 631 162 593 181 q 793 125 705 125 q 1142 184 930 125 q 1163 187 1154 187 q 1189 161 1189 187 q 1092 69 1189 114 q 857 -1 996 24 q 594 -27 718 -27 q 372 -12 470 -27 q 199 36 275 4 q 82 120 124 67 q 41 241 41 172 q 82 364 41 309 q 190 454 123 418 q 346 514 257 490 q 715 559 513 559 q 501 583 572 566 q 389 616 430 600 q 320 652 348 632 q 256 768 256 699 q 308 896 256 837 q 446 991 360 954 q 857 1069 623 1069 q 1293 998 1175 1069 q 1319 952 1319 982 q 1275 852 1319 922 q 1203 757 1230 783 q 1152 730 1175 730 q 1109 747 1128 730 q 1080 789 1090 764 q 852 956 1006 956 q 701 907 762 956 q 640 789 640 859 q 710 669 640 720 q 883 619 781 619 l 940 623 z "},"":{"ha":1042,"x_min":39,"x_max":1174,"o":"m 1150 193 q 1174 171 1174 193 q 1142 131 1174 149 q 1062 91 1109 112 q 931 40 1015 69 q 498 -27 739 -27 q 39 255 39 -27 q 126 499 39 393 q 360 663 214 606 q 680 720 507 720 q 933 666 852 720 q 1013 519 1013 612 q 936 361 1013 422 q 732 271 859 300 q 438 229 604 241 q 589 98 449 123 q 665 92 625 92 q 1122 187 823 92 q 1150 193 1141 193 m 439 303 q 625 403 557 336 q 694 565 694 470 q 677 605 694 590 q 628 620 661 620 q 560 591 595 620 q 500 517 524 563 q 439 303 448 421 m 749 -260 l 819 -254 q 848 -280 848 -254 q 766 -341 848 -315 q 583 -368 685 -368 q 434 -336 481 -368 q 387 -251 387 -305 q 450 -131 387 -196 q 606 -15 513 -65 q 797 65 699 36 l 797 14 q 694 -70 742 -14 q 646 -181 646 -126 q 749 -260 646 -260 z "},"":{"ha":1273,"x_min":41,"x_max":1319,"o":"m 940 623 q 966 584 966 623 q 940 515 966 544 q 884 485 914 487 q 822 478 854 483 q 748 465 789 473 q 673 442 707 456 q 610 409 640 428 q 547 298 547 368 q 570 216 547 251 q 631 162 593 181 q 793 125 705 125 q 1142 184 930 125 q 1163 187 1154 187 q 1189 161 1189 187 q 1092 69 1189 114 q 857 -1 996 24 q 594 -27 718 -27 q 372 -12 470 -27 q 199 36 275 4 q 82 120 124 67 q 41 241 41 172 q 82 364 41 309 q 190 454 123 418 q 346 514 257 490 q 715 559 513 559 q 501 583 572 566 q 389 616 430 600 q 320 652 348 632 q 256 768 256 699 q 308 896 256 837 q 446 991 360 954 q 857 1069 623 1069 q 1293 998 1175 1069 q 1319 952 1319 982 q 1275 852 1319 922 q 1203 757 1230 783 q 1152 730 1175 730 q 1109 747 1128 730 q 1080 789 1090 764 q 852 956 1006 956 q 701 907 762 956 q 640 789 640 859 q 710 669 640 720 q 883 619 781 619 l 940 623 m 964 1280 q 1282 1385 1238 1385 q 1305 1377 1296 1385 q 1315 1354 1315 1369 q 1242 1269 1315 1326 q 1033 1127 1168 1213 q 986 1104 1006 1110 q 932 1099 966 1099 q 878 1109 898 1099 q 838 1138 857 1119 q 703 1281 748 1227 q 658 1362 658 1335 q 690 1390 658 1390 q 778 1367 722 1390 q 964 1280 873 1329 z "},"":{"ha":1042,"x_min":39,"x_max":1174,"o":"m 1150 193 q 1174 171 1174 193 q 1142 131 1174 149 q 1062 91 1109 112 q 931 40 1015 69 q 498 -27 739 -27 q 39 255 39 -27 q 126 499 39 393 q 360 663 214 606 q 680 720 507 720 q 933 666 852 720 q 1013 519 1013 612 q 936 361 1013 422 q 732 271 859 300 q 438 229 604 241 q 589 98 449 123 q 665 92 625 92 q 1122 187 823 92 q 1150 193 1141 193 m 439 303 q 625 403 557 336 q 694 565 694 470 q 677 605 694 590 q 628 620 661 620 q 560 591 595 620 q 500 517 524 563 q 439 303 448 421 m 553 852 q 359 1143 359 1082 q 389 1171 359 1171 q 456 1146 418 1171 q 672 1007 561 1074 q 949 1146 787 1059 q 1006 1166 987 1166 q 1044 1135 1044 1166 q 951 1012 1044 1103 q 741 841 859 922 q 695 818 715 823 q 631 812 675 812 q 553 852 586 812 z "},"":{"ha":1388,"x_min":92,"x_max":1377,"o":"m 1056 931 q 941 975 1056 975 q 832 944 892 975 q 719 859 771 913 q 625 734 667 804 q 535 428 535 585 q 598 184 535 271 q 788 96 661 96 q 804 97 799 96 q 853 241 831 166 q 876 332 876 315 q 857 359 876 349 q 814 374 838 370 q 753 414 753 385 q 851 473 753 452 q 1084 493 949 493 q 1263 480 1219 493 q 1306 439 1306 468 q 1282 373 1306 420 q 1204 146 1259 326 q 1126 -71 1150 -33 q 1004 -163 1086 -132 q 812 -194 922 -194 q 611 -151 611 -194 q 662 -94 611 -123 q 749 -18 720 -60 q 773 24 762 0 q 557 0 680 0 q 343 27 435 0 q 197 104 251 54 q 92 367 92 201 q 130 558 92 465 q 235 728 169 652 q 388 868 300 804 q 572 977 475 932 q 979 1069 778 1069 q 1278 1008 1179 1069 q 1377 840 1377 948 q 1320 722 1377 777 q 1120 659 1257 659 q 1042 672 1074 659 q 980 742 980 696 q 1018 829 980 752 q 1056 931 1056 907 m 1013 1208 q 694 1103 739 1103 q 671 1112 680 1103 q 661 1134 661 1120 q 734 1219 661 1162 q 943 1361 808 1276 q 990 1384 970 1378 q 1044 1390 1010 1390 q 1099 1379 1078 1390 q 1138 1350 1119 1369 q 1273 1207 1227 1262 q 1318 1126 1318 1153 q 1286 1099 1318 1099 q 1198 1121 1254 1099 q 1013 1208 1103 1160 z "},"":{"ha":1273,"x_min":19,"x_max":1404,"o":"m 19 -231 q 84 -151 19 -189 q 254 -83 150 -112 q 645 -4 441 -32 q 689 123 669 62 q 526 39 616 69 q 363 8 436 8 q 239 21 290 8 q 146 60 189 33 q 55 253 55 119 q 127 494 55 387 q 322 660 199 601 q 601 720 445 720 q 842 652 757 720 q 986 685 904 671 q 1114 700 1067 700 q 1193 677 1160 700 q 1225 626 1225 655 q 1205 539 1225 597 q 1136 345 1185 481 q 1043 71 1087 208 q 1335 181 1180 108 q 1375 193 1360 193 q 1404 170 1404 193 q 1380 134 1404 151 q 1015 -21 1268 50 l 996 -81 q 927 -194 977 -145 q 812 -273 877 -243 q 665 -320 748 -302 q 337 -353 519 -353 q 19 -231 19 -353 m 663 207 q 755 340 715 250 q 795 486 795 430 q 776 562 795 541 q 703 583 758 583 q 583 536 648 583 q 476 416 517 489 q 435 281 435 342 q 462 193 435 220 q 522 165 489 165 q 571 168 555 165 q 614 179 588 170 q 663 207 641 189 m 585 -172 l 617 -81 q 314 -219 314 -130 q 339 -261 314 -245 q 404 -277 365 -277 q 585 -172 548 -277 m 901 1132 q 1095 841 1095 902 q 1066 812 1095 812 q 999 838 1036 812 q 783 977 894 909 q 505 838 668 925 q 449 817 468 817 q 411 849 411 817 q 503 971 411 881 q 713 1143 595 1062 q 760 1166 739 1160 q 824 1171 780 1171 q 901 1132 869 1171 z "},"":{"ha":1388,"x_min":92,"x_max":1404,"o":"m 1056 931 q 941 975 1056 975 q 832 944 892 975 q 719 859 771 913 q 625 734 667 804 q 535 428 535 585 q 598 184 535 271 q 788 96 661 96 q 804 97 799 96 q 853 241 831 166 q 876 332 876 315 q 857 359 876 349 q 814 374 838 370 q 753 414 753 385 q 851 473 753 452 q 1084 493 949 493 q 1263 480 1219 493 q 1306 439 1306 468 q 1282 373 1306 420 q 1204 146 1259 326 q 1126 -71 1150 -33 q 1004 -163 1086 -132 q 812 -194 922 -194 q 611 -151 611 -194 q 662 -94 611 -123 q 749 -18 720 -60 q 773 24 762 0 q 557 0 680 0 q 343 27 435 0 q 197 104 251 54 q 92 367 92 201 q 130 558 92 465 q 235 728 169 652 q 388 868 300 804 q 572 977 475 932 q 979 1069 778 1069 q 1278 1008 1179 1069 q 1377 840 1377 948 q 1320 722 1377 777 q 1120 659 1257 659 q 1042 672 1074 659 q 980 742 980 696 q 1018 829 980 752 q 1056 931 1056 907 m 720 1341 q 767 1387 720 1387 q 850 1356 793 1387 q 1063 1296 960 1296 q 1295 1355 1197 1296 q 1371 1388 1350 1388 q 1404 1361 1404 1388 q 1388 1311 1404 1335 q 1338 1253 1371 1286 q 1032 1116 1200 1116 q 746 1266 843 1116 q 720 1341 720 1305 z "},"":{"ha":1273,"x_min":19,"x_max":1404,"o":"m 19 -231 q 84 -151 19 -189 q 254 -83 150 -112 q 645 -4 441 -32 q 689 123 669 62 q 526 39 616 69 q 363 8 436 8 q 239 21 290 8 q 146 60 189 33 q 55 253 55 119 q 127 494 55 387 q 322 660 199 601 q 601 720 445 720 q 842 652 757 720 q 986 685 904 671 q 1114 700 1067 700 q 1193 677 1160 700 q 1225 626 1225 655 q 1205 539 1225 597 q 1136 345 1185 481 q 1043 71 1087 208 q 1335 181 1180 108 q 1375 193 1360 193 q 1404 170 1404 193 q 1380 134 1404 151 q 1015 -21 1268 50 l 996 -81 q 927 -194 977 -145 q 812 -273 877 -243 q 665 -320 748 -302 q 337 -353 519 -353 q 19 -231 19 -353 m 663 207 q 755 340 715 250 q 795 486 795 430 q 776 562 795 541 q 703 583 758 583 q 583 536 648 583 q 476 416 517 489 q 435 281 435 342 q 462 193 435 220 q 522 165 489 165 q 571 168 555 165 q 614 179 588 170 q 663 207 641 189 m 585 -172 l 617 -81 q 314 -219 314 -130 q 339 -261 314 -245 q 404 -277 365 -277 q 585 -172 548 -277 m 511 932 q 464 992 488 956 q 441 1072 441 1028 q 488 1116 441 1116 q 572 1082 514 1116 q 783 1019 681 1019 q 1016 1082 918 1019 q 1091 1117 1071 1117 q 1125 1089 1125 1117 q 1059 976 1125 1042 q 753 838 921 838 q 511 932 601 838 z "},"":{"ha":1388,"x_min":92,"x_max":1377,"o":"m 1056 931 q 941 975 1056 975 q 832 944 892 975 q 719 859 771 913 q 625 734 667 804 q 535 428 535 585 q 598 184 535 271 q 788 96 661 96 q 804 97 799 96 q 853 241 831 166 q 876 332 876 315 q 857 359 876 349 q 814 374 838 370 q 753 414 753 385 q 851 473 753 452 q 1084 493 949 493 q 1263 480 1219 493 q 1306 439 1306 468 q 1282 373 1306 420 q 1204 146 1259 326 q 1126 -71 1150 -33 q 1004 -163 1086 -132 q 812 -194 922 -194 q 611 -151 611 -194 q 662 -94 611 -123 q 749 -18 720 -60 q 773 24 762 0 q 557 0 680 0 q 343 27 435 0 q 197 104 251 54 q 92 367 92 201 q 130 558 92 465 q 235 728 169 652 q 388 868 300 804 q 572 977 475 932 q 979 1069 778 1069 q 1278 1008 1179 1069 q 1377 840 1377 948 q 1320 722 1377 777 q 1120 659 1257 659 q 1042 672 1074 659 q 980 742 980 696 q 1018 829 980 752 q 1056 931 1056 907 m 853 1316 q 1065 1386 932 1386 q 1186 1356 1140 1386 q 1233 1278 1233 1325 q 1196 1197 1233 1231 q 1102 1144 1158 1162 q 977 1126 1045 1126 q 862 1157 909 1126 q 815 1234 815 1187 q 853 1316 815 1282 z "},"":{"ha":1273,"x_min":19,"x_max":1404,"o":"m 19 -231 q 84 -151 19 -189 q 254 -83 150 -112 q 645 -4 441 -32 q 689 123 669 62 q 526 39 616 69 q 363 8 436 8 q 239 21 290 8 q 146 60 189 33 q 55 253 55 119 q 127 494 55 387 q 322 660 199 601 q 601 720 445 720 q 842 652 757 720 q 986 685 904 671 q 1114 700 1067 700 q 1193 677 1160 700 q 1225 626 1225 655 q 1205 539 1225 597 q 1136 345 1185 481 q 1043 71 1087 208 q 1335 181 1180 108 q 1375 193 1360 193 q 1404 170 1404 193 q 1380 134 1404 151 q 1015 -21 1268 50 l 996 -81 q 927 -194 977 -145 q 812 -273 877 -243 q 665 -320 748 -302 q 337 -353 519 -353 q 19 -231 19 -353 m 663 207 q 755 340 715 250 q 795 486 795 430 q 776 562 795 541 q 703 583 758 583 q 583 536 648 583 q 476 416 517 489 q 435 281 435 342 q 462 193 435 220 q 522 165 489 165 q 571 168 555 165 q 614 179 588 170 q 663 207 641 189 m 585 -172 l 617 -81 q 314 -219 314 -130 q 339 -261 314 -245 q 404 -277 365 -277 q 585 -172 548 -277 m 943 996 q 869 880 943 930 q 713 830 795 830 q 586 864 631 830 q 540 945 540 897 q 575 1033 540 993 q 666 1095 610 1072 q 787 1117 722 1117 q 898 1082 853 1117 q 943 996 943 1048 z "},"":{"ha":1388,"x_min":92,"x_max":1377,"o":"m 1056 931 q 941 975 1056 975 q 832 944 892 975 q 719 859 771 913 q 625 734 667 804 q 535 429 535 585 q 788 111 535 111 l 796 111 q 851 232 826 162 q 876 336 876 302 q 815 375 876 364 q 753 414 753 386 q 851 473 753 452 q 1084 493 949 493 q 1263 480 1219 493 q 1306 439 1306 468 q 1283 373 1306 420 q 1235 252 1259 327 q 1187 141 1210 176 q 1124 81 1164 106 q 1029 42 1084 57 q 922 19 974 28 q 799 5 869 9 q 574 0 689 0 l 559 0 q 117 219 203 0 q 92 374 92 284 q 130 558 92 465 q 235 728 169 652 q 388 868 300 804 q 572 977 475 932 q 979 1069 778 1069 q 1278 1008 1179 1069 q 1377 840 1377 948 q 1320 722 1377 777 q 1120 659 1257 659 q 1042 672 1074 659 q 980 742 980 696 q 1018 829 980 752 q 1056 931 1056 907 m 608 -274 q 522 -281 579 -281 q 341 -197 341 -281 q 421 -110 341 -145 q 624 -74 501 -74 q 732 -94 690 -74 q 809 -201 809 -129 q 778 -293 809 -253 q 693 -358 747 -334 q 429 -407 583 -407 q 371 -379 371 -407 q 420 -338 371 -351 q 471 -325 437 -333 q 521 -312 505 -317 q 608 -274 566 -298 z "},"":{"ha":1273,"x_min":19,"x_max":1404,"o":"m 19 -231 q 84 -151 19 -189 q 254 -83 150 -112 q 645 -4 441 -32 q 689 123 669 62 q 526 39 616 69 q 363 8 436 8 q 239 21 290 8 q 146 60 189 33 q 55 253 55 119 q 127 494 55 387 q 322 660 199 601 q 601 720 445 720 q 842 652 757 720 q 986 685 904 671 q 1114 700 1067 700 q 1193 677 1160 700 q 1225 626 1225 655 q 1205 539 1225 597 q 1136 345 1185 481 q 1043 71 1087 208 q 1335 181 1180 108 q 1375 193 1360 193 q 1404 170 1404 193 q 1380 134 1404 151 q 1015 -21 1268 50 l 996 -81 q 927 -194 977 -145 q 812 -273 877 -243 q 665 -320 748 -302 q 337 -353 519 -353 q 19 -231 19 -353 m 663 207 q 755 340 715 250 q 795 486 795 430 q 776 562 795 541 q 703 583 758 583 q 583 536 648 583 q 476 416 517 489 q 435 281 435 342 q 462 193 435 220 q 522 165 489 165 q 571 168 555 165 q 614 179 588 170 q 663 207 641 189 m 585 -172 l 617 -81 q 314 -219 314 -130 q 339 -261 314 -245 q 404 -277 365 -277 q 585 -172 548 -277 m 412 983 q 498 991 441 991 q 679 907 679 991 q 599 819 679 854 q 396 783 519 783 q 288 803 330 783 q 211 911 211 838 q 242 1003 211 962 q 327 1067 273 1043 q 591 1116 437 1116 q 649 1088 649 1116 q 600 1047 649 1061 q 549 1034 583 1042 q 499 1021 515 1026 q 412 983 454 1008 z "},"":{"ha":1388,"x_min":81,"x_max":1412,"o":"m 294 832 l 214 816 q 192 820 199 816 q 184 837 184 824 q 247 919 184 867 q 419 1013 309 970 q 617 1055 529 1055 q 743 1025 705 1055 q 781 919 781 994 q 749 747 781 843 q 660 508 718 650 l 778 511 q 825 484 825 511 q 803 452 825 464 q 619 408 745 422 q 546 210 572 289 q 521 82 521 132 l 523 37 q 500 4 523 16 q 452 -8 477 -8 l 180 -12 q 88 14 104 -12 q 81 53 81 26 q 92 130 81 80 q 166 326 104 180 q 279 598 228 472 q 330 765 330 724 q 321 819 330 805 q 294 832 313 832 m 1112 -8 l 861 -12 q 769 14 785 -12 q 762 46 762 26 q 811 270 762 110 q 919 609 861 431 q 986 847 977 787 q 996 953 996 907 q 1016 1011 996 999 q 1097 1024 1037 1024 q 1242 1030 1157 1024 q 1355 1036 1326 1036 q 1398 1020 1384 1036 q 1412 980 1412 1004 q 1331 639 1412 861 q 1263 452 1297 546 q 1181 80 1181 227 l 1183 37 q 1160 4 1183 16 q 1112 -8 1137 -8 m 941 1208 q 623 1103 667 1103 q 600 1112 609 1103 q 590 1134 590 1120 q 663 1219 590 1162 q 872 1361 736 1276 q 919 1384 899 1378 q 973 1390 939 1390 q 1027 1379 1007 1390 q 1067 1350 1048 1369 q 1201 1207 1156 1262 q 1247 1126 1247 1153 q 1215 1099 1247 1099 q 1127 1121 1183 1099 q 941 1208 1031 1160 z "},"":{"ha":1275,"x_min":9,"x_max":1407,"o":"m 354 1004 l 665 1006 q 690 997 680 1006 q 700 964 700 987 q 672 833 700 942 q 610 620 644 724 q 806 689 699 658 q 1000 720 914 720 q 1119 684 1065 720 q 1179 562 1179 644 q 1116 345 1179 481 q 1053 170 1053 208 q 1106 114 1053 114 q 1345 182 1212 114 q 1379 193 1366 193 q 1407 169 1407 193 q 1376 124 1407 144 q 1298 83 1345 105 q 1181 35 1251 61 q 829 -27 1016 -27 q 642 65 642 -27 q 710 278 642 125 q 778 486 778 432 q 684 550 778 550 q 581 534 631 550 q 420 19 469 205 q 405 0 416 6 q 384 -6 393 -6 l 35 -14 q 18 -4 27 -14 q 9 18 9 5 q 53 155 9 32 q 149 421 96 277 q 245 720 201 565 q 289 951 289 876 l 288 970 q 354 1004 288 1004 m 612 1207 q 294 1102 338 1102 q 271 1110 280 1102 q 261 1133 261 1118 q 334 1218 261 1161 q 543 1360 408 1274 q 590 1382 570 1377 q 644 1388 610 1388 q 699 1378 678 1388 q 738 1349 719 1368 q 872 1206 827 1261 q 918 1124 918 1152 q 886 1097 918 1097 q 798 1120 854 1097 q 612 1207 703 1158 z "},"":{"ha":1388,"x_min":81,"x_max":1516,"o":"m 1451 570 l 1143 583 l 1140 583 l 1186 713 l 1492 726 q 1509 708 1503 726 q 1516 658 1516 690 q 1496 597 1516 625 q 1451 570 1476 570 m 441 583 l 135 570 q 114 588 123 570 q 104 638 104 606 q 124 699 104 671 q 173 726 144 726 q 321 720 201 726 q 488 713 441 713 l 441 583 m 294 832 l 214 816 q 192 820 199 816 q 184 837 184 824 q 247 919 184 867 q 419 1013 309 970 q 617 1055 529 1055 q 743 1025 705 1055 q 781 919 781 994 q 749 747 781 843 q 660 508 718 650 l 778 511 q 825 484 825 511 q 803 452 825 464 q 619 408 745 422 q 546 210 572 289 q 521 82 521 132 l 523 37 q 500 4 523 16 q 452 -8 477 -8 l 180 -12 q 88 14 104 -12 q 81 53 81 26 q 92 130 81 80 q 166 326 104 180 q 279 598 228 472 q 330 765 330 724 q 321 819 330 805 q 294 832 313 832 m 1112 -8 l 861 -12 q 769 14 785 -12 q 762 46 762 26 q 811 270 762 110 q 919 609 861 431 q 986 847 977 787 q 996 953 996 907 q 1016 1011 996 999 q 1097 1024 1037 1024 q 1242 1030 1157 1024 q 1355 1036 1326 1036 q 1398 1020 1384 1036 q 1412 980 1412 1004 q 1331 639 1412 861 q 1263 452 1297 546 q 1181 80 1181 227 l 1183 37 q 1160 4 1183 16 q 1112 -8 1137 -8 z "},"":{"ha":1275,"x_min":9,"x_max":1407,"o":"m 793 917 q 816 901 806 917 q 825 853 825 884 q 811 801 825 821 q 766 775 796 780 q 622 758 736 770 q 454 736 507 745 q 289 702 402 728 q 140 670 176 676 q 112 684 123 670 q 100 731 100 698 q 115 786 100 764 q 157 811 130 807 q 309 830 184 816 q 480 851 434 844 q 643 885 527 859 q 793 917 758 911 m 354 1004 l 665 1006 q 690 997 680 1006 q 700 964 700 987 q 672 833 700 942 q 610 620 644 724 q 806 689 699 658 q 1000 720 914 720 q 1119 684 1065 720 q 1179 562 1179 644 q 1116 345 1179 481 q 1053 170 1053 208 q 1106 114 1053 114 q 1345 182 1212 114 q 1379 193 1366 193 q 1407 169 1407 193 q 1376 124 1407 144 q 1298 83 1345 105 q 1181 35 1251 61 q 829 -27 1016 -27 q 642 65 642 -27 q 710 278 642 125 q 778 486 778 432 q 684 550 778 550 q 581 534 631 550 q 420 19 469 205 q 405 0 416 6 q 384 -6 393 -6 l 35 -14 q 18 -4 27 -14 q 9 18 9 5 q 53 155 9 32 q 149 421 96 277 q 245 720 201 565 q 289 951 289 876 l 288 970 q 354 1004 288 1004 z "},"":{"ha":926,"x_min":49,"x_max":1137,"o":"m 316 403 q 151 666 151 505 q 187 800 151 738 q 282 906 223 863 q 416 981 341 949 q 730 1042 565 1042 q 869 998 832 1042 q 902 898 902 960 q 872 736 902 836 q 780 459 843 637 q 684 181 716 282 q 582 33 651 79 q 389 -14 513 -14 q 157 17 265 -14 q 49 88 49 48 q 94 123 49 119 q 192 153 161 132 q 248 231 222 175 q 316 403 275 286 m 439 828 q 430 854 439 844 q 405 865 420 865 q 373 853 390 865 q 338 819 356 842 q 292 667 292 764 q 345 486 292 570 q 439 828 439 768 m 433 1156 q 387 1190 387 1156 q 404 1232 387 1211 q 437 1270 421 1252 q 650 1373 532 1373 q 800 1338 720 1373 q 912 1304 879 1304 q 1007 1325 945 1304 q 1089 1346 1069 1346 q 1123 1337 1110 1346 q 1137 1308 1137 1329 q 1086 1233 1137 1287 q 872 1129 991 1129 q 773 1146 825 1129 q 677 1181 722 1164 q 605 1198 631 1198 q 516 1177 578 1198 q 433 1156 454 1156 z "},"":{"ha":696,"x_min":45,"x_max":873,"o":"m 523 115 q 648 137 569 115 q 763 176 727 159 q 813 193 799 193 q 842 165 842 193 q 821 136 842 152 q 572 28 751 84 q 251 -27 392 -27 q 104 1 163 -27 q 45 85 45 28 q 104 255 45 120 q 216 640 216 511 l 215 666 q 281 700 215 700 l 616 707 q 642 697 633 707 q 651 673 651 686 q 608 519 651 627 q 523 308 566 412 q 480 159 480 204 q 523 115 480 115 m 170 876 q 123 909 123 876 q 141 951 123 930 q 174 989 158 971 q 380 1105 281 1105 q 536 1063 452 1105 q 669 1021 621 1021 q 745 1050 688 1021 q 825 1079 802 1079 q 873 1046 873 1079 q 823 966 873 1020 q 616 848 716 848 q 514 870 568 848 q 410 912 459 891 q 335 934 361 934 q 252 905 309 934 q 170 876 195 876 z "},"":{"ha":926,"x_min":49,"x_max":1057,"o":"m 316 403 q 151 666 151 505 q 187 800 151 738 q 282 906 223 863 q 416 981 341 949 q 730 1042 565 1042 q 869 998 832 1042 q 902 898 902 960 q 872 736 902 836 q 780 459 843 637 q 684 181 716 282 q 582 33 651 79 q 389 -14 513 -14 q 157 17 265 -14 q 49 88 49 48 q 94 123 49 119 q 192 153 161 132 q 248 231 222 175 q 316 403 275 286 m 439 828 q 430 854 439 844 q 405 865 420 865 q 373 853 390 865 q 338 819 356 842 q 292 667 292 764 q 345 486 292 570 q 439 828 439 768 m 717 1172 l 444 1158 q 423 1176 432 1158 q 414 1227 414 1194 q 434 1291 414 1260 q 478 1322 454 1322 l 760 1308 l 1034 1322 q 1051 1304 1044 1322 q 1057 1253 1057 1286 q 1037 1189 1057 1220 q 986 1158 1017 1158 q 863 1165 954 1158 q 717 1172 771 1172 z "},"":{"ha":696,"x_min":45,"x_max":842,"o":"m 523 115 q 648 137 569 115 q 763 176 727 159 q 813 193 799 193 q 842 165 842 193 q 821 136 842 152 q 572 28 751 84 q 251 -27 392 -27 q 104 1 163 -27 q 45 85 45 28 q 104 255 45 120 q 216 640 216 511 l 215 666 q 281 700 215 700 l 616 707 q 642 697 633 707 q 651 673 651 686 q 608 519 651 627 q 523 308 566 412 q 480 159 480 204 q 523 115 480 115 m 203 884 q 172 928 172 884 q 192 996 172 972 q 237 1021 212 1021 l 498 1007 q 633 1014 549 1007 q 751 1021 718 1021 q 775 977 775 1021 q 756 909 775 934 q 704 884 736 884 q 591 891 672 884 q 456 898 509 898 q 321 891 404 898 q 203 884 239 884 z "},"":{"ha":926,"x_min":49,"x_max":1148,"o":"m 316 403 q 151 666 151 505 q 187 800 151 738 q 282 906 223 863 q 416 981 341 949 q 730 1042 565 1042 q 869 998 832 1042 q 902 898 902 960 q 872 736 902 836 q 780 459 843 637 q 684 181 716 282 q 582 33 651 79 q 389 -14 513 -14 q 157 17 265 -14 q 49 88 49 48 q 94 123 49 119 q 192 153 161 132 q 248 231 222 175 q 316 403 275 286 m 439 828 q 430 854 439 844 q 405 865 420 865 q 373 853 390 865 q 338 819 356 842 q 292 667 292 764 q 345 486 292 570 q 439 828 439 768 m 464 1341 q 511 1387 464 1387 q 594 1356 537 1387 q 806 1296 704 1296 q 1039 1355 941 1296 q 1114 1388 1094 1388 q 1148 1361 1148 1388 q 1131 1311 1148 1335 q 1082 1253 1114 1286 q 776 1116 944 1116 q 490 1266 587 1116 q 464 1341 464 1305 z "},"":{"ha":696,"x_min":45,"x_max":850,"o":"m 523 115 q 648 137 569 115 q 763 176 727 159 q 813 193 799 193 q 842 165 842 193 q 821 136 842 152 q 572 28 751 84 q 251 -27 392 -27 q 104 1 163 -27 q 45 85 45 28 q 104 255 45 120 q 216 640 216 511 l 215 666 q 281 700 215 700 l 616 707 q 642 697 633 707 q 651 673 651 686 q 608 519 651 627 q 523 308 566 412 q 480 159 480 204 q 523 115 480 115 m 237 932 q 190 992 213 956 q 166 1072 166 1028 q 213 1116 166 1116 q 297 1082 239 1116 q 509 1019 406 1019 q 742 1082 643 1019 q 817 1117 796 1117 q 850 1089 850 1117 q 784 976 850 1042 q 478 838 646 838 q 237 932 326 838 z "},"":{"ha":926,"x_min":49,"x_max":902,"o":"m 94 123 q 192 153 161 132 q 248 231 222 175 q 316 403 275 286 q 151 666 151 505 q 187 800 151 738 q 282 906 223 863 q 416 981 341 949 q 730 1042 565 1042 q 869 998 832 1042 q 902 898 902 960 q 872 736 902 836 q 780 459 843 637 q 684 181 716 282 q 582 33 651 79 q 389 -14 513 -14 q 157 17 265 -14 q 49 88 49 48 q 94 123 49 119 m 439 828 q 430 854 439 844 q 405 865 420 865 q 373 853 390 865 q 338 819 356 842 q 292 667 292 764 q 345 486 292 570 q 439 828 439 768 m 464 -260 l 534 -254 q 563 -280 563 -254 q 481 -341 563 -315 q 298 -368 400 -368 q 149 -336 196 -368 q 102 -251 102 -305 q 165 -131 102 -196 q 321 -15 229 -65 q 512 65 414 36 l 512 14 q 409 -70 457 -14 q 361 -181 361 -126 q 464 -260 361 -260 z "},"":{"ha":696,"x_min":-51,"x_max":828,"o":"m 700 956 q 620 830 700 884 q 450 776 539 776 q 311 812 361 776 q 262 901 262 848 q 300 996 262 953 q 398 1063 338 1038 q 530 1087 459 1087 q 651 1049 602 1087 q 700 956 700 1012 m 509 115 q 634 137 555 115 q 749 176 713 159 q 800 193 785 193 q 828 165 828 193 q 807 136 828 152 q 558 28 738 84 q 237 -27 378 -27 q 91 1 150 -27 q 32 85 32 28 q 91 255 32 120 q 202 640 202 511 l 201 666 q 267 700 201 700 l 602 707 q 629 697 620 707 q 637 673 637 686 q 595 519 637 627 q 509 308 552 412 q 467 159 467 204 q 509 115 467 115 m 311 -260 l 380 -254 q 410 -280 410 -254 q 328 -341 410 -315 q 145 -368 247 -368 q -4 -336 43 -368 q -51 -251 -51 -305 q 12 -131 -51 -196 q 168 -15 75 -65 q 359 65 260 36 l 359 14 q 256 -70 304 -14 q 208 -181 208 -126 q 311 -260 208 -260 z "},"":{"ha":926,"x_min":49,"x_max":922,"o":"m 316 403 q 151 666 151 505 q 187 800 151 738 q 282 906 223 863 q 416 981 341 949 q 730 1042 565 1042 q 869 998 832 1042 q 902 898 902 960 q 872 736 902 836 q 780 459 843 637 q 684 181 716 282 q 582 33 651 79 q 389 -14 513 -14 q 157 17 265 -14 q 49 88 49 48 q 94 123 49 119 q 192 153 161 132 q 248 231 222 175 q 316 403 275 286 m 439 828 q 430 854 439 844 q 405 865 420 865 q 373 853 390 865 q 338 819 356 842 q 292 667 292 764 q 345 486 292 570 q 439 828 439 768 m 543 1316 q 754 1386 621 1386 q 876 1356 829 1386 q 922 1278 922 1325 q 885 1197 922 1231 q 791 1144 848 1162 q 666 1126 734 1126 q 551 1157 598 1126 q 505 1234 505 1187 q 543 1316 505 1282 z "},"":{"ha":696,"x_min":32,"x_max":828,"o":"m 509 115 q 634 137 555 115 q 749 176 713 159 q 800 193 785 193 q 828 165 828 193 q 807 136 828 152 q 558 28 738 84 q 237 -27 378 -27 q 91 1 150 -27 q 32 85 32 28 q 91 255 32 120 q 202 640 202 511 l 201 666 q 267 700 201 700 l 602 707 q 629 697 620 707 q 637 673 637 686 q 595 519 637 627 q 509 308 552 412 q 467 159 467 204 q 509 115 467 115 z "},"":{"ha":1853,"x_min":49,"x_max":1828,"o":"m 316 403 q 151 666 151 505 q 187 800 151 738 q 282 906 223 863 q 416 981 341 949 q 730 1042 565 1042 q 869 998 832 1042 q 902 898 902 960 q 872 736 902 836 q 780 459 843 637 q 684 181 716 282 q 582 33 651 79 q 389 -14 513 -14 q 157 17 265 -14 q 49 88 49 48 q 94 123 49 119 q 192 153 161 132 q 248 231 222 175 q 316 403 275 286 m 439 828 q 430 854 439 844 q 405 865 420 865 q 373 853 390 865 q 338 819 356 842 q 292 667 292 764 q 345 486 292 570 q 439 828 439 768 m 1388 -231 q 1069 -346 1270 -346 q 909 -298 972 -346 q 846 -169 846 -251 q 876 -22 846 -87 q 956 96 905 44 q 1200 261 1053 197 q 1267 453 1217 312 q 1367 795 1367 735 q 1360 826 1367 817 q 1324 836 1352 836 q 1183 787 1296 836 q 1120 773 1151 773 q 1089 801 1089 773 q 1112 840 1089 819 q 1357 982 1208 923 q 1625 1042 1506 1042 q 1786 1016 1744 1042 q 1828 926 1828 990 q 1790 733 1828 861 q 1677 396 1752 606 q 1572 93 1603 186 q 1495 -85 1541 1 q 1388 -231 1449 -171 m 1015 -249 q 1053 -194 1031 -249 q 1169 163 1083 -113 q 1035 8 1090 96 q 979 -164 979 -79 q 1015 -249 979 -249 z "}}}
